<mxfile host="app.diagrams.net" agent="Mozilla/5.0 (Windows NT 10.0; Win64; x64) AppleWebKit/537.36 (KHTML, like Gecko) Chrome/140.0.0.0 Safari/537.36" version="28.2.0" pages="9">
  <diagram id="UgzrCN0nqND3ceZvuSX_" name="PÃ¡gina-1">
    <mxGraphModel dx="1007" dy="313" grid="0" gridSize="10" guides="1" tooltips="1" connect="1" arrows="1" fold="1" page="0" pageScale="1" pageWidth="827" pageHeight="1169" math="0" shadow="0">
      <root>
        <mxCell id="0" />
        <mxCell id="1" parent="0" />
        <mxCell id="OFctLADLsnqZ68K7eBPd-1" value="Recetas" style="rounded=0;whiteSpace=wrap;html=1;" vertex="1" parent="1">
          <mxGeometry x="-1" y="557" width="120" height="40" as="geometry" />
        </mxCell>
        <mxCell id="OFctLADLsnqZ68K7eBPd-2" style="edgeStyle=none;curved=1;rounded=0;orthogonalLoop=1;jettySize=auto;html=1;exitX=0.5;exitY=1;exitDx=0;exitDy=0;fontSize=12;startSize=8;endSize=8;" edge="1" parent="1" source="OFctLADLsnqZ68K7eBPd-1" target="OFctLADLsnqZ68K7eBPd-1">
          <mxGeometry relative="1" as="geometry" />
        </mxCell>
        <mxCell id="OFctLADLsnqZ68K7eBPd-3" value="usa" style="rhombus;whiteSpace=wrap;html=1;" vertex="1" parent="1">
          <mxGeometry x="189" y="552" width="60" height="50" as="geometry" />
        </mxCell>
        <mxCell id="OFctLADLsnqZ68K7eBPd-4" value="" style="endArrow=none;html=1;rounded=0;fontSize=12;startSize=8;endSize=8;curved=1;exitX=1;exitY=0.5;exitDx=0;exitDy=0;" edge="1" parent="1" source="OFctLADLsnqZ68K7eBPd-1">
          <mxGeometry width="50" height="50" relative="1" as="geometry">
            <mxPoint x="119" y="577" as="sourcePoint" />
            <mxPoint x="189" y="576.5" as="targetPoint" />
          </mxGeometry>
        </mxCell>
        <mxCell id="OFctLADLsnqZ68K7eBPd-5" value="Condimentos" style="rounded=0;whiteSpace=wrap;html=1;" vertex="1" parent="1">
          <mxGeometry x="319" y="557" width="120" height="40" as="geometry" />
        </mxCell>
        <mxCell id="OFctLADLsnqZ68K7eBPd-6" value="" style="endArrow=none;html=1;rounded=0;fontSize=12;startSize=8;endSize=8;curved=1;entryX=0;entryY=0.5;entryDx=0;entryDy=0;" edge="1" parent="1" target="OFctLADLsnqZ68K7eBPd-5">
          <mxGeometry width="50" height="50" relative="1" as="geometry">
            <mxPoint x="249" y="576.5" as="sourcePoint" />
            <mxPoint x="299" y="577" as="targetPoint" />
          </mxGeometry>
        </mxCell>
        <mxCell id="OFctLADLsnqZ68K7eBPd-7" style="edgeStyle=none;curved=1;rounded=0;orthogonalLoop=1;jettySize=auto;html=1;exitX=0.5;exitY=1;exitDx=0;exitDy=0;fontSize=12;startSize=8;endSize=8;" edge="1" parent="1" source="OFctLADLsnqZ68K7eBPd-5" target="OFctLADLsnqZ68K7eBPd-5">
          <mxGeometry relative="1" as="geometry" />
        </mxCell>
        <mxCell id="OFctLADLsnqZ68K7eBPd-8" value="CatRecetas" style="rounded=0;whiteSpace=wrap;html=1;" vertex="1" parent="1">
          <mxGeometry x="-1" y="817" width="120" height="40" as="geometry" />
        </mxCell>
        <mxCell id="OFctLADLsnqZ68K7eBPd-9" value="" style="endArrow=none;html=1;rounded=0;fontSize=12;startSize=8;endSize=8;curved=1;entryX=0.5;entryY=1;entryDx=0;entryDy=0;exitX=0.5;exitY=0;exitDx=0;exitDy=0;" edge="1" parent="1" source="OFctLADLsnqZ68K7eBPd-14" target="OFctLADLsnqZ68K7eBPd-1">
          <mxGeometry relative="1" as="geometry">
            <mxPoint x="49" y="687" as="sourcePoint" />
            <mxPoint x="209" y="687" as="targetPoint" />
            <Array as="points" />
          </mxGeometry>
        </mxCell>
        <mxCell id="OFctLADLsnqZ68K7eBPd-10" value="CatIngredientes" style="rounded=0;whiteSpace=wrap;html=1;" vertex="1" parent="1">
          <mxGeometry x="319" y="817" width="120" height="40" as="geometry" />
        </mxCell>
        <mxCell id="OFctLADLsnqZ68K7eBPd-11" value="" style="endArrow=none;html=1;rounded=0;fontSize=12;startSize=8;endSize=8;curved=1;entryX=0.5;entryY=1;entryDx=0;entryDy=0;exitX=0.5;exitY=0;exitDx=0;exitDy=0;" edge="1" parent="1" source="OFctLADLsnqZ68K7eBPd-16">
          <mxGeometry relative="1" as="geometry">
            <mxPoint x="369" y="687" as="sourcePoint" />
            <mxPoint x="379" y="597" as="targetPoint" />
          </mxGeometry>
        </mxCell>
        <mxCell id="OFctLADLsnqZ68K7eBPd-12" style="edgeStyle=none;curved=1;rounded=0;orthogonalLoop=1;jettySize=auto;html=1;exitX=1;exitY=1;exitDx=0;exitDy=0;fontSize=12;startSize=8;endSize=8;" edge="1" parent="1" source="OFctLADLsnqZ68K7eBPd-14" target="OFctLADLsnqZ68K7eBPd-14">
          <mxGeometry relative="1" as="geometry" />
        </mxCell>
        <mxCell id="OFctLADLsnqZ68K7eBPd-13" value="" style="endArrow=none;html=1;rounded=0;fontSize=12;startSize=8;endSize=8;curved=1;entryX=0.5;entryY=1;entryDx=0;entryDy=0;exitX=0.5;exitY=0;exitDx=0;exitDy=0;" edge="1" parent="1" source="OFctLADLsnqZ68K7eBPd-8" target="OFctLADLsnqZ68K7eBPd-14">
          <mxGeometry relative="1" as="geometry">
            <mxPoint x="59" y="817" as="sourcePoint" />
            <mxPoint x="59" y="597" as="targetPoint" />
            <Array as="points">
              <mxPoint x="59" y="747" />
            </Array>
          </mxGeometry>
        </mxCell>
        <mxCell id="OFctLADLsnqZ68K7eBPd-14" value="tiene" style="shape=rhombus;perimeter=rhombusPerimeter;whiteSpace=wrap;html=1;align=center;" vertex="1" parent="1">
          <mxGeometry x="-1" y="667" width="120" height="60" as="geometry" />
        </mxCell>
        <mxCell id="OFctLADLsnqZ68K7eBPd-15" value="" style="endArrow=none;html=1;rounded=0;fontSize=12;startSize=8;endSize=8;curved=1;entryX=0.5;entryY=1;entryDx=0;entryDy=0;exitX=0.5;exitY=0;exitDx=0;exitDy=0;" edge="1" parent="1" source="OFctLADLsnqZ68K7eBPd-10" target="OFctLADLsnqZ68K7eBPd-16">
          <mxGeometry relative="1" as="geometry">
            <mxPoint x="379" y="877" as="sourcePoint" />
            <mxPoint x="379" y="597" as="targetPoint" />
          </mxGeometry>
        </mxCell>
        <mxCell id="OFctLADLsnqZ68K7eBPd-16" value="tiene" style="shape=rhombus;perimeter=rhombusPerimeter;whiteSpace=wrap;html=1;align=center;" vertex="1" parent="1">
          <mxGeometry x="319" y="667" width="120" height="60" as="geometry" />
        </mxCell>
        <mxCell id="OFctLADLsnqZ68K7eBPd-17" value="(1,1)" style="text;strokeColor=none;fillColor=none;spacingLeft=4;spacingRight=4;overflow=hidden;rotatable=0;points=[[0,0.5],[1,0.5]];portConstraint=eastwest;fontSize=12;whiteSpace=wrap;html=1;" vertex="1" parent="1">
          <mxGeometry x="119" y="552" width="40" height="30" as="geometry" />
        </mxCell>
        <mxCell id="OFctLADLsnqZ68K7eBPd-18" value="(1,N)" style="text;strokeColor=none;fillColor=none;spacingLeft=4;spacingRight=4;overflow=hidden;rotatable=0;points=[[0,0.5],[1,0.5]];portConstraint=eastwest;fontSize=12;whiteSpace=wrap;html=1;" vertex="1" parent="1">
          <mxGeometry x="279" y="552" width="40" height="30" as="geometry" />
        </mxCell>
        <mxCell id="OFctLADLsnqZ68K7eBPd-19" value="(1,N)" style="text;strokeColor=none;fillColor=none;spacingLeft=4;spacingRight=4;overflow=hidden;rotatable=0;points=[[0,0.5],[1,0.5]];portConstraint=eastwest;fontSize=12;whiteSpace=wrap;html=1;" vertex="1" parent="1">
          <mxGeometry x="59" y="602" width="40" height="30" as="geometry" />
        </mxCell>
        <mxCell id="OFctLADLsnqZ68K7eBPd-20" value="(1,N)" style="text;strokeColor=none;fillColor=none;spacingLeft=4;spacingRight=4;overflow=hidden;rotatable=0;points=[[0,0.5],[1,0.5]];portConstraint=eastwest;fontSize=12;whiteSpace=wrap;html=1;" vertex="1" parent="1">
          <mxGeometry x="59" y="787" width="40" height="30" as="geometry" />
        </mxCell>
        <mxCell id="OFctLADLsnqZ68K7eBPd-21" value="(1,N)" style="text;strokeColor=none;fillColor=none;spacingLeft=4;spacingRight=4;overflow=hidden;rotatable=0;points=[[0,0.5],[1,0.5]];portConstraint=eastwest;fontSize=12;whiteSpace=wrap;html=1;" vertex="1" parent="1">
          <mxGeometry x="379" y="602" width="40" height="30" as="geometry" />
        </mxCell>
        <mxCell id="OFctLADLsnqZ68K7eBPd-22" value="(1,1)" style="text;strokeColor=none;fillColor=none;spacingLeft=4;spacingRight=4;overflow=hidden;rotatable=0;points=[[0,0.5],[1,0.5]];portConstraint=eastwest;fontSize=12;whiteSpace=wrap;html=1;" vertex="1" parent="1">
          <mxGeometry x="379" y="787" width="40" height="30" as="geometry" />
        </mxCell>
        <mxCell id="OFctLADLsnqZ68K7eBPd-23" value="Nombre" style="ellipse;whiteSpace=wrap;html=1;align=center;fontStyle=4;" vertex="1" parent="1">
          <mxGeometry x="-201" y="457" width="100" height="40" as="geometry" />
        </mxCell>
        <mxCell id="OFctLADLsnqZ68K7eBPd-24" value="" style="endArrow=none;html=1;rounded=0;fontSize=12;startSize=8;endSize=8;curved=1;entryX=0.5;entryY=0;entryDx=0;entryDy=0;exitX=0.5;exitY=1;exitDx=0;exitDy=0;" edge="1" parent="1" source="OFctLADLsnqZ68K7eBPd-23" target="OFctLADLsnqZ68K7eBPd-1">
          <mxGeometry relative="1" as="geometry">
            <mxPoint x="-131" y="537" as="sourcePoint" />
            <mxPoint x="59" y="547" as="targetPoint" />
          </mxGeometry>
        </mxCell>
        <mxCell id="OFctLADLsnqZ68K7eBPd-25" value="Tiempo" style="ellipse;whiteSpace=wrap;html=1;align=center;" vertex="1" parent="1">
          <mxGeometry x="-91" y="457" width="100" height="40" as="geometry" />
        </mxCell>
        <mxCell id="OFctLADLsnqZ68K7eBPd-26" value="" style="endArrow=none;html=1;rounded=0;fontSize=12;startSize=8;endSize=8;curved=1;exitX=0.5;exitY=1;exitDx=0;exitDy=0;" edge="1" parent="1" source="OFctLADLsnqZ68K7eBPd-25">
          <mxGeometry relative="1" as="geometry">
            <mxPoint x="-81" y="527" as="sourcePoint" />
            <mxPoint x="59" y="557" as="targetPoint" />
          </mxGeometry>
        </mxCell>
        <mxCell id="OFctLADLsnqZ68K7eBPd-27" value="Modo" style="ellipse;shape=doubleEllipse;margin=3;whiteSpace=wrap;html=1;align=center;" vertex="1" parent="1">
          <mxGeometry x="29" y="457" width="100" height="40" as="geometry" />
        </mxCell>
        <mxCell id="OFctLADLsnqZ68K7eBPd-28" value="" style="endArrow=none;html=1;rounded=0;fontSize=12;startSize=8;endSize=8;curved=1;entryX=0.5;entryY=1;entryDx=0;entryDy=0;" edge="1" parent="1" target="OFctLADLsnqZ68K7eBPd-27">
          <mxGeometry relative="1" as="geometry">
            <mxPoint x="59" y="557" as="sourcePoint" />
            <mxPoint x="129" y="557" as="targetPoint" />
          </mxGeometry>
        </mxCell>
        <mxCell id="OFctLADLsnqZ68K7eBPd-29" value="Comentario" style="ellipse;whiteSpace=wrap;html=1;align=center;" vertex="1" parent="1">
          <mxGeometry x="-221" y="557" width="100" height="40" as="geometry" />
        </mxCell>
        <mxCell id="OFctLADLsnqZ68K7eBPd-30" value="" style="endArrow=none;html=1;rounded=0;fontSize=12;startSize=8;endSize=8;curved=1;exitX=1;exitY=0.5;exitDx=0;exitDy=0;entryX=0;entryY=0.5;entryDx=0;entryDy=0;" edge="1" parent="1" source="OFctLADLsnqZ68K7eBPd-29" target="OFctLADLsnqZ68K7eBPd-1">
          <mxGeometry relative="1" as="geometry">
            <mxPoint x="-31" y="717" as="sourcePoint" />
            <mxPoint x="129" y="717" as="targetPoint" />
          </mxGeometry>
        </mxCell>
        <mxCell id="OFctLADLsnqZ68K7eBPd-31" value="Nombre" style="ellipse;whiteSpace=wrap;html=1;align=center;fontStyle=4;" vertex="1" parent="1">
          <mxGeometry x="339" y="457" width="100" height="40" as="geometry" />
        </mxCell>
        <mxCell id="OFctLADLsnqZ68K7eBPd-32" value="" style="endArrow=none;html=1;rounded=0;fontSize=12;startSize=8;endSize=8;curved=1;entryX=0.5;entryY=1;entryDx=0;entryDy=0;" edge="1" parent="1" source="OFctLADLsnqZ68K7eBPd-5" target="OFctLADLsnqZ68K7eBPd-31">
          <mxGeometry relative="1" as="geometry">
            <mxPoint x="439" y="717" as="sourcePoint" />
            <mxPoint x="389" y="507" as="targetPoint" />
          </mxGeometry>
        </mxCell>
        <mxCell id="OFctLADLsnqZ68K7eBPd-33" value="Nombre" style="ellipse;whiteSpace=wrap;html=1;align=center;" vertex="1" parent="1">
          <mxGeometry x="459" y="897" width="100" height="40" as="geometry" />
        </mxCell>
        <mxCell id="OFctLADLsnqZ68K7eBPd-34" value="Nombre" style="ellipse;whiteSpace=wrap;html=1;align=center;" vertex="1" parent="1">
          <mxGeometry x="-1" y="897" width="100" height="40" as="geometry" />
        </mxCell>
        <mxCell id="OFctLADLsnqZ68K7eBPd-35" value="Id" style="ellipse;whiteSpace=wrap;html=1;align=center;fontStyle=4;" vertex="1" parent="1">
          <mxGeometry x="329" y="897" width="100" height="40" as="geometry" />
        </mxCell>
        <mxCell id="OFctLADLsnqZ68K7eBPd-36" value="Id" style="ellipse;whiteSpace=wrap;html=1;align=center;fontStyle=4;" vertex="1" parent="1">
          <mxGeometry x="129" y="897" width="100" height="40" as="geometry" />
        </mxCell>
        <mxCell id="OFctLADLsnqZ68K7eBPd-37" value="" style="endArrow=none;html=1;rounded=0;fontSize=12;startSize=8;endSize=8;curved=1;entryX=0.5;entryY=0;entryDx=0;entryDy=0;exitX=0.5;exitY=1;exitDx=0;exitDy=0;" edge="1" parent="1" source="OFctLADLsnqZ68K7eBPd-8" target="OFctLADLsnqZ68K7eBPd-34">
          <mxGeometry relative="1" as="geometry">
            <mxPoint x="59" y="867" as="sourcePoint" />
            <mxPoint x="219" y="877" as="targetPoint" />
          </mxGeometry>
        </mxCell>
        <mxCell id="OFctLADLsnqZ68K7eBPd-38" value="" style="endArrow=none;html=1;rounded=0;fontSize=12;startSize=8;endSize=8;curved=1;exitX=0.5;exitY=0;exitDx=0;exitDy=0;" edge="1" parent="1" source="OFctLADLsnqZ68K7eBPd-36">
          <mxGeometry relative="1" as="geometry">
            <mxPoint x="179" y="877" as="sourcePoint" />
            <mxPoint x="59" y="857" as="targetPoint" />
          </mxGeometry>
        </mxCell>
        <mxCell id="OFctLADLsnqZ68K7eBPd-39" value="" style="endArrow=none;html=1;rounded=0;fontSize=12;startSize=8;endSize=8;curved=1;exitX=0.5;exitY=1;exitDx=0;exitDy=0;entryX=0.5;entryY=0;entryDx=0;entryDy=0;" edge="1" parent="1" source="OFctLADLsnqZ68K7eBPd-10" target="OFctLADLsnqZ68K7eBPd-35">
          <mxGeometry relative="1" as="geometry">
            <mxPoint x="159" y="727" as="sourcePoint" />
            <mxPoint x="319" y="727" as="targetPoint" />
          </mxGeometry>
        </mxCell>
        <mxCell id="OFctLADLsnqZ68K7eBPd-40" value="" style="endArrow=none;html=1;rounded=0;fontSize=12;startSize=8;endSize=8;curved=1;exitX=0.4;exitY=0;exitDx=0;exitDy=0;exitPerimeter=0;entryX=0.5;entryY=1;entryDx=0;entryDy=0;" edge="1" parent="1" source="OFctLADLsnqZ68K7eBPd-33" target="OFctLADLsnqZ68K7eBPd-10">
          <mxGeometry relative="1" as="geometry">
            <mxPoint x="159" y="727" as="sourcePoint" />
            <mxPoint x="319" y="727" as="targetPoint" />
          </mxGeometry>
        </mxCell>
      </root>
    </mxGraphModel>
  </diagram>
  <diagram id="ADI3FC15alh7jP4HoXQ0" name="PÃ¡gina-2">
    <mxGraphModel dx="1054" dy="368" grid="1" gridSize="10" guides="1" tooltips="1" connect="1" arrows="1" fold="1" page="0" pageScale="1" pageWidth="827" pageHeight="1169" math="0" shadow="0">
      <root>
        <mxCell id="0" />
        <mxCell id="1" parent="0" />
        <mxCell id="huSL4YwEYdzHKoShdB33-1" value="Usuarios" style="rounded=0;whiteSpace=wrap;html=1;" vertex="1" parent="1">
          <mxGeometry x="-40" y="520" width="120" height="40" as="geometry" />
        </mxCell>
        <mxCell id="huSL4YwEYdzHKoShdB33-2" value="Negocios" style="rounded=0;whiteSpace=wrap;html=1;" vertex="1" parent="1">
          <mxGeometry x="880" y="520" width="120" height="41" as="geometry" />
        </mxCell>
        <mxCell id="huSL4YwEYdzHKoShdB33-3" value="Categoria" style="rounded=0;whiteSpace=wrap;html=1;" vertex="1" parent="1">
          <mxGeometry x="870" y="780" width="120" height="39" as="geometry" />
        </mxCell>
        <mxCell id="huSL4YwEYdzHKoShdB33-4" value="Pedido" style="shape=ext;margin=3;double=1;whiteSpace=wrap;html=1;align=center;" vertex="1" parent="1">
          <mxGeometry x="440" y="520" width="120" height="40" as="geometry" />
        </mxCell>
        <mxCell id="huSL4YwEYdzHKoShdB33-5" value="&lt;div&gt;hace&lt;/div&gt;" style="shape=rhombus;double=1;perimeter=rhombusPerimeter;whiteSpace=wrap;html=1;align=center;" vertex="1" parent="1">
          <mxGeometry x="220" y="510" width="120" height="60" as="geometry" />
        </mxCell>
        <mxCell id="huSL4YwEYdzHKoShdB33-6" value="" style="endArrow=none;html=1;rounded=0;fontSize=12;startSize=8;endSize=8;curved=1;exitX=1;exitY=0.5;exitDx=0;exitDy=0;entryX=0;entryY=0.5;entryDx=0;entryDy=0;" edge="1" parent="1" source="huSL4YwEYdzHKoShdB33-1" target="huSL4YwEYdzHKoShdB33-5">
          <mxGeometry relative="1" as="geometry">
            <mxPoint x="210" y="600" as="sourcePoint" />
            <mxPoint x="370" y="600" as="targetPoint" />
          </mxGeometry>
        </mxCell>
        <mxCell id="huSL4YwEYdzHKoShdB33-7" value="" style="endArrow=none;html=1;rounded=0;fontSize=12;startSize=8;endSize=8;curved=1;exitX=1;exitY=0.5;exitDx=0;exitDy=0;entryX=0;entryY=0.5;entryDx=0;entryDy=0;" edge="1" parent="1" source="huSL4YwEYdzHKoShdB33-5" target="huSL4YwEYdzHKoShdB33-4">
          <mxGeometry relative="1" as="geometry">
            <mxPoint x="210" y="600" as="sourcePoint" />
            <mxPoint x="370" y="600" as="targetPoint" />
          </mxGeometry>
        </mxCell>
        <mxCell id="huSL4YwEYdzHKoShdB33-8" value="" style="endArrow=none;html=1;rounded=0;fontSize=12;startSize=8;endSize=8;curved=1;exitX=0.5;exitY=0;exitDx=0;exitDy=0;" edge="1" parent="1" target="huSL4YwEYdzHKoShdB33-9">
          <mxGeometry relative="1" as="geometry">
            <mxPoint x="500" y="521" as="sourcePoint" />
            <mxPoint x="520" y="471" as="targetPoint" />
          </mxGeometry>
        </mxCell>
        <mxCell id="huSL4YwEYdzHKoShdB33-9" value="Fecha" style="ellipse;whiteSpace=wrap;html=1;align=center;" vertex="1" parent="1">
          <mxGeometry x="520" y="420" width="100" height="40" as="geometry" />
        </mxCell>
        <mxCell id="huSL4YwEYdzHKoShdB33-10" value="" style="endArrow=none;html=1;rounded=0;fontSize=12;startSize=8;endSize=8;curved=1;exitX=0.5;exitY=0;exitDx=0;exitDy=0;" edge="1" parent="1" source="huSL4YwEYdzHKoShdB33-4" target="huSL4YwEYdzHKoShdB33-11">
          <mxGeometry relative="1" as="geometry">
            <mxPoint x="410" y="600" as="sourcePoint" />
            <mxPoint x="500" y="460" as="targetPoint" />
          </mxGeometry>
        </mxCell>
        <mxCell id="huSL4YwEYdzHKoShdB33-11" value="Monto" style="ellipse;whiteSpace=wrap;html=1;align=center;" vertex="1" parent="1">
          <mxGeometry x="390" y="420" width="100" height="40" as="geometry" />
        </mxCell>
        <mxCell id="huSL4YwEYdzHKoShdB33-12" value="Tel" style="ellipse;whiteSpace=wrap;html=1;align=center;" vertex="1" parent="1">
          <mxGeometry x="-60" y="580" width="100" height="40" as="geometry" />
        </mxCell>
        <mxCell id="huSL4YwEYdzHKoShdB33-13" value="Mail" style="ellipse;whiteSpace=wrap;html=1;align=center;fontStyle=4;" vertex="1" parent="1">
          <mxGeometry x="-60" y="440" width="100" height="40" as="geometry" />
        </mxCell>
        <mxCell id="huSL4YwEYdzHKoShdB33-14" value="Nombre" style="ellipse;whiteSpace=wrap;html=1;align=center;" vertex="1" parent="1">
          <mxGeometry x="-180" y="520" width="100" height="40" as="geometry" />
        </mxCell>
        <mxCell id="huSL4YwEYdzHKoShdB33-15" value="Direccion" style="ellipse;whiteSpace=wrap;html=1;align=center;" vertex="1" parent="1">
          <mxGeometry x="70" y="440" width="100" height="40" as="geometry" />
        </mxCell>
        <mxCell id="huSL4YwEYdzHKoShdB33-17" value="" style="endArrow=none;html=1;rounded=0;fontSize=12;startSize=8;endSize=8;curved=1;exitX=1;exitY=0.5;exitDx=0;exitDy=0;entryX=0;entryY=0.5;entryDx=0;entryDy=0;" edge="1" parent="1" source="huSL4YwEYdzHKoShdB33-14" target="huSL4YwEYdzHKoShdB33-1">
          <mxGeometry relative="1" as="geometry">
            <mxPoint x="-90" y="600" as="sourcePoint" />
            <mxPoint x="70" y="600" as="targetPoint" />
          </mxGeometry>
        </mxCell>
        <mxCell id="huSL4YwEYdzHKoShdB33-18" value="" style="endArrow=none;html=1;rounded=0;fontSize=12;startSize=8;endSize=8;curved=1;exitX=0.5;exitY=1;exitDx=0;exitDy=0;entryX=0.5;entryY=0;entryDx=0;entryDy=0;" edge="1" parent="1" source="huSL4YwEYdzHKoShdB33-1" target="huSL4YwEYdzHKoShdB33-12">
          <mxGeometry relative="1" as="geometry">
            <mxPoint x="-90" y="600" as="sourcePoint" />
            <mxPoint x="70" y="600" as="targetPoint" />
          </mxGeometry>
        </mxCell>
        <mxCell id="huSL4YwEYdzHKoShdB33-19" value="" style="endArrow=none;html=1;rounded=0;fontSize=12;startSize=8;endSize=8;curved=1;exitX=0.5;exitY=1;exitDx=0;exitDy=0;entryX=0.5;entryY=0;entryDx=0;entryDy=0;" edge="1" parent="1" source="huSL4YwEYdzHKoShdB33-13" target="huSL4YwEYdzHKoShdB33-1">
          <mxGeometry relative="1" as="geometry">
            <mxPoint x="-90" y="600" as="sourcePoint" />
            <mxPoint x="70" y="600" as="targetPoint" />
          </mxGeometry>
        </mxCell>
        <mxCell id="huSL4YwEYdzHKoShdB33-20" value="" style="endArrow=none;html=1;rounded=0;fontSize=12;startSize=8;endSize=8;curved=1;exitX=0.5;exitY=1;exitDx=0;exitDy=0;entryX=0.5;entryY=0;entryDx=0;entryDy=0;" edge="1" parent="1" source="huSL4YwEYdzHKoShdB33-15" target="huSL4YwEYdzHKoShdB33-1">
          <mxGeometry relative="1" as="geometry">
            <mxPoint x="-90" y="600" as="sourcePoint" />
            <mxPoint x="70" y="600" as="targetPoint" />
          </mxGeometry>
        </mxCell>
        <mxCell id="huSL4YwEYdzHKoShdB33-22" value="viene" style="shape=rhombus;perimeter=rhombusPerimeter;whiteSpace=wrap;html=1;align=center;" vertex="1" parent="1">
          <mxGeometry x="670" y="510" width="120" height="60" as="geometry" />
        </mxCell>
        <mxCell id="huSL4YwEYdzHKoShdB33-23" value="Hora" style="ellipse;whiteSpace=wrap;html=1;align=center;" vertex="1" parent="1">
          <mxGeometry x="460" y="621" width="100" height="40" as="geometry" />
        </mxCell>
        <mxCell id="huSL4YwEYdzHKoShdB33-24" value="" style="endArrow=none;html=1;rounded=0;fontSize=12;startSize=8;endSize=8;curved=1;exitX=0.5;exitY=1;exitDx=0;exitDy=0;entryX=0.5;entryY=0;entryDx=0;entryDy=0;" edge="1" parent="1" target="huSL4YwEYdzHKoShdB33-23">
          <mxGeometry relative="1" as="geometry">
            <mxPoint x="500" y="561" as="sourcePoint" />
            <mxPoint x="690" y="561" as="targetPoint" />
          </mxGeometry>
        </mxCell>
        <mxCell id="huSL4YwEYdzHKoShdB33-25" value="tiene" style="shape=rhombus;perimeter=rhombusPerimeter;whiteSpace=wrap;html=1;align=center;" vertex="1" parent="1">
          <mxGeometry x="870" y="640" width="120" height="60" as="geometry" />
        </mxCell>
        <mxCell id="huSL4YwEYdzHKoShdB33-26" value="" style="endArrow=none;html=1;rounded=0;fontSize=12;startSize=8;endSize=8;curved=1;exitX=0.5;exitY=1;exitDx=0;exitDy=0;" edge="1" parent="1" target="huSL4YwEYdzHKoShdB33-25">
          <mxGeometry relative="1" as="geometry">
            <mxPoint x="930" y="560" as="sourcePoint" />
            <mxPoint x="900" y="570" as="targetPoint" />
          </mxGeometry>
        </mxCell>
        <mxCell id="huSL4YwEYdzHKoShdB33-27" value="" style="endArrow=none;html=1;rounded=0;fontSize=12;startSize=8;endSize=8;curved=1;exitX=0.5;exitY=0;exitDx=0;exitDy=0;entryX=0.5;entryY=1;entryDx=0;entryDy=0;" edge="1" parent="1" source="huSL4YwEYdzHKoShdB33-3" target="huSL4YwEYdzHKoShdB33-25">
          <mxGeometry relative="1" as="geometry">
            <mxPoint x="740" y="570" as="sourcePoint" />
            <mxPoint x="900" y="570" as="targetPoint" />
          </mxGeometry>
        </mxCell>
        <mxCell id="huSL4YwEYdzHKoShdB33-28" value="" style="endArrow=none;html=1;rounded=0;fontSize=12;startSize=8;endSize=8;curved=1;exitX=1;exitY=0.5;exitDx=0;exitDy=0;entryX=0;entryY=0.5;entryDx=0;entryDy=0;" edge="1" parent="1" source="huSL4YwEYdzHKoShdB33-4" target="huSL4YwEYdzHKoShdB33-22">
          <mxGeometry relative="1" as="geometry">
            <mxPoint x="630" y="680" as="sourcePoint" />
            <mxPoint x="790" y="680" as="targetPoint" />
          </mxGeometry>
        </mxCell>
        <mxCell id="huSL4YwEYdzHKoShdB33-29" value="" style="endArrow=none;html=1;rounded=0;fontSize=12;startSize=8;endSize=8;curved=1;exitX=1;exitY=0.5;exitDx=0;exitDy=0;entryX=0;entryY=0.5;entryDx=0;entryDy=0;" edge="1" parent="1" source="huSL4YwEYdzHKoShdB33-22" target="huSL4YwEYdzHKoShdB33-2">
          <mxGeometry relative="1" as="geometry">
            <mxPoint x="630" y="570" as="sourcePoint" />
            <mxPoint x="790" y="570" as="targetPoint" />
          </mxGeometry>
        </mxCell>
        <mxCell id="huSL4YwEYdzHKoShdB33-30" value="Nombre" style="ellipse;whiteSpace=wrap;html=1;align=center;fontStyle=4;" vertex="1" parent="1">
          <mxGeometry x="860" y="430" width="100" height="40" as="geometry" />
        </mxCell>
        <mxCell id="huSL4YwEYdzHKoShdB33-31" value="Id" style="ellipse;whiteSpace=wrap;html=1;align=center;fontStyle=4;" vertex="1" parent="1">
          <mxGeometry x="990" y="850" width="100" height="40" as="geometry" />
        </mxCell>
        <mxCell id="huSL4YwEYdzHKoShdB33-32" value="Nombre" style="ellipse;whiteSpace=wrap;html=1;align=center;" vertex="1" parent="1">
          <mxGeometry x="860" y="850" width="100" height="40" as="geometry" />
        </mxCell>
        <mxCell id="huSL4YwEYdzHKoShdB33-33" value="" style="endArrow=none;html=1;rounded=0;fontSize=12;startSize=8;endSize=8;curved=1;exitX=0.5;exitY=0;exitDx=0;exitDy=0;entryX=0.5;entryY=1;entryDx=0;entryDy=0;" edge="1" parent="1" source="huSL4YwEYdzHKoShdB33-32" target="huSL4YwEYdzHKoShdB33-3">
          <mxGeometry relative="1" as="geometry">
            <mxPoint x="420" y="680" as="sourcePoint" />
            <mxPoint x="580" y="680" as="targetPoint" />
          </mxGeometry>
        </mxCell>
        <mxCell id="huSL4YwEYdzHKoShdB33-34" value="" style="endArrow=none;html=1;rounded=0;fontSize=12;startSize=8;endSize=8;curved=1;exitX=0.5;exitY=1;exitDx=0;exitDy=0;entryX=0.5;entryY=0;entryDx=0;entryDy=0;" edge="1" parent="1" source="huSL4YwEYdzHKoShdB33-3" target="huSL4YwEYdzHKoShdB33-31">
          <mxGeometry relative="1" as="geometry">
            <mxPoint x="420" y="680" as="sourcePoint" />
            <mxPoint x="580" y="680" as="targetPoint" />
          </mxGeometry>
        </mxCell>
        <mxCell id="huSL4YwEYdzHKoShdB33-35" value="Direccion" style="ellipse;whiteSpace=wrap;html=1;align=center;" vertex="1" parent="1">
          <mxGeometry x="990" y="430" width="100" height="40" as="geometry" />
        </mxCell>
        <mxCell id="huSL4YwEYdzHKoShdB33-36" value="" style="endArrow=none;html=1;rounded=0;fontSize=12;startSize=8;endSize=8;curved=1;exitX=0.5;exitY=1;exitDx=0;exitDy=0;entryX=0.5;entryY=0;entryDx=0;entryDy=0;" edge="1" parent="1" source="huSL4YwEYdzHKoShdB33-35" target="huSL4YwEYdzHKoShdB33-2">
          <mxGeometry relative="1" as="geometry">
            <mxPoint x="840" y="470" as="sourcePoint" />
            <mxPoint x="1000" y="470" as="targetPoint" />
          </mxGeometry>
        </mxCell>
        <mxCell id="huSL4YwEYdzHKoShdB33-37" value="" style="endArrow=none;html=1;rounded=0;fontSize=12;startSize=8;endSize=8;curved=1;exitX=0.5;exitY=0;exitDx=0;exitDy=0;entryX=0.5;entryY=1;entryDx=0;entryDy=0;" edge="1" parent="1" source="huSL4YwEYdzHKoShdB33-2" target="huSL4YwEYdzHKoShdB33-30">
          <mxGeometry relative="1" as="geometry">
            <mxPoint x="840" y="470" as="sourcePoint" />
            <mxPoint x="1000" y="470" as="targetPoint" />
          </mxGeometry>
        </mxCell>
        <mxCell id="huSL4YwEYdzHKoShdB33-38" value="Telefono" style="ellipse;whiteSpace=wrap;html=1;align=center;" vertex="1" parent="1">
          <mxGeometry x="1060" y="521" width="100" height="40" as="geometry" />
        </mxCell>
        <mxCell id="huSL4YwEYdzHKoShdB33-39" value="" style="endArrow=none;html=1;rounded=0;fontSize=12;startSize=8;endSize=8;curved=1;exitX=1;exitY=0.5;exitDx=0;exitDy=0;" edge="1" parent="1" source="huSL4YwEYdzHKoShdB33-2">
          <mxGeometry relative="1" as="geometry">
            <mxPoint x="840" y="470" as="sourcePoint" />
            <mxPoint x="1060" y="541" as="targetPoint" />
          </mxGeometry>
        </mxCell>
        <mxCell id="huSL4YwEYdzHKoShdB33-40" value="(1,N)" style="text;strokeColor=none;fillColor=none;spacingLeft=4;spacingRight=4;overflow=hidden;rotatable=0;points=[[0,0.5],[1,0.5]];portConstraint=eastwest;fontSize=12;whiteSpace=wrap;html=1;" vertex="1" parent="1">
          <mxGeometry x="400" y="520" width="40" height="30" as="geometry" />
        </mxCell>
        <mxCell id="huSL4YwEYdzHKoShdB33-41" value="(0,N)" style="text;strokeColor=none;fillColor=none;spacingLeft=4;spacingRight=4;overflow=hidden;rotatable=0;points=[[0,0.5],[1,0.5]];portConstraint=eastwest;fontSize=12;whiteSpace=wrap;html=1;" vertex="1" parent="1">
          <mxGeometry x="80" y="520" width="40" height="30" as="geometry" />
        </mxCell>
        <mxCell id="huSL4YwEYdzHKoShdB33-42" value="(1,1)" style="text;strokeColor=none;fillColor=none;spacingLeft=4;spacingRight=4;overflow=hidden;rotatable=0;points=[[0,0.5],[1,0.5]];portConstraint=eastwest;fontSize=12;whiteSpace=wrap;html=1;" vertex="1" parent="1">
          <mxGeometry x="940" y="760" width="40" height="30" as="geometry" />
        </mxCell>
        <mxCell id="huSL4YwEYdzHKoShdB33-43" value="(1,N)" style="text;strokeColor=none;fillColor=none;spacingLeft=4;spacingRight=4;overflow=hidden;rotatable=0;points=[[0,0.5],[1,0.5]];portConstraint=eastwest;fontSize=12;whiteSpace=wrap;html=1;" vertex="1" parent="1">
          <mxGeometry x="930" y="561" width="40" height="30" as="geometry" />
        </mxCell>
        <mxCell id="huSL4YwEYdzHKoShdB33-44" value="(1,1)" style="text;strokeColor=none;fillColor=none;spacingLeft=4;spacingRight=4;overflow=hidden;rotatable=0;points=[[0,0.5],[1,0.5]];portConstraint=eastwest;fontSize=12;whiteSpace=wrap;html=1;" vertex="1" parent="1">
          <mxGeometry x="840" y="510" width="40" height="30" as="geometry" />
        </mxCell>
        <mxCell id="huSL4YwEYdzHKoShdB33-45" value="(0,N)" style="text;strokeColor=none;fillColor=none;spacingLeft=4;spacingRight=4;overflow=hidden;rotatable=0;points=[[0,0.5],[1,0.5]];portConstraint=eastwest;fontSize=12;whiteSpace=wrap;html=1;" vertex="1" parent="1">
          <mxGeometry x="560" y="520" width="40" height="30" as="geometry" />
        </mxCell>
      </root>
    </mxGraphModel>
  </diagram>
  <diagram name="PÃ¡gina-3" id="XsyXwbKsA9RAtLLSvUwk">
    <mxGraphModel dx="1478" dy="2510" grid="1" gridSize="10" guides="1" tooltips="1" connect="1" arrows="1" fold="1" page="0" pageScale="1" pageWidth="827" pageHeight="1169" math="0" shadow="0">
      <root>
        <mxCell id="0" />
        <mxCell id="1" parent="0" />
        <mxCell id="q67WPXvng57AUt7DBO4S-1" value="Personaje" style="whiteSpace=wrap;html=1;align=center;" vertex="1" parent="1">
          <mxGeometry x="-120" y="-720" width="100" height="40" as="geometry" />
        </mxCell>
        <mxCell id="q67WPXvng57AUt7DBO4S-4" value="Item" style="whiteSpace=wrap;html=1;align=center;" vertex="1" parent="1">
          <mxGeometry x="380" y="-720" width="100" height="40" as="geometry" />
        </mxCell>
        <mxCell id="q67WPXvng57AUt7DBO4S-5" value="Categoria" style="whiteSpace=wrap;html=1;align=center;" vertex="1" parent="1">
          <mxGeometry x="800" y="-720" width="100" height="40" as="geometry" />
        </mxCell>
        <mxCell id="MmB5VWz1XuUG1yp3ZWZB-1" value="tiene" style="shape=rhombus;perimeter=rhombusPerimeter;whiteSpace=wrap;html=1;align=center;" vertex="1" parent="1">
          <mxGeometry x="110" y="-730" width="120" height="60" as="geometry" />
        </mxCell>
        <mxCell id="MmB5VWz1XuUG1yp3ZWZB-3" value="Durabilidad" style="ellipse;whiteSpace=wrap;html=1;align=center;" vertex="1" parent="1">
          <mxGeometry x="200" y="-770" width="100" height="40" as="geometry" />
        </mxCell>
        <mxCell id="MmB5VWz1XuUG1yp3ZWZB-4" value="Fecha" style="ellipse;whiteSpace=wrap;html=1;align=center;" vertex="1" parent="1">
          <mxGeometry x="50" y="-780" width="100" height="40" as="geometry" />
        </mxCell>
        <mxCell id="MmB5VWz1XuUG1yp3ZWZB-5" value="" style="endArrow=none;html=1;rounded=0;fontSize=12;startSize=8;endSize=8;curved=1;entryX=0.5;entryY=1;entryDx=0;entryDy=0;exitX=1;exitY=0;exitDx=0;exitDy=0;" edge="1" parent="1" source="MmB5VWz1XuUG1yp3ZWZB-1" target="MmB5VWz1XuUG1yp3ZWZB-3">
          <mxGeometry relative="1" as="geometry">
            <mxPoint x="310" y="-680" as="sourcePoint" />
            <mxPoint x="470" y="-680" as="targetPoint" />
          </mxGeometry>
        </mxCell>
        <mxCell id="MmB5VWz1XuUG1yp3ZWZB-7" value="" style="endArrow=none;html=1;rounded=0;fontSize=12;startSize=8;endSize=8;curved=1;entryX=0.31;entryY=0.136;entryDx=0;entryDy=0;entryPerimeter=0;exitX=0.7;exitY=1;exitDx=0;exitDy=0;exitPerimeter=0;" edge="1" parent="1" source="MmB5VWz1XuUG1yp3ZWZB-4" target="MmB5VWz1XuUG1yp3ZWZB-1">
          <mxGeometry relative="1" as="geometry">
            <mxPoint x="310" y="-680" as="sourcePoint" />
            <mxPoint x="470" y="-680" as="targetPoint" />
          </mxGeometry>
        </mxCell>
        <mxCell id="MmB5VWz1XuUG1yp3ZWZB-9" value="Salud" style="ellipse;whiteSpace=wrap;html=1;align=center;" vertex="1" parent="1">
          <mxGeometry x="-90" y="-800" width="100" height="40" as="geometry" />
        </mxCell>
        <mxCell id="MmB5VWz1XuUG1yp3ZWZB-12" value="" style="endArrow=none;html=1;rounded=0;fontSize=12;startSize=8;endSize=8;curved=1;entryX=0.5;entryY=1;entryDx=0;entryDy=0;exitX=0.5;exitY=0;exitDx=0;exitDy=0;" edge="1" parent="1" source="q67WPXvng57AUt7DBO4S-1" target="MmB5VWz1XuUG1yp3ZWZB-9">
          <mxGeometry relative="1" as="geometry">
            <mxPoint x="10" y="-730" as="sourcePoint" />
            <mxPoint x="60" y="-750" as="targetPoint" />
          </mxGeometry>
        </mxCell>
        <mxCell id="MmB5VWz1XuUG1yp3ZWZB-15" value="" style="endArrow=none;html=1;rounded=0;fontSize=12;startSize=8;endSize=8;curved=1;exitX=1;exitY=0.5;exitDx=0;exitDy=0;entryX=0;entryY=0.5;entryDx=0;entryDy=0;" edge="1" parent="1" target="q67WPXvng57AUt7DBO4S-4">
          <mxGeometry relative="1" as="geometry">
            <mxPoint x="230" y="-700.0000000000001" as="sourcePoint" />
            <mxPoint x="280" y="-700" as="targetPoint" />
            <Array as="points">
              <mxPoint x="320" y="-700" />
            </Array>
          </mxGeometry>
        </mxCell>
        <mxCell id="MmB5VWz1XuUG1yp3ZWZB-16" value="" style="endArrow=none;html=1;rounded=0;fontSize=12;startSize=8;endSize=8;curved=1;exitX=1;exitY=0.5;exitDx=0;exitDy=0;" edge="1" parent="1" source="q67WPXvng57AUt7DBO4S-1">
          <mxGeometry relative="1" as="geometry">
            <mxPoint x="60" y="-700" as="sourcePoint" />
            <mxPoint x="110" y="-700.0000000000001" as="targetPoint" />
          </mxGeometry>
        </mxCell>
        <mxCell id="MmB5VWz1XuUG1yp3ZWZB-17" value="tiene" style="shape=rhombus;perimeter=rhombusPerimeter;whiteSpace=wrap;html=1;align=center;" vertex="1" parent="1">
          <mxGeometry x="580" y="-730" width="120" height="60" as="geometry" />
        </mxCell>
        <mxCell id="MmB5VWz1XuUG1yp3ZWZB-18" value="" style="endArrow=none;html=1;rounded=0;fontSize=12;startSize=8;endSize=8;curved=1;exitX=1;exitY=0.5;exitDx=0;exitDy=0;" edge="1" parent="1" source="MmB5VWz1XuUG1yp3ZWZB-17">
          <mxGeometry relative="1" as="geometry">
            <mxPoint x="660" y="-700.62" as="sourcePoint" />
            <mxPoint x="800" y="-701" as="targetPoint" />
          </mxGeometry>
        </mxCell>
        <mxCell id="MmB5VWz1XuUG1yp3ZWZB-19" value="" style="endArrow=none;html=1;rounded=0;fontSize=12;startSize=8;endSize=8;curved=1;" edge="1" parent="1">
          <mxGeometry relative="1" as="geometry">
            <mxPoint x="480" y="-700.62" as="sourcePoint" />
            <mxPoint x="580" y="-700" as="targetPoint" />
          </mxGeometry>
        </mxCell>
        <mxCell id="MmB5VWz1XuUG1yp3ZWZB-20" value="Nombre" style="ellipse;whiteSpace=wrap;html=1;align=center;fontStyle=4;" vertex="1" parent="1">
          <mxGeometry x="-210" y="-800" width="100" height="40" as="geometry" />
        </mxCell>
        <mxCell id="MmB5VWz1XuUG1yp3ZWZB-21" value="" style="endArrow=none;html=1;rounded=0;fontSize=12;startSize=8;endSize=8;curved=1;entryX=0.5;entryY=0;entryDx=0;entryDy=0;exitX=0.61;exitY=1.031;exitDx=0;exitDy=0;exitPerimeter=0;" edge="1" parent="1" source="MmB5VWz1XuUG1yp3ZWZB-20" target="q67WPXvng57AUt7DBO4S-1">
          <mxGeometry relative="1" as="geometry">
            <mxPoint x="-60" y="-690" as="sourcePoint" />
            <mxPoint x="100" y="-690" as="targetPoint" />
          </mxGeometry>
        </mxCell>
        <mxCell id="MmB5VWz1XuUG1yp3ZWZB-22" value="Energia" style="ellipse;whiteSpace=wrap;html=1;align=center;" vertex="1" parent="1">
          <mxGeometry x="-120" y="-640" width="100" height="40" as="geometry" />
        </mxCell>
        <mxCell id="MmB5VWz1XuUG1yp3ZWZB-23" value="" style="endArrow=none;html=1;rounded=0;fontSize=12;startSize=8;endSize=8;curved=1;entryX=0.5;entryY=0;entryDx=0;entryDy=0;exitX=0.5;exitY=1;exitDx=0;exitDy=0;" edge="1" parent="1" source="q67WPXvng57AUt7DBO4S-1" target="MmB5VWz1XuUG1yp3ZWZB-22">
          <mxGeometry relative="1" as="geometry">
            <mxPoint x="-60" y="-690" as="sourcePoint" />
            <mxPoint x="100" y="-690" as="targetPoint" />
          </mxGeometry>
        </mxCell>
        <mxCell id="MmB5VWz1XuUG1yp3ZWZB-24" value="Fuerza" style="ellipse;whiteSpace=wrap;html=1;align=center;" vertex="1" parent="1">
          <mxGeometry y="-640" width="100" height="40" as="geometry" />
        </mxCell>
        <mxCell id="MmB5VWz1XuUG1yp3ZWZB-25" value="" style="endArrow=none;html=1;rounded=0;fontSize=12;startSize=8;endSize=8;curved=1;exitX=0.5;exitY=1;exitDx=0;exitDy=0;entryX=0.5;entryY=0;entryDx=0;entryDy=0;" edge="1" parent="1" source="q67WPXvng57AUt7DBO4S-1" target="MmB5VWz1XuUG1yp3ZWZB-24">
          <mxGeometry relative="1" as="geometry">
            <mxPoint x="-10" y="-690" as="sourcePoint" />
            <mxPoint x="150" y="-690" as="targetPoint" />
          </mxGeometry>
        </mxCell>
        <mxCell id="MmB5VWz1XuUG1yp3ZWZB-26" value="Destreza" style="ellipse;whiteSpace=wrap;html=1;align=center;" vertex="1" parent="1">
          <mxGeometry x="-250" y="-640" width="100" height="40" as="geometry" />
        </mxCell>
        <mxCell id="MmB5VWz1XuUG1yp3ZWZB-27" value="" style="endArrow=none;html=1;rounded=0;fontSize=12;startSize=8;endSize=8;curved=1;exitX=0.5;exitY=0;exitDx=0;exitDy=0;" edge="1" parent="1" source="MmB5VWz1XuUG1yp3ZWZB-26">
          <mxGeometry relative="1" as="geometry">
            <mxPoint x="-170" y="-690" as="sourcePoint" />
            <mxPoint x="-70" y="-680" as="targetPoint" />
          </mxGeometry>
        </mxCell>
        <mxCell id="MmB5VWz1XuUG1yp3ZWZB-28" value="Inteligencia" style="ellipse;whiteSpace=wrap;html=1;align=center;" vertex="1" parent="1">
          <mxGeometry x="-320" y="-720" width="100" height="40" as="geometry" />
        </mxCell>
        <mxCell id="MmB5VWz1XuUG1yp3ZWZB-29" value="" style="endArrow=none;html=1;rounded=0;fontSize=12;startSize=8;endSize=8;curved=1;" edge="1" parent="1">
          <mxGeometry relative="1" as="geometry">
            <mxPoint x="-220" y="-700.62" as="sourcePoint" />
            <mxPoint x="-120" y="-700" as="targetPoint" />
          </mxGeometry>
        </mxCell>
        <mxCell id="MmB5VWz1XuUG1yp3ZWZB-30" value="Valocidad" style="ellipse;whiteSpace=wrap;html=1;align=center;" vertex="1" parent="1">
          <mxGeometry x="-360" y="-670" width="100" height="40" as="geometry" />
        </mxCell>
        <mxCell id="MmB5VWz1XuUG1yp3ZWZB-31" value="" style="endArrow=none;html=1;rounded=0;fontSize=12;startSize=8;endSize=8;curved=1;exitX=1;exitY=0.5;exitDx=0;exitDy=0;entryX=0;entryY=0.5;entryDx=0;entryDy=0;" edge="1" parent="1" source="MmB5VWz1XuUG1yp3ZWZB-30" target="q67WPXvng57AUt7DBO4S-1">
          <mxGeometry relative="1" as="geometry">
            <mxPoint x="-170" y="-690" as="sourcePoint" />
            <mxPoint x="-10" y="-690" as="targetPoint" />
          </mxGeometry>
        </mxCell>
        <mxCell id="MmB5VWz1XuUG1yp3ZWZB-32" value="Attribute" style="ellipse;whiteSpace=wrap;html=1;align=center;" vertex="1" parent="1">
          <mxGeometry x="-320" y="-770" width="100" height="40" as="geometry" />
        </mxCell>
        <mxCell id="MmB5VWz1XuUG1yp3ZWZB-35" value="" style="endArrow=none;html=1;rounded=0;fontSize=12;startSize=8;endSize=8;curved=1;exitX=1;exitY=0.5;exitDx=0;exitDy=0;entryX=0;entryY=0.5;entryDx=0;entryDy=0;" edge="1" parent="1" source="MmB5VWz1XuUG1yp3ZWZB-32" target="q67WPXvng57AUt7DBO4S-1">
          <mxGeometry relative="1" as="geometry">
            <mxPoint x="-210" y="-750" as="sourcePoint" />
            <mxPoint x="-10" y="-690" as="targetPoint" />
          </mxGeometry>
        </mxCell>
        <mxCell id="MmB5VWz1XuUG1yp3ZWZB-36" value="Id" style="ellipse;whiteSpace=wrap;html=1;align=center;" vertex="1" parent="1">
          <mxGeometry x="310" y="-610" width="100" height="40" as="geometry" />
        </mxCell>
        <mxCell id="MmB5VWz1XuUG1yp3ZWZB-37" value="Nombre" style="ellipse;whiteSpace=wrap;html=1;align=center;" vertex="1" parent="1">
          <mxGeometry x="450" y="-610" width="100" height="40" as="geometry" />
        </mxCell>
        <mxCell id="MmB5VWz1XuUG1yp3ZWZB-38" value="Poder" style="ellipse;whiteSpace=wrap;html=1;align=center;" vertex="1" parent="1">
          <mxGeometry x="350" y="-810" width="100" height="40" as="geometry" />
        </mxCell>
        <mxCell id="MmB5VWz1XuUG1yp3ZWZB-40" value="" style="endArrow=none;html=1;rounded=0;fontSize=12;startSize=8;endSize=8;curved=1;entryX=0.5;entryY=0;entryDx=0;entryDy=0;exitX=0.5;exitY=1;exitDx=0;exitDy=0;" edge="1" parent="1" source="q67WPXvng57AUt7DBO4S-4" target="MmB5VWz1XuUG1yp3ZWZB-36">
          <mxGeometry relative="1" as="geometry">
            <mxPoint x="310" y="-690" as="sourcePoint" />
            <mxPoint x="470" y="-690" as="targetPoint" />
          </mxGeometry>
        </mxCell>
        <mxCell id="MmB5VWz1XuUG1yp3ZWZB-41" value="" style="endArrow=none;html=1;rounded=0;fontSize=12;startSize=8;endSize=8;curved=1;entryX=0.5;entryY=1;entryDx=0;entryDy=0;exitX=0.5;exitY=0;exitDx=0;exitDy=0;" edge="1" parent="1" source="q67WPXvng57AUt7DBO4S-4" target="MmB5VWz1XuUG1yp3ZWZB-38">
          <mxGeometry relative="1" as="geometry">
            <mxPoint x="310" y="-690" as="sourcePoint" />
            <mxPoint x="410" y="-760" as="targetPoint" />
          </mxGeometry>
        </mxCell>
        <mxCell id="MmB5VWz1XuUG1yp3ZWZB-42" value="" style="endArrow=none;html=1;rounded=0;fontSize=12;startSize=8;endSize=8;curved=1;entryX=0.5;entryY=0;entryDx=0;entryDy=0;exitX=0.5;exitY=1;exitDx=0;exitDy=0;" edge="1" parent="1" source="q67WPXvng57AUt7DBO4S-4" target="MmB5VWz1XuUG1yp3ZWZB-37">
          <mxGeometry relative="1" as="geometry">
            <mxPoint x="310" y="-690" as="sourcePoint" />
            <mxPoint x="470" y="-690" as="targetPoint" />
          </mxGeometry>
        </mxCell>
        <mxCell id="MmB5VWz1XuUG1yp3ZWZB-43" value="Nombre" style="ellipse;whiteSpace=wrap;html=1;align=center;" vertex="1" parent="1">
          <mxGeometry x="800" y="-620" width="100" height="40" as="geometry" />
        </mxCell>
        <mxCell id="MmB5VWz1XuUG1yp3ZWZB-44" value="" style="endArrow=none;html=1;rounded=0;fontSize=12;startSize=8;endSize=8;curved=1;entryX=0.5;entryY=0;entryDx=0;entryDy=0;exitX=0.5;exitY=1;exitDx=0;exitDy=0;" edge="1" parent="1" source="q67WPXvng57AUt7DBO4S-5" target="MmB5VWz1XuUG1yp3ZWZB-43">
          <mxGeometry relative="1" as="geometry">
            <mxPoint x="760" y="-680" as="sourcePoint" />
            <mxPoint x="890" y="-690" as="targetPoint" />
          </mxGeometry>
        </mxCell>
        <mxCell id="MmB5VWz1XuUG1yp3ZWZB-45" value="(0,N)" style="text;strokeColor=none;fillColor=none;spacingLeft=4;spacingRight=4;overflow=hidden;rotatable=0;points=[[0,0.5],[1,0.5]];portConstraint=eastwest;fontSize=12;whiteSpace=wrap;html=1;" vertex="1" parent="1">
          <mxGeometry x="-20" y="-720" width="40" height="30" as="geometry" />
        </mxCell>
        <mxCell id="MmB5VWz1XuUG1yp3ZWZB-46" value="(0,N)" style="text;strokeColor=none;fillColor=none;spacingLeft=4;spacingRight=4;overflow=hidden;rotatable=0;points=[[0,0.5],[1,0.5]];portConstraint=eastwest;fontSize=12;whiteSpace=wrap;html=1;" vertex="1" parent="1">
          <mxGeometry x="340" y="-720" width="40" height="20" as="geometry" />
        </mxCell>
        <mxCell id="MmB5VWz1XuUG1yp3ZWZB-47" value="(1,1)" style="text;strokeColor=none;fillColor=none;spacingLeft=4;spacingRight=4;overflow=hidden;rotatable=0;points=[[0,0.5],[1,0.5]];portConstraint=eastwest;fontSize=12;whiteSpace=wrap;html=1;" vertex="1" parent="1">
          <mxGeometry x="760" y="-725" width="40" height="30" as="geometry" />
        </mxCell>
        <mxCell id="MmB5VWz1XuUG1yp3ZWZB-48" value="(1,N)" style="text;strokeColor=none;fillColor=none;spacingLeft=4;spacingRight=4;overflow=hidden;rotatable=0;points=[[0,0.5],[1,0.5]];portConstraint=eastwest;fontSize=12;whiteSpace=wrap;html=1;" vertex="1" parent="1">
          <mxGeometry x="480" y="-720" width="40" height="30" as="geometry" />
        </mxCell>
      </root>
    </mxGraphModel>
  </diagram>
  <diagram id="g2tFjglWzHK5h-8cRUuv" name="PÃ¡gina-4">
    <mxGraphModel dx="900" dy="587" grid="1" gridSize="10" guides="1" tooltips="1" connect="1" arrows="1" fold="1" page="0" pageScale="1" pageWidth="827" pageHeight="1169" math="0" shadow="0">
      <root>
        <mxCell id="0" />
        <mxCell id="1" parent="0" />
        <mxCell id="lxyVcE5CM8fVg0nQh29s-1" value="Cliente" style="whiteSpace=wrap;html=1;align=center;" vertex="1" parent="1">
          <mxGeometry x="-120" y="120" width="100" height="40" as="geometry" />
        </mxCell>
        <mxCell id="lxyVcE5CM8fVg0nQh29s-4" value="Reserva" style="shape=ext;margin=3;double=1;whiteSpace=wrap;html=1;align=center;" vertex="1" parent="1">
          <mxGeometry x="260" y="120" width="100" height="40" as="geometry" />
        </mxCell>
        <mxCell id="lxyVcE5CM8fVg0nQh29s-5" value="" style="endArrow=none;html=1;rounded=0;fontSize=12;startSize=8;endSize=8;curved=1;exitX=1;exitY=0.5;exitDx=0;exitDy=0;entryX=0;entryY=0.5;entryDx=0;entryDy=0;" edge="1" parent="1" source="lxyVcE5CM8fVg0nQh29s-8" target="lxyVcE5CM8fVg0nQh29s-4">
          <mxGeometry relative="1" as="geometry">
            <mxPoint x="-20" y="200" as="sourcePoint" />
            <mxPoint x="140" y="200" as="targetPoint" />
          </mxGeometry>
        </mxCell>
        <mxCell id="lxyVcE5CM8fVg0nQh29s-6" value="(1,N)" style="text;strokeColor=none;fillColor=none;spacingLeft=4;spacingRight=4;overflow=hidden;rotatable=0;points=[[0,0.5],[1,0.5]];portConstraint=eastwest;fontSize=12;whiteSpace=wrap;html=1;" vertex="1" parent="1">
          <mxGeometry x="220" y="120" width="40" height="30" as="geometry" />
        </mxCell>
        <mxCell id="lxyVcE5CM8fVg0nQh29s-7" value="(1,1)" style="text;strokeColor=none;fillColor=none;spacingLeft=4;spacingRight=4;overflow=hidden;rotatable=0;points=[[0,0.5],[1,0.5]];portConstraint=eastwest;fontSize=12;whiteSpace=wrap;html=1;" vertex="1" parent="1">
          <mxGeometry x="-20" y="120" width="40" height="30" as="geometry" />
        </mxCell>
        <mxCell id="lxyVcE5CM8fVg0nQh29s-9" value="" style="endArrow=none;html=1;rounded=0;fontSize=12;startSize=8;endSize=8;curved=1;exitX=1;exitY=0.5;exitDx=0;exitDy=0;entryX=0;entryY=0.5;entryDx=0;entryDy=0;" edge="1" parent="1" source="lxyVcE5CM8fVg0nQh29s-1" target="lxyVcE5CM8fVg0nQh29s-8">
          <mxGeometry relative="1" as="geometry">
            <mxPoint x="-20" y="140" as="sourcePoint" />
            <mxPoint x="260" y="140" as="targetPoint" />
          </mxGeometry>
        </mxCell>
        <mxCell id="lxyVcE5CM8fVg0nQh29s-8" value="hace" style="shape=rhombus;double=1;perimeter=rhombusPerimeter;whiteSpace=wrap;html=1;align=center;" vertex="1" parent="1">
          <mxGeometry x="60" y="110" width="120" height="60" as="geometry" />
        </mxCell>
        <mxCell id="lxyVcE5CM8fVg0nQh29s-12" value="Monto" style="ellipse;whiteSpace=wrap;html=1;align=center;" vertex="1" parent="1">
          <mxGeometry x="340" y="240" width="100" height="40" as="geometry" />
        </mxCell>
        <mxCell id="lxyVcE5CM8fVg0nQh29s-16" value="" style="endArrow=none;html=1;rounded=0;fontSize=12;startSize=8;endSize=8;curved=1;exitX=0.5;exitY=0;exitDx=0;exitDy=0;entryX=0.5;entryY=1;entryDx=0;entryDy=0;" edge="1" parent="1" target="lxyVcE5CM8fVg0nQh29s-17">
          <mxGeometry relative="1" as="geometry">
            <mxPoint x="310" y="119.99999999999989" as="sourcePoint" />
            <mxPoint x="310" y="30" as="targetPoint" />
          </mxGeometry>
        </mxCell>
        <mxCell id="lxyVcE5CM8fVg0nQh29s-17" value="Hora" style="ellipse;whiteSpace=wrap;html=1;align=center;" vertex="1" parent="1">
          <mxGeometry x="260" y="30" width="100" height="40" as="geometry" />
        </mxCell>
        <mxCell id="lxyVcE5CM8fVg0nQh29s-18" value="" style="endArrow=none;html=1;rounded=0;fontSize=12;startSize=8;endSize=8;curved=1;exitX=0.5;exitY=1;exitDx=0;exitDy=0;" edge="1" parent="1" source="lxyVcE5CM8fVg0nQh29s-4" target="lxyVcE5CM8fVg0nQh29s-12">
          <mxGeometry relative="1" as="geometry">
            <mxPoint x="80" y="200" as="sourcePoint" />
            <mxPoint x="240" y="200" as="targetPoint" />
          </mxGeometry>
        </mxCell>
        <mxCell id="lxyVcE5CM8fVg0nQh29s-19" value="tiene" style="shape=rhombus;perimeter=rhombusPerimeter;whiteSpace=wrap;html=1;align=center;" vertex="1" parent="1">
          <mxGeometry x="510" y="110" width="120" height="60" as="geometry" />
        </mxCell>
        <mxCell id="V8_555kUtlcbgLvcOEGK-1" value="" style="endArrow=none;html=1;rounded=0;fontSize=12;startSize=8;endSize=8;curved=1;exitX=0.5;exitY=1;exitDx=0;exitDy=0;" edge="1" parent="1" source="lxyVcE5CM8fVg0nQh29s-4">
          <mxGeometry relative="1" as="geometry">
            <mxPoint x="250" y="180" as="sourcePoint" />
            <mxPoint x="250" y="250" as="targetPoint" />
          </mxGeometry>
        </mxCell>
        <mxCell id="V8_555kUtlcbgLvcOEGK-2" value="Fecha" style="ellipse;whiteSpace=wrap;html=1;align=center;" vertex="1" parent="1">
          <mxGeometry x="200" y="240" width="100" height="40" as="geometry" />
        </mxCell>
        <mxCell id="V8_555kUtlcbgLvcOEGK-7" value="" style="endArrow=none;html=1;rounded=0;fontSize=12;startSize=8;endSize=8;curved=1;exitX=1;exitY=0.5;exitDx=0;exitDy=0;entryX=0;entryY=0.5;entryDx=0;entryDy=0;" edge="1" parent="1" source="lxyVcE5CM8fVg0nQh29s-4" target="lxyVcE5CM8fVg0nQh29s-19">
          <mxGeometry relative="1" as="geometry">
            <mxPoint x="350" y="190" as="sourcePoint" />
            <mxPoint x="510" y="190" as="targetPoint" />
          </mxGeometry>
        </mxCell>
        <mxCell id="V8_555kUtlcbgLvcOEGK-8" value="" style="endArrow=none;html=1;rounded=0;fontSize=12;startSize=8;endSize=8;curved=1;exitX=1;exitY=0.5;exitDx=0;exitDy=0;" edge="1" parent="1" source="lxyVcE5CM8fVg0nQh29s-19" target="V8_555kUtlcbgLvcOEGK-9">
          <mxGeometry relative="1" as="geometry">
            <mxPoint x="590" y="190" as="sourcePoint" />
            <mxPoint x="760" y="140" as="targetPoint" />
          </mxGeometry>
        </mxCell>
        <mxCell id="V8_555kUtlcbgLvcOEGK-9" value="Servicio" style="whiteSpace=wrap;html=1;align=center;" vertex="1" parent="1">
          <mxGeometry x="750" y="119.99999999999989" width="100" height="40" as="geometry" />
        </mxCell>
        <mxCell id="V8_555kUtlcbgLvcOEGK-10" value="" style="endArrow=none;html=1;rounded=0;fontSize=12;startSize=8;endSize=8;curved=1;entryX=0.5;entryY=1;entryDx=0;entryDy=0;" edge="1" parent="1" target="V8_555kUtlcbgLvcOEGK-9">
          <mxGeometry relative="1" as="geometry">
            <mxPoint x="800" y="210" as="sourcePoint" />
            <mxPoint x="750" y="190" as="targetPoint" />
          </mxGeometry>
        </mxCell>
        <mxCell id="V8_555kUtlcbgLvcOEGK-11" value="" style="endArrow=none;html=1;rounded=0;fontSize=12;startSize=8;endSize=8;curved=1;" edge="1" parent="1" target="V8_555kUtlcbgLvcOEGK-12">
          <mxGeometry relative="1" as="geometry">
            <mxPoint x="800" y="160" as="sourcePoint" />
            <mxPoint x="910" y="220" as="targetPoint" />
          </mxGeometry>
        </mxCell>
        <mxCell id="V8_555kUtlcbgLvcOEGK-12" value="Costo" style="ellipse;whiteSpace=wrap;html=1;align=center;" vertex="1" parent="1">
          <mxGeometry x="860" y="209.9999999999999" width="100" height="40" as="geometry" />
        </mxCell>
        <mxCell id="V8_555kUtlcbgLvcOEGK-14" value="Nombre" style="ellipse;whiteSpace=wrap;html=1;align=center;fontStyle=4;" vertex="1" parent="1">
          <mxGeometry x="750" y="210" width="100" height="40" as="geometry" />
        </mxCell>
        <mxCell id="V8_555kUtlcbgLvcOEGK-15" value="(1,N)" style="text;strokeColor=none;fillColor=none;spacingLeft=4;spacingRight=4;overflow=hidden;rotatable=0;points=[[0,0.5],[1,0.5]];portConstraint=eastwest;fontSize=12;whiteSpace=wrap;html=1;" vertex="1" parent="1">
          <mxGeometry x="360" y="120" width="40" height="30" as="geometry" />
        </mxCell>
        <mxCell id="V8_555kUtlcbgLvcOEGK-16" value="(0,N)" style="text;strokeColor=none;fillColor=none;spacingLeft=4;spacingRight=4;overflow=hidden;rotatable=0;points=[[0,0.5],[1,0.5]];portConstraint=eastwest;fontSize=12;whiteSpace=wrap;html=1;" vertex="1" parent="1">
          <mxGeometry x="710" y="120" width="40" height="30" as="geometry" />
        </mxCell>
        <mxCell id="p5Re2QnXFVp6OxbRFIOE-1" value="Nombre" style="ellipse;whiteSpace=wrap;html=1;align=center;" vertex="1" parent="1">
          <mxGeometry x="-150" y="190" width="100" height="40" as="geometry" />
        </mxCell>
        <mxCell id="p5Re2QnXFVp6OxbRFIOE-2" value="Apellido" style="ellipse;whiteSpace=wrap;html=1;align=center;" vertex="1" parent="1">
          <mxGeometry x="-40" y="190" width="100" height="40" as="geometry" />
        </mxCell>
        <mxCell id="p5Re2QnXFVp6OxbRFIOE-4" value="Dni" style="ellipse;whiteSpace=wrap;html=1;align=center;fontStyle=4;" vertex="1" parent="1">
          <mxGeometry x="-120" y="40" width="100" height="40" as="geometry" />
        </mxCell>
        <mxCell id="p5Re2QnXFVp6OxbRFIOE-5" value="Direccion" style="ellipse;whiteSpace=wrap;html=1;align=center;" vertex="1" parent="1">
          <mxGeometry y="30" width="100" height="40" as="geometry" />
        </mxCell>
        <mxCell id="p5Re2QnXFVp6OxbRFIOE-6" value="Telefono" style="ellipse;whiteSpace=wrap;html=1;align=center;" vertex="1" parent="1">
          <mxGeometry x="-270" y="115" width="100" height="40" as="geometry" />
        </mxCell>
        <mxCell id="p5Re2QnXFVp6OxbRFIOE-7" value="" style="endArrow=none;html=1;rounded=0;fontSize=12;startSize=8;endSize=8;curved=1;exitX=1;exitY=0.5;exitDx=0;exitDy=0;entryX=0;entryY=0.5;entryDx=0;entryDy=0;" edge="1" parent="1" source="p5Re2QnXFVp6OxbRFIOE-6" target="lxyVcE5CM8fVg0nQh29s-1">
          <mxGeometry relative="1" as="geometry">
            <mxPoint x="-120" y="190" as="sourcePoint" />
            <mxPoint x="40" y="190" as="targetPoint" />
          </mxGeometry>
        </mxCell>
        <mxCell id="p5Re2QnXFVp6OxbRFIOE-8" value="" style="endArrow=none;html=1;rounded=0;fontSize=12;startSize=8;endSize=8;curved=1;exitX=0.5;exitY=1;exitDx=0;exitDy=0;entryX=0.5;entryY=0;entryDx=0;entryDy=0;" edge="1" parent="1" source="p5Re2QnXFVp6OxbRFIOE-4" target="lxyVcE5CM8fVg0nQh29s-1">
          <mxGeometry relative="1" as="geometry">
            <mxPoint x="-120" y="190" as="sourcePoint" />
            <mxPoint x="40" y="190" as="targetPoint" />
          </mxGeometry>
        </mxCell>
        <mxCell id="p5Re2QnXFVp6OxbRFIOE-10" value="" style="endArrow=none;html=1;rounded=0;fontSize=12;startSize=8;endSize=8;curved=1;entryX=0.5;entryY=1;entryDx=0;entryDy=0;exitX=0.5;exitY=0;exitDx=0;exitDy=0;" edge="1" parent="1" source="p5Re2QnXFVp6OxbRFIOE-1" target="lxyVcE5CM8fVg0nQh29s-1">
          <mxGeometry relative="1" as="geometry">
            <mxPoint x="-120" y="190" as="sourcePoint" />
            <mxPoint x="40" y="190" as="targetPoint" />
          </mxGeometry>
        </mxCell>
        <mxCell id="p5Re2QnXFVp6OxbRFIOE-11" value="" style="endArrow=none;html=1;rounded=0;fontSize=12;startSize=8;endSize=8;curved=1;exitX=0.5;exitY=1;exitDx=0;exitDy=0;entryX=0.5;entryY=0;entryDx=0;entryDy=0;" edge="1" parent="1" source="lxyVcE5CM8fVg0nQh29s-1" target="p5Re2QnXFVp6OxbRFIOE-2">
          <mxGeometry relative="1" as="geometry">
            <mxPoint x="-120" y="190" as="sourcePoint" />
            <mxPoint x="40" y="190" as="targetPoint" />
          </mxGeometry>
        </mxCell>
        <mxCell id="p5Re2QnXFVp6OxbRFIOE-12" value="" style="endArrow=none;html=1;rounded=0;fontSize=12;startSize=8;endSize=8;curved=1;exitX=0.5;exitY=1;exitDx=0;exitDy=0;entryX=0.5;entryY=0;entryDx=0;entryDy=0;" edge="1" parent="1" source="p5Re2QnXFVp6OxbRFIOE-5" target="lxyVcE5CM8fVg0nQh29s-1">
          <mxGeometry relative="1" as="geometry">
            <mxPoint x="-120" y="190" as="sourcePoint" />
            <mxPoint x="40" y="190" as="targetPoint" />
          </mxGeometry>
        </mxCell>
      </root>
    </mxGraphModel>
  </diagram>
  <diagram name="PÃ¡gina-5" id="qjU1TKQwfBh-NfjVqK5Z">
    <mxGraphModel dx="898" dy="506" grid="1" gridSize="10" guides="1" tooltips="1" connect="1" arrows="1" fold="1" page="0" pageScale="1" pageWidth="827" pageHeight="1169" math="0" shadow="0">
      <root>
        <mxCell id="0" />
        <mxCell id="1" parent="0" />
        <mxCell id="TsJiX5nIL-wtJAFeWXcv-1" value="Clientes" style="whiteSpace=wrap;html=1;align=center;" parent="1" vertex="1">
          <mxGeometry x="40" y="160" width="100" height="40" as="geometry" />
        </mxCell>
        <mxCell id="TsJiX5nIL-wtJAFeWXcv-2" value="compra" style="shape=rhombus;perimeter=rhombusPerimeter;whiteSpace=wrap;html=1;align=center;" parent="1" vertex="1">
          <mxGeometry x="220" y="150" width="120" height="60" as="geometry" />
        </mxCell>
        <mxCell id="TsJiX5nIL-wtJAFeWXcv-3" value="Producto" style="whiteSpace=wrap;html=1;align=center;" parent="1" vertex="1">
          <mxGeometry x="440" y="160" width="100" height="40" as="geometry" />
        </mxCell>
        <mxCell id="TsJiX5nIL-wtJAFeWXcv-5" value="Funciona" style="shape=rhombus;perimeter=rhombusPerimeter;whiteSpace=wrap;html=1;align=center;" parent="1" vertex="1">
          <mxGeometry x="630" y="150" width="120" height="60" as="geometry" />
        </mxCell>
        <mxCell id="TsJiX5nIL-wtJAFeWXcv-6" value="Plataforma" style="whiteSpace=wrap;html=1;align=center;" parent="1" vertex="1">
          <mxGeometry x="880" y="160" width="100" height="40" as="geometry" />
        </mxCell>
        <mxCell id="TsJiX5nIL-wtJAFeWXcv-7" value="Version" style="shape=ext;margin=3;double=1;whiteSpace=wrap;html=1;align=center;" parent="1" vertex="1">
          <mxGeometry x="440" y="380" width="100" height="40" as="geometry" />
        </mxCell>
        <mxCell id="TsJiX5nIL-wtJAFeWXcv-8" value="" style="endArrow=none;html=1;rounded=0;fontSize=12;startSize=8;endSize=8;curved=1;exitX=1;exitY=0.5;exitDx=0;exitDy=0;entryX=0;entryY=0.5;entryDx=0;entryDy=0;" parent="1" source="TsJiX5nIL-wtJAFeWXcv-1" target="TsJiX5nIL-wtJAFeWXcv-2" edge="1">
          <mxGeometry relative="1" as="geometry">
            <mxPoint x="120" y="200" as="sourcePoint" />
            <mxPoint x="280" y="200" as="targetPoint" />
          </mxGeometry>
        </mxCell>
        <mxCell id="TsJiX5nIL-wtJAFeWXcv-11" value="" style="endArrow=none;html=1;rounded=0;fontSize=12;startSize=8;endSize=8;curved=1;entryX=0;entryY=0.5;entryDx=0;entryDy=0;exitX=1;exitY=0.5;exitDx=0;exitDy=0;" parent="1" source="TsJiX5nIL-wtJAFeWXcv-3" target="TsJiX5nIL-wtJAFeWXcv-5" edge="1">
          <mxGeometry relative="1" as="geometry">
            <mxPoint x="460" y="200" as="sourcePoint" />
            <mxPoint x="620" y="180" as="targetPoint" />
          </mxGeometry>
        </mxCell>
        <mxCell id="TsJiX5nIL-wtJAFeWXcv-12" value="" style="endArrow=none;html=1;rounded=0;fontSize=12;startSize=8;endSize=8;curved=1;exitX=1;exitY=0.5;exitDx=0;exitDy=0;entryX=0;entryY=0.5;entryDx=0;entryDy=0;" parent="1" source="TsJiX5nIL-wtJAFeWXcv-5" target="TsJiX5nIL-wtJAFeWXcv-6" edge="1">
          <mxGeometry relative="1" as="geometry">
            <mxPoint x="660" y="200" as="sourcePoint" />
            <mxPoint x="820" y="200" as="targetPoint" />
          </mxGeometry>
        </mxCell>
        <mxCell id="TsJiX5nIL-wtJAFeWXcv-13" value="(0,N)" style="text;strokeColor=none;fillColor=none;spacingLeft=4;spacingRight=4;overflow=hidden;rotatable=0;points=[[0,0.5],[1,0.5]];portConstraint=eastwest;fontSize=12;whiteSpace=wrap;html=1;" parent="1" vertex="1">
          <mxGeometry x="140" y="160" width="40" height="30" as="geometry" />
        </mxCell>
        <mxCell id="TsJiX5nIL-wtJAFeWXcv-14" value="(1,N)" style="text;strokeColor=none;fillColor=none;spacingLeft=4;spacingRight=4;overflow=hidden;rotatable=0;points=[[0,0.5],[1,0.5]];portConstraint=eastwest;fontSize=12;whiteSpace=wrap;html=1;" parent="1" vertex="1">
          <mxGeometry x="400" y="160" width="40" height="30" as="geometry" />
        </mxCell>
        <mxCell id="TsJiX5nIL-wtJAFeWXcv-15" value="(0,N)" style="text;strokeColor=none;fillColor=none;spacingLeft=4;spacingRight=4;overflow=hidden;rotatable=0;points=[[0,0.5],[1,0.5]];portConstraint=eastwest;fontSize=12;whiteSpace=wrap;html=1;" parent="1" vertex="1">
          <mxGeometry x="540" y="160" width="40" height="30" as="geometry" />
        </mxCell>
        <mxCell id="TsJiX5nIL-wtJAFeWXcv-16" value="(1,N)" style="text;strokeColor=none;fillColor=none;spacingLeft=4;spacingRight=4;overflow=hidden;rotatable=0;points=[[0,0.5],[1,0.5]];portConstraint=eastwest;fontSize=12;whiteSpace=wrap;html=1;" parent="1" vertex="1">
          <mxGeometry x="840" y="160" width="40" height="30" as="geometry" />
        </mxCell>
        <mxCell id="TsJiX5nIL-wtJAFeWXcv-19" value="RazÃ³n social" style="ellipse;whiteSpace=wrap;html=1;align=center;" parent="1" vertex="1">
          <mxGeometry x="-20" y="70" width="100" height="40" as="geometry" />
        </mxCell>
        <mxCell id="TsJiX5nIL-wtJAFeWXcv-20" value="Id" style="ellipse;whiteSpace=wrap;html=1;align=center;fontStyle=4;" parent="1" vertex="1">
          <mxGeometry x="100" y="70" width="100" height="40" as="geometry" />
        </mxCell>
        <mxCell id="TsJiX5nIL-wtJAFeWXcv-21" value="Mail" style="ellipse;whiteSpace=wrap;html=1;align=center;" parent="1" vertex="1">
          <mxGeometry x="-30" y="230" width="100" height="40" as="geometry" />
        </mxCell>
        <mxCell id="TsJiX5nIL-wtJAFeWXcv-22" value="Domicilio" style="ellipse;whiteSpace=wrap;html=1;align=center;" parent="1" vertex="1">
          <mxGeometry x="90" y="230" width="100" height="40" as="geometry" />
        </mxCell>
        <mxCell id="TsJiX5nIL-wtJAFeWXcv-23" value="TelÃ©fono" style="ellipse;whiteSpace=wrap;html=1;align=center;" parent="1" vertex="1">
          <mxGeometry x="-120" y="160" width="100" height="40" as="geometry" />
        </mxCell>
        <mxCell id="TsJiX5nIL-wtJAFeWXcv-24" value="Nombre" style="ellipse;whiteSpace=wrap;html=1;align=center;" parent="1" vertex="1">
          <mxGeometry x="450" y="70" width="100" height="40" as="geometry" />
        </mxCell>
        <mxCell id="TsJiX5nIL-wtJAFeWXcv-25" value="Id" style="ellipse;whiteSpace=wrap;html=1;align=center;fontStyle=4;" parent="1" vertex="1">
          <mxGeometry x="340" y="70" width="100" height="40" as="geometry" />
        </mxCell>
        <mxCell id="TsJiX5nIL-wtJAFeWXcv-26" value="Descripcion" style="ellipse;whiteSpace=wrap;html=1;align=center;" parent="1" vertex="1">
          <mxGeometry x="570" y="70" width="100" height="40" as="geometry" />
        </mxCell>
        <mxCell id="TsJiX5nIL-wtJAFeWXcv-27" value="Lenguaje" style="ellipse;whiteSpace=wrap;html=1;align=center;" parent="1" vertex="1">
          <mxGeometry x="300" y="250" width="100" height="40" as="geometry" />
        </mxCell>
        <mxCell id="TsJiX5nIL-wtJAFeWXcv-28" value="Id" style="ellipse;whiteSpace=wrap;html=1;align=center;" parent="1" vertex="1">
          <mxGeometry x="830" y="90" width="100" height="40" as="geometry" />
        </mxCell>
        <mxCell id="TsJiX5nIL-wtJAFeWXcv-29" value="Nombre" style="ellipse;whiteSpace=wrap;html=1;align=center;" parent="1" vertex="1">
          <mxGeometry x="960" y="90" width="100" height="40" as="geometry" />
        </mxCell>
        <mxCell id="TsJiX5nIL-wtJAFeWXcv-30" value="Errores" style="ellipse;whiteSpace=wrap;html=1;align=center;" parent="1" vertex="1">
          <mxGeometry x="610" y="320" width="100" height="40" as="geometry" />
        </mxCell>
        <mxCell id="TsJiX5nIL-wtJAFeWXcv-31" value="Cambios" style="ellipse;whiteSpace=wrap;html=1;align=center;" parent="1" vertex="1">
          <mxGeometry x="580" y="390" width="100" height="40" as="geometry" />
        </mxCell>
        <mxCell id="TsJiX5nIL-wtJAFeWXcv-32" value="Nombre" style="ellipse;whiteSpace=wrap;html=1;align=center;" parent="1" vertex="1">
          <mxGeometry x="440" y="480" width="100" height="40" as="geometry" />
        </mxCell>
        <mxCell id="TsJiX5nIL-wtJAFeWXcv-34" value="" style="endArrow=none;html=1;rounded=0;fontSize=12;startSize=8;endSize=8;curved=1;exitX=0.5;exitY=0;exitDx=0;exitDy=0;entryX=0.5;entryY=1;entryDx=0;entryDy=0;" parent="1" source="TsJiX5nIL-wtJAFeWXcv-27" target="TsJiX5nIL-wtJAFeWXcv-3" edge="1">
          <mxGeometry relative="1" as="geometry">
            <mxPoint x="390" y="250" as="sourcePoint" />
            <mxPoint x="550" y="250" as="targetPoint" />
          </mxGeometry>
        </mxCell>
        <mxCell id="TsJiX5nIL-wtJAFeWXcv-35" value="" style="endArrow=none;html=1;rounded=0;fontSize=12;startSize=8;endSize=8;curved=1;exitX=0.5;exitY=1;exitDx=0;exitDy=0;entryX=0.5;entryY=0;entryDx=0;entryDy=0;" parent="1" source="TsJiX5nIL-wtJAFeWXcv-25" target="TsJiX5nIL-wtJAFeWXcv-3" edge="1">
          <mxGeometry relative="1" as="geometry">
            <mxPoint x="390" y="250" as="sourcePoint" />
            <mxPoint x="550" y="250" as="targetPoint" />
          </mxGeometry>
        </mxCell>
        <mxCell id="TsJiX5nIL-wtJAFeWXcv-36" value="" style="endArrow=none;html=1;rounded=0;fontSize=12;startSize=8;endSize=8;curved=1;exitX=0.5;exitY=1;exitDx=0;exitDy=0;" parent="1" source="TsJiX5nIL-wtJAFeWXcv-24" target="TsJiX5nIL-wtJAFeWXcv-3" edge="1">
          <mxGeometry relative="1" as="geometry">
            <mxPoint x="390" y="250" as="sourcePoint" />
            <mxPoint x="550" y="250" as="targetPoint" />
          </mxGeometry>
        </mxCell>
        <mxCell id="TsJiX5nIL-wtJAFeWXcv-37" value="" style="endArrow=none;html=1;rounded=0;fontSize=12;startSize=8;endSize=8;curved=1;exitX=0.57;exitY=0;exitDx=0;exitDy=0;exitPerimeter=0;entryX=0.5;entryY=1;entryDx=0;entryDy=0;" parent="1" source="TsJiX5nIL-wtJAFeWXcv-3" target="TsJiX5nIL-wtJAFeWXcv-26" edge="1">
          <mxGeometry relative="1" as="geometry">
            <mxPoint x="390" y="250" as="sourcePoint" />
            <mxPoint x="550" y="250" as="targetPoint" />
          </mxGeometry>
        </mxCell>
        <mxCell id="TsJiX5nIL-wtJAFeWXcv-39" value="(1,N)" style="text;strokeColor=none;fillColor=none;spacingLeft=4;spacingRight=4;overflow=hidden;rotatable=0;points=[[0,0.5],[1,0.5]];portConstraint=eastwest;fontSize=12;whiteSpace=wrap;html=1;" parent="1" vertex="1">
          <mxGeometry x="490" y="350" width="40" height="30" as="geometry" />
        </mxCell>
        <mxCell id="TsJiX5nIL-wtJAFeWXcv-40" value="(1,1)" style="text;strokeColor=none;fillColor=none;spacingLeft=4;spacingRight=4;overflow=hidden;rotatable=0;points=[[0,0.5],[1,0.5]];portConstraint=eastwest;fontSize=12;whiteSpace=wrap;html=1;" parent="1" vertex="1">
          <mxGeometry x="490" y="200" width="40" height="30" as="geometry" />
        </mxCell>
        <mxCell id="TsJiX5nIL-wtJAFeWXcv-43" value="" style="endArrow=none;html=1;rounded=0;fontSize=12;startSize=8;endSize=8;curved=1;" parent="1" edge="1">
          <mxGeometry relative="1" as="geometry">
            <mxPoint x="280" y="399.5" as="sourcePoint" />
            <mxPoint x="440" y="399.5" as="targetPoint" />
          </mxGeometry>
        </mxCell>
        <mxCell id="TsJiX5nIL-wtJAFeWXcv-44" value="" style="endArrow=none;html=1;rounded=0;fontSize=12;startSize=8;endSize=8;curved=1;exitX=0.5;exitY=1;exitDx=0;exitDy=0;" parent="1" source="TsJiX5nIL-wtJAFeWXcv-2" edge="1">
          <mxGeometry relative="1" as="geometry">
            <mxPoint x="240" y="250" as="sourcePoint" />
            <mxPoint x="280" y="400" as="targetPoint" />
          </mxGeometry>
        </mxCell>
        <mxCell id="TsJiX5nIL-wtJAFeWXcv-45" value="" style="endArrow=none;html=1;rounded=0;fontSize=12;startSize=8;endSize=8;curved=1;exitX=0;exitY=1;exitDx=0;exitDy=0;exitPerimeter=0;entryX=-0.012;entryY=0.016;entryDx=0;entryDy=0;entryPerimeter=0;" parent="1" source="TsJiX5nIL-wtJAFeWXcv-39" target="TsJiX5nIL-wtJAFeWXcv-40" edge="1">
          <mxGeometry relative="1" as="geometry">
            <mxPoint x="380" y="250" as="sourcePoint" />
            <mxPoint x="490" y="202" as="targetPoint" />
          </mxGeometry>
        </mxCell>
        <mxCell id="TsJiX5nIL-wtJAFeWXcv-47" value="tiene" style="shape=rhombus;double=1;perimeter=rhombusPerimeter;whiteSpace=wrap;html=1;align=center;" parent="1" vertex="1">
          <mxGeometry x="430" y="260" width="120" height="60" as="geometry" />
        </mxCell>
        <mxCell id="TsJiX5nIL-wtJAFeWXcv-48" value="" style="endArrow=none;html=1;rounded=0;fontSize=12;startSize=8;endSize=8;curved=1;entryX=1;entryY=0.5;entryDx=0;entryDy=0;exitX=0;exitY=0.5;exitDx=0;exitDy=0;" parent="1" source="TsJiX5nIL-wtJAFeWXcv-31" target="TsJiX5nIL-wtJAFeWXcv-7" edge="1">
          <mxGeometry relative="1" as="geometry">
            <mxPoint x="430" y="430" as="sourcePoint" />
            <mxPoint x="590" y="430" as="targetPoint" />
          </mxGeometry>
        </mxCell>
        <mxCell id="TsJiX5nIL-wtJAFeWXcv-49" value="" style="endArrow=none;html=1;rounded=0;fontSize=12;startSize=8;endSize=8;curved=1;entryX=0.5;entryY=1;entryDx=0;entryDy=0;exitX=0.5;exitY=0;exitDx=0;exitDy=0;" parent="1" source="TsJiX5nIL-wtJAFeWXcv-32" target="TsJiX5nIL-wtJAFeWXcv-7" edge="1">
          <mxGeometry relative="1" as="geometry">
            <mxPoint x="480" y="460" as="sourcePoint" />
            <mxPoint x="500" y="430" as="targetPoint" />
          </mxGeometry>
        </mxCell>
        <mxCell id="TsJiX5nIL-wtJAFeWXcv-50" value="" style="endArrow=none;html=1;rounded=0;fontSize=12;startSize=8;endSize=8;curved=1;exitX=0;exitY=0.5;exitDx=0;exitDy=0;entryX=1;entryY=0.5;entryDx=0;entryDy=0;" parent="1" source="TsJiX5nIL-wtJAFeWXcv-30" target="TsJiX5nIL-wtJAFeWXcv-7" edge="1">
          <mxGeometry relative="1" as="geometry">
            <mxPoint x="430" y="290" as="sourcePoint" />
            <mxPoint x="560" y="370" as="targetPoint" />
          </mxGeometry>
        </mxCell>
        <mxCell id="TsJiX5nIL-wtJAFeWXcv-51" value="" style="endArrow=none;html=1;rounded=0;fontSize=12;startSize=8;endSize=8;curved=1;entryX=0.5;entryY=1;entryDx=0;entryDy=0;exitX=0.5;exitY=0;exitDx=0;exitDy=0;" parent="1" source="TsJiX5nIL-wtJAFeWXcv-1" target="TsJiX5nIL-wtJAFeWXcv-20" edge="1">
          <mxGeometry relative="1" as="geometry">
            <mxPoint x="30" y="160" as="sourcePoint" />
            <mxPoint x="190" y="160" as="targetPoint" />
          </mxGeometry>
        </mxCell>
        <mxCell id="TsJiX5nIL-wtJAFeWXcv-52" value="" style="endArrow=none;html=1;rounded=0;fontSize=12;startSize=8;endSize=8;curved=1;entryX=0.5;entryY=1;entryDx=0;entryDy=0;exitX=0.5;exitY=0;exitDx=0;exitDy=0;" parent="1" source="TsJiX5nIL-wtJAFeWXcv-1" target="TsJiX5nIL-wtJAFeWXcv-19" edge="1">
          <mxGeometry relative="1" as="geometry">
            <mxPoint x="30" y="160" as="sourcePoint" />
            <mxPoint x="130" y="140" as="targetPoint" />
          </mxGeometry>
        </mxCell>
        <mxCell id="TsJiX5nIL-wtJAFeWXcv-53" value="" style="endArrow=none;html=1;rounded=0;fontSize=12;startSize=8;endSize=8;curved=1;exitX=1;exitY=0.5;exitDx=0;exitDy=0;entryX=0;entryY=0.5;entryDx=0;entryDy=0;" parent="1" source="TsJiX5nIL-wtJAFeWXcv-23" target="TsJiX5nIL-wtJAFeWXcv-1" edge="1">
          <mxGeometry relative="1" as="geometry">
            <mxPoint y="170" as="sourcePoint" />
            <mxPoint x="190" y="160" as="targetPoint" />
          </mxGeometry>
        </mxCell>
        <mxCell id="TsJiX5nIL-wtJAFeWXcv-54" value="" style="endArrow=none;html=1;rounded=0;fontSize=12;startSize=8;endSize=8;curved=1;entryX=0.5;entryY=0;entryDx=0;entryDy=0;" parent="1" target="TsJiX5nIL-wtJAFeWXcv-22" edge="1">
          <mxGeometry relative="1" as="geometry">
            <mxPoint x="90" y="200" as="sourcePoint" />
            <mxPoint x="190" y="160" as="targetPoint" />
          </mxGeometry>
        </mxCell>
        <mxCell id="TsJiX5nIL-wtJAFeWXcv-55" value="" style="endArrow=none;html=1;rounded=0;fontSize=12;startSize=8;endSize=8;curved=1;entryX=0.5;entryY=0;entryDx=0;entryDy=0;exitX=0.5;exitY=1;exitDx=0;exitDy=0;" parent="1" source="TsJiX5nIL-wtJAFeWXcv-1" target="TsJiX5nIL-wtJAFeWXcv-21" edge="1">
          <mxGeometry relative="1" as="geometry">
            <mxPoint x="30" y="160" as="sourcePoint" />
            <mxPoint x="190" y="160" as="targetPoint" />
          </mxGeometry>
        </mxCell>
        <mxCell id="TsJiX5nIL-wtJAFeWXcv-57" value="(1,1)" style="text;strokeColor=none;fillColor=none;spacingLeft=4;spacingRight=4;overflow=hidden;rotatable=0;points=[[0,0.5],[1,0.5]];portConstraint=eastwest;fontSize=12;whiteSpace=wrap;html=1;" parent="1" vertex="1">
          <mxGeometry x="400" y="380" width="40" height="30" as="geometry" />
        </mxCell>
        <mxCell id="TsJiX5nIL-wtJAFeWXcv-59" value="" style="endArrow=none;html=1;rounded=0;fontSize=12;startSize=8;endSize=8;curved=1;entryX=0.5;entryY=1;entryDx=0;entryDy=0;exitX=0.5;exitY=0;exitDx=0;exitDy=0;" parent="1" source="TsJiX5nIL-wtJAFeWXcv-6" target="TsJiX5nIL-wtJAFeWXcv-29" edge="1">
          <mxGeometry relative="1" as="geometry">
            <mxPoint x="830" y="160" as="sourcePoint" />
            <mxPoint x="1000" y="150" as="targetPoint" />
          </mxGeometry>
        </mxCell>
        <mxCell id="TsJiX5nIL-wtJAFeWXcv-60" value="" style="endArrow=none;html=1;rounded=0;fontSize=12;startSize=8;endSize=8;curved=1;entryX=0.5;entryY=1;entryDx=0;entryDy=0;" parent="1" target="TsJiX5nIL-wtJAFeWXcv-28" edge="1">
          <mxGeometry relative="1" as="geometry">
            <mxPoint x="930" y="160" as="sourcePoint" />
            <mxPoint x="890" y="140" as="targetPoint" />
          </mxGeometry>
        </mxCell>
      </root>
    </mxGraphModel>
  </diagram>
  <diagram name="PÃ¡gina-6" id="pPxDWWRCMMNhqwukJ1Mq">
    <mxGraphModel dx="2072" dy="1265" grid="1" gridSize="10" guides="1" tooltips="1" connect="1" arrows="1" fold="1" page="1" pageScale="1" pageWidth="827" pageHeight="1169" math="0" shadow="0">
      <root>
        <mxCell id="0" />
        <mxCell id="1" parent="0" />
        <mxCell id="QbzI97k07jA6UEmUPSCB-1" value="Participante" style="whiteSpace=wrap;html=1;align=center;" vertex="1" parent="1">
          <mxGeometry x="-40" y="200" width="100" height="40" as="geometry" />
        </mxCell>
        <mxCell id="QbzI97k07jA6UEmUPSCB-2" value="Nombre" style="ellipse;whiteSpace=wrap;html=1;align=center;" vertex="1" parent="1">
          <mxGeometry x="-100" y="110" width="100" height="40" as="geometry" />
        </mxCell>
        <mxCell id="QbzI97k07jA6UEmUPSCB-4" value="FecNac" style="ellipse;whiteSpace=wrap;html=1;align=center;" vertex="1" parent="1">
          <mxGeometry x="-180" y="200" width="100" height="40" as="geometry" />
        </mxCell>
        <mxCell id="QbzI97k07jA6UEmUPSCB-5" value="Sexo" style="ellipse;whiteSpace=wrap;html=1;align=center;" vertex="1" parent="1">
          <mxGeometry x="-50" y="280" width="100" height="40" as="geometry" />
        </mxCell>
        <mxCell id="QbzI97k07jA6UEmUPSCB-7" value="Nacionalidad" style="whiteSpace=wrap;html=1;align=center;" vertex="1" parent="1">
          <mxGeometry x="320" y="200" width="100" height="40" as="geometry" />
        </mxCell>
        <mxCell id="QbzI97k07jA6UEmUPSCB-8" value="NaciÃ³n" style="ellipse;whiteSpace=wrap;html=1;align=center;fontStyle=4;" vertex="1" parent="1">
          <mxGeometry x="320" y="120" width="100" height="40" as="geometry" />
        </mxCell>
        <mxCell id="QbzI97k07jA6UEmUPSCB-9" value="Jurado" style="whiteSpace=wrap;html=1;align=center;" vertex="1" parent="1">
          <mxGeometry x="680" y="200" width="100" height="40" as="geometry" />
        </mxCell>
        <mxCell id="QbzI97k07jA6UEmUPSCB-10" value="Nombre" style="ellipse;whiteSpace=wrap;html=1;align=center;fontStyle=4;" vertex="1" parent="1">
          <mxGeometry x="640" y="110" width="100" height="40" as="geometry" />
        </mxCell>
        <mxCell id="QbzI97k07jA6UEmUPSCB-11" value="TelÃ©fono" style="ellipse;whiteSpace=wrap;html=1;align=center;" vertex="1" parent="1">
          <mxGeometry x="780" y="120" width="100" height="40" as="geometry" />
        </mxCell>
        <mxCell id="QbzI97k07jA6UEmUPSCB-12" value="Correo" style="ellipse;whiteSpace=wrap;html=1;align=center;" vertex="1" parent="1">
          <mxGeometry x="840" y="200" width="100" height="40" as="geometry" />
        </mxCell>
        <mxCell id="QbzI97k07jA6UEmUPSCB-14" value="InterpretaciÃ³n" style="shape=ext;margin=3;double=1;whiteSpace=wrap;html=1;align=center;" vertex="1" parent="1">
          <mxGeometry x="314" y="440" width="100" height="40" as="geometry" />
        </mxCell>
        <mxCell id="QbzI97k07jA6UEmUPSCB-15" value="Fecha" style="ellipse;whiteSpace=wrap;html=1;align=center;" vertex="1" parent="1">
          <mxGeometry x="200" y="520" width="100" height="40" as="geometry" />
        </mxCell>
        <mxCell id="QbzI97k07jA6UEmUPSCB-16" value="DuraciÃ³n" style="ellipse;whiteSpace=wrap;html=1;align=center;" vertex="1" parent="1">
          <mxGeometry x="320" y="520" width="100" height="40" as="geometry" />
        </mxCell>
        <mxCell id="QbzI97k07jA6UEmUPSCB-18" value="hace" style="shape=rhombus;double=1;perimeter=rhombusPerimeter;whiteSpace=wrap;html=1;align=center;" vertex="1" parent="1">
          <mxGeometry x="150" y="330" width="120" height="60" as="geometry" />
        </mxCell>
        <mxCell id="QbzI97k07jA6UEmUPSCB-20" value="" style="endArrow=none;html=1;rounded=0;exitX=1;exitY=0.5;exitDx=0;exitDy=0;entryX=0.5;entryY=0;entryDx=0;entryDy=0;" edge="1" parent="1" source="QbzI97k07jA6UEmUPSCB-1" target="QbzI97k07jA6UEmUPSCB-18">
          <mxGeometry relative="1" as="geometry">
            <mxPoint x="230" y="390" as="sourcePoint" />
            <mxPoint x="390" y="390" as="targetPoint" />
          </mxGeometry>
        </mxCell>
        <mxCell id="QbzI97k07jA6UEmUPSCB-22" value="" style="endArrow=none;html=1;rounded=0;entryX=0.5;entryY=0;entryDx=0;entryDy=0;exitX=0.5;exitY=1;exitDx=0;exitDy=0;" edge="1" parent="1" source="QbzI97k07jA6UEmUPSCB-18" target="QbzI97k07jA6UEmUPSCB-14">
          <mxGeometry relative="1" as="geometry">
            <mxPoint x="217" y="400" as="sourcePoint" />
            <mxPoint x="390" y="390" as="targetPoint" />
          </mxGeometry>
        </mxCell>
        <mxCell id="QbzI97k07jA6UEmUPSCB-24" value="Puntua" style="shape=rhombus;perimeter=rhombusPerimeter;whiteSpace=wrap;html=1;align=center;" vertex="1" parent="1">
          <mxGeometry x="560" y="330" width="120" height="60" as="geometry" />
        </mxCell>
        <mxCell id="QbzI97k07jA6UEmUPSCB-25" value="" style="endArrow=none;html=1;rounded=0;exitX=1;exitY=0.5;exitDx=0;exitDy=0;entryX=0.5;entryY=0;entryDx=0;entryDy=0;" edge="1" parent="1" target="QbzI97k07jA6UEmUPSCB-24">
          <mxGeometry relative="1" as="geometry">
            <mxPoint x="730" y="240" as="sourcePoint" />
            <mxPoint x="980" y="410" as="targetPoint" />
          </mxGeometry>
        </mxCell>
        <mxCell id="QbzI97k07jA6UEmUPSCB-26" value="" style="endArrow=none;html=1;rounded=0;entryX=0.5;entryY=0;entryDx=0;entryDy=0;exitX=0.5;exitY=1;exitDx=0;exitDy=0;" edge="1" parent="1" source="QbzI97k07jA6UEmUPSCB-24">
          <mxGeometry relative="1" as="geometry">
            <mxPoint x="579.0769230769231" y="371.53846153846155" as="sourcePoint" />
            <mxPoint x="360" y="440" as="targetPoint" />
          </mxGeometry>
        </mxCell>
        <mxCell id="QbzI97k07jA6UEmUPSCB-27" value="tiene" style="shape=rhombus;perimeter=rhombusPerimeter;whiteSpace=wrap;html=1;align=center;" vertex="1" parent="1">
          <mxGeometry x="140" y="190" width="120" height="60" as="geometry" />
        </mxCell>
        <mxCell id="QbzI97k07jA6UEmUPSCB-31" value="" style="endArrow=none;html=1;rounded=0;entryX=0;entryY=0.5;entryDx=0;entryDy=0;exitX=1;exitY=0.5;exitDx=0;exitDy=0;" edge="1" parent="1" source="QbzI97k07jA6UEmUPSCB-27" target="QbzI97k07jA6UEmUPSCB-7">
          <mxGeometry relative="1" as="geometry">
            <mxPoint x="50" y="310" as="sourcePoint" />
            <mxPoint x="210" y="310" as="targetPoint" />
          </mxGeometry>
        </mxCell>
        <mxCell id="QbzI97k07jA6UEmUPSCB-32" value="" style="endArrow=none;html=1;rounded=0;entryX=0;entryY=0.5;entryDx=0;entryDy=0;exitX=1;exitY=0.5;exitDx=0;exitDy=0;" edge="1" parent="1" source="QbzI97k07jA6UEmUPSCB-1" target="QbzI97k07jA6UEmUPSCB-27">
          <mxGeometry relative="1" as="geometry">
            <mxPoint x="50" y="310" as="sourcePoint" />
            <mxPoint x="130" y="220" as="targetPoint" />
          </mxGeometry>
        </mxCell>
        <mxCell id="QbzI97k07jA6UEmUPSCB-33" value="tiene" style="shape=rhombus;perimeter=rhombusPerimeter;whiteSpace=wrap;html=1;align=center;" vertex="1" parent="1">
          <mxGeometry x="500" y="190" width="120" height="60" as="geometry" />
        </mxCell>
        <mxCell id="QbzI97k07jA6UEmUPSCB-34" value="" style="endArrow=none;html=1;rounded=0;entryX=0;entryY=0.5;entryDx=0;entryDy=0;exitX=1;exitY=0.5;exitDx=0;exitDy=0;" edge="1" parent="1" source="QbzI97k07jA6UEmUPSCB-33">
          <mxGeometry relative="1" as="geometry">
            <mxPoint x="410" y="310" as="sourcePoint" />
            <mxPoint x="680" y="220" as="targetPoint" />
          </mxGeometry>
        </mxCell>
        <mxCell id="QbzI97k07jA6UEmUPSCB-35" value="" style="endArrow=none;html=1;rounded=0;entryX=0;entryY=0.5;entryDx=0;entryDy=0;exitX=1;exitY=0.5;exitDx=0;exitDy=0;" edge="1" parent="1" target="QbzI97k07jA6UEmUPSCB-33">
          <mxGeometry relative="1" as="geometry">
            <mxPoint x="420" y="220" as="sourcePoint" />
            <mxPoint x="490" y="220" as="targetPoint" />
          </mxGeometry>
        </mxCell>
        <mxCell id="QbzI97k07jA6UEmUPSCB-37" value="Puntaje" style="ellipse;whiteSpace=wrap;html=1;align=center;" vertex="1" parent="1">
          <mxGeometry x="720" y="340" width="100" height="40" as="geometry" />
        </mxCell>
        <mxCell id="QbzI97k07jA6UEmUPSCB-39" value="" style="endArrow=none;html=1;rounded=0;exitX=1;exitY=0.5;exitDx=0;exitDy=0;entryX=0;entryY=0.5;entryDx=0;entryDy=0;" edge="1" parent="1" source="QbzI97k07jA6UEmUPSCB-24" target="QbzI97k07jA6UEmUPSCB-37">
          <mxGeometry relative="1" as="geometry">
            <mxPoint x="500" y="310" as="sourcePoint" />
            <mxPoint x="660" y="310" as="targetPoint" />
          </mxGeometry>
        </mxCell>
        <mxCell id="QbzI97k07jA6UEmUPSCB-40" value="Tipo" style="whiteSpace=wrap;html=1;align=center;" vertex="1" parent="1">
          <mxGeometry x="670" y="440" width="100" height="40" as="geometry" />
        </mxCell>
        <mxCell id="QbzI97k07jA6UEmUPSCB-41" value="pertenece" style="shape=rhombus;perimeter=rhombusPerimeter;whiteSpace=wrap;html=1;align=center;" vertex="1" parent="1">
          <mxGeometry x="494" y="430" width="120" height="60" as="geometry" />
        </mxCell>
        <mxCell id="QbzI97k07jA6UEmUPSCB-42" value="" style="endArrow=none;html=1;rounded=0;entryX=0;entryY=0.5;entryDx=0;entryDy=0;exitX=1;exitY=0.5;exitDx=0;exitDy=0;" edge="1" parent="1" source="QbzI97k07jA6UEmUPSCB-41">
          <mxGeometry relative="1" as="geometry">
            <mxPoint x="404" y="550" as="sourcePoint" />
            <mxPoint x="674" y="460" as="targetPoint" />
          </mxGeometry>
        </mxCell>
        <mxCell id="QbzI97k07jA6UEmUPSCB-43" value="" style="endArrow=none;html=1;rounded=0;entryX=0;entryY=0.5;entryDx=0;entryDy=0;exitX=1;exitY=0.5;exitDx=0;exitDy=0;" edge="1" parent="1" target="QbzI97k07jA6UEmUPSCB-41">
          <mxGeometry relative="1" as="geometry">
            <mxPoint x="414" y="460" as="sourcePoint" />
            <mxPoint x="484" y="460" as="targetPoint" />
          </mxGeometry>
        </mxCell>
        <mxCell id="QbzI97k07jA6UEmUPSCB-46" value="Nombre" style="ellipse;whiteSpace=wrap;html=1;align=center;fontStyle=4;" vertex="1" parent="1">
          <mxGeometry x="670" y="510" width="100" height="40" as="geometry" />
        </mxCell>
        <mxCell id="QbzI97k07jA6UEmUPSCB-47" value="(1,1)" style="text;strokeColor=none;fillColor=none;spacingLeft=4;spacingRight=4;overflow=hidden;rotatable=0;points=[[0,0.5],[1,0.5]];portConstraint=eastwest;fontSize=12;whiteSpace=wrap;html=1;" vertex="1" parent="1">
          <mxGeometry x="90" y="260" width="40" height="30" as="geometry" />
        </mxCell>
        <mxCell id="QbzI97k07jA6UEmUPSCB-49" value="(1,N)" style="text;strokeColor=none;fillColor=none;spacingLeft=4;spacingRight=4;overflow=hidden;rotatable=0;points=[[0,0.5],[1,0.5]];portConstraint=eastwest;fontSize=12;whiteSpace=wrap;html=1;" vertex="1" parent="1">
          <mxGeometry x="300" y="400" width="40" height="30" as="geometry" />
        </mxCell>
        <mxCell id="QbzI97k07jA6UEmUPSCB-50" value="(1,N)" style="text;strokeColor=none;fillColor=none;spacingLeft=4;spacingRight=4;overflow=hidden;rotatable=0;points=[[0,0.5],[1,0.5]];portConstraint=eastwest;fontSize=12;whiteSpace=wrap;html=1;" vertex="1" parent="1">
          <mxGeometry x="400" y="400" width="40" height="30" as="geometry" />
        </mxCell>
        <mxCell id="QbzI97k07jA6UEmUPSCB-51" value="" style="endArrow=none;html=1;rounded=0;exitX=0.5;exitY=1;exitDx=0;exitDy=0;" edge="1" parent="1" source="QbzI97k07jA6UEmUPSCB-40" target="QbzI97k07jA6UEmUPSCB-46">
          <mxGeometry relative="1" as="geometry">
            <mxPoint x="690" y="340" as="sourcePoint" />
            <mxPoint x="850" y="340" as="targetPoint" />
          </mxGeometry>
        </mxCell>
        <mxCell id="QbzI97k07jA6UEmUPSCB-52" value="(1,N)" style="text;strokeColor=none;fillColor=none;spacingLeft=4;spacingRight=4;overflow=hidden;rotatable=0;points=[[0,0.5],[1,0.5]];portConstraint=eastwest;fontSize=12;whiteSpace=wrap;html=1;" vertex="1" parent="1">
          <mxGeometry x="640" y="220" width="40" height="30" as="geometry" />
        </mxCell>
        <mxCell id="QbzI97k07jA6UEmUPSCB-53" value="(1,1)" style="text;strokeColor=none;fillColor=none;spacingLeft=4;spacingRight=4;overflow=hidden;rotatable=0;points=[[0,0.5],[1,0.5]];portConstraint=eastwest;fontSize=12;whiteSpace=wrap;html=1;" vertex="1" parent="1">
          <mxGeometry x="420" y="220" width="40" height="30" as="geometry" />
        </mxCell>
        <mxCell id="QbzI97k07jA6UEmUPSCB-54" value="(1,1)" style="text;strokeColor=none;fillColor=none;spacingLeft=4;spacingRight=4;overflow=hidden;rotatable=0;points=[[0,0.5],[1,0.5]];portConstraint=eastwest;fontSize=12;whiteSpace=wrap;html=1;" vertex="1" parent="1">
          <mxGeometry x="280" y="200" width="40" height="30" as="geometry" />
        </mxCell>
        <mxCell id="QbzI97k07jA6UEmUPSCB-55" value="(1,N)" style="text;strokeColor=none;fillColor=none;spacingLeft=4;spacingRight=4;overflow=hidden;rotatable=0;points=[[0,0.5],[1,0.5]];portConstraint=eastwest;fontSize=12;whiteSpace=wrap;html=1;" vertex="1" parent="1">
          <mxGeometry x="60" y="200" width="40" height="30" as="geometry" />
        </mxCell>
        <mxCell id="QbzI97k07jA6UEmUPSCB-56" value="" style="endArrow=none;html=1;rounded=0;exitX=0.5;exitY=1;exitDx=0;exitDy=0;entryX=0.5;entryY=0;entryDx=0;entryDy=0;" edge="1" parent="1" source="QbzI97k07jA6UEmUPSCB-10" target="QbzI97k07jA6UEmUPSCB-9">
          <mxGeometry relative="1" as="geometry">
            <mxPoint x="590" y="250" as="sourcePoint" />
            <mxPoint x="750" y="250" as="targetPoint" />
          </mxGeometry>
        </mxCell>
        <mxCell id="QbzI97k07jA6UEmUPSCB-57" value="" style="endArrow=none;html=1;rounded=0;exitX=0.5;exitY=1;exitDx=0;exitDy=0;" edge="1" parent="1" source="QbzI97k07jA6UEmUPSCB-11">
          <mxGeometry relative="1" as="geometry">
            <mxPoint x="590" y="250" as="sourcePoint" />
            <mxPoint x="730" y="200" as="targetPoint" />
          </mxGeometry>
        </mxCell>
        <mxCell id="QbzI97k07jA6UEmUPSCB-58" value="" style="endArrow=none;html=1;rounded=0;exitX=1;exitY=0.5;exitDx=0;exitDy=0;entryX=0;entryY=0.5;entryDx=0;entryDy=0;" edge="1" parent="1" source="QbzI97k07jA6UEmUPSCB-9" target="QbzI97k07jA6UEmUPSCB-12">
          <mxGeometry relative="1" as="geometry">
            <mxPoint x="800" y="230" as="sourcePoint" />
            <mxPoint x="850" y="250" as="targetPoint" />
          </mxGeometry>
        </mxCell>
        <mxCell id="QbzI97k07jA6UEmUPSCB-60" value="(3;3)" style="text;strokeColor=none;fillColor=none;spacingLeft=4;spacingRight=4;overflow=hidden;rotatable=0;points=[[0,0.5],[1,0.5]];portConstraint=eastwest;fontSize=12;whiteSpace=wrap;html=1;" vertex="1" parent="1">
          <mxGeometry x="730" y="240" width="40" height="30" as="geometry" />
        </mxCell>
        <mxCell id="QbzI97k07jA6UEmUPSCB-61" value="" style="endArrow=none;html=1;rounded=0;exitX=1;exitY=0.5;exitDx=0;exitDy=0;entryX=0;entryY=0.5;entryDx=0;entryDy=0;" edge="1" parent="1" source="QbzI97k07jA6UEmUPSCB-4" target="QbzI97k07jA6UEmUPSCB-1">
          <mxGeometry relative="1" as="geometry">
            <mxPoint x="-140" y="160" as="sourcePoint" />
            <mxPoint x="20" y="160" as="targetPoint" />
          </mxGeometry>
        </mxCell>
        <mxCell id="QbzI97k07jA6UEmUPSCB-62" value="" style="endArrow=none;html=1;rounded=0;exitX=0.452;exitY=0.973;exitDx=0;exitDy=0;exitPerimeter=0;entryX=0.5;entryY=0;entryDx=0;entryDy=0;" edge="1" parent="1" target="QbzI97k07jA6UEmUPSCB-1">
          <mxGeometry relative="1" as="geometry">
            <mxPoint x="-49.99999999999996" y="149.99999999999997" as="sourcePoint" />
            <mxPoint x="24.8" y="161.08" as="targetPoint" />
          </mxGeometry>
        </mxCell>
        <mxCell id="QbzI97k07jA6UEmUPSCB-63" value="" style="endArrow=none;html=1;rounded=0;exitX=0.5;exitY=0;exitDx=0;exitDy=0;entryX=0.5;entryY=1;entryDx=0;entryDy=0;" edge="1" parent="1" source="QbzI97k07jA6UEmUPSCB-1">
          <mxGeometry relative="1" as="geometry">
            <mxPoint x="-140" y="160" as="sourcePoint" />
            <mxPoint x="80" y="150" as="targetPoint" />
          </mxGeometry>
        </mxCell>
        <mxCell id="QbzI97k07jA6UEmUPSCB-64" value="Id" style="ellipse;whiteSpace=wrap;html=1;align=center;fontStyle=4;" vertex="1" parent="1">
          <mxGeometry x="30" y="110" width="100" height="40" as="geometry" />
        </mxCell>
        <mxCell id="QbzI97k07jA6UEmUPSCB-65" value="" style="endArrow=none;html=1;rounded=0;entryX=0.5;entryY=1;entryDx=0;entryDy=0;exitX=0.5;exitY=0;exitDx=0;exitDy=0;" edge="1" parent="1" source="QbzI97k07jA6UEmUPSCB-5" target="QbzI97k07jA6UEmUPSCB-1">
          <mxGeometry relative="1" as="geometry">
            <mxPoint x="-140" y="250" as="sourcePoint" />
            <mxPoint x="20" y="250" as="targetPoint" />
          </mxGeometry>
        </mxCell>
        <mxCell id="QbzI97k07jA6UEmUPSCB-66" value="" style="endArrow=none;html=1;rounded=0;exitX=0.5;exitY=1;exitDx=0;exitDy=0;entryX=0.5;entryY=0;entryDx=0;entryDy=0;" edge="1" parent="1" source="QbzI97k07jA6UEmUPSCB-8" target="QbzI97k07jA6UEmUPSCB-7">
          <mxGeometry relative="1" as="geometry">
            <mxPoint x="320" y="250" as="sourcePoint" />
            <mxPoint x="480" y="250" as="targetPoint" />
          </mxGeometry>
        </mxCell>
        <mxCell id="QbzI97k07jA6UEmUPSCB-67" value="" style="endArrow=none;html=1;rounded=0;entryX=0.5;entryY=0;entryDx=0;entryDy=0;exitX=0.56;exitY=1;exitDx=0;exitDy=0;exitPerimeter=0;" edge="1" parent="1" source="QbzI97k07jA6UEmUPSCB-14">
          <mxGeometry relative="1" as="geometry">
            <mxPoint x="370" y="460" as="sourcePoint" />
            <mxPoint x="489.9999999999998" y="519.9999999999999" as="targetPoint" />
          </mxGeometry>
        </mxCell>
        <mxCell id="QbzI97k07jA6UEmUPSCB-68" value="PuntajeF" style="ellipse;whiteSpace=wrap;html=1;align=center;dashed=1;" vertex="1" parent="1">
          <mxGeometry x="440" y="520" width="100" height="40" as="geometry" />
        </mxCell>
        <mxCell id="QbzI97k07jA6UEmUPSCB-69" value="" style="endArrow=none;html=1;rounded=0;entryX=0.5;entryY=1;entryDx=0;entryDy=0;exitX=0.5;exitY=0;exitDx=0;exitDy=0;" edge="1" parent="1" source="QbzI97k07jA6UEmUPSCB-16" target="QbzI97k07jA6UEmUPSCB-14">
          <mxGeometry relative="1" as="geometry">
            <mxPoint x="290" y="490" as="sourcePoint" />
            <mxPoint x="450" y="490" as="targetPoint" />
          </mxGeometry>
        </mxCell>
        <mxCell id="QbzI97k07jA6UEmUPSCB-70" value="" style="endArrow=none;html=1;rounded=0;entryX=0.5;entryY=1;entryDx=0;entryDy=0;exitX=0.5;exitY=0;exitDx=0;exitDy=0;" edge="1" parent="1" source="QbzI97k07jA6UEmUPSCB-15" target="QbzI97k07jA6UEmUPSCB-14">
          <mxGeometry relative="1" as="geometry">
            <mxPoint x="290" y="490" as="sourcePoint" />
            <mxPoint x="450" y="490" as="targetPoint" />
          </mxGeometry>
        </mxCell>
      </root>
    </mxGraphModel>
  </diagram>
  <diagram name="PÃ¡gina-7" id="nbN80pWBJgyhSnXDjsT_">
    <mxGraphModel dx="1600" dy="907" grid="1" gridSize="10" guides="1" tooltips="1" connect="1" arrows="1" fold="1" page="1" pageScale="1" pageWidth="827" pageHeight="1169" math="0" shadow="0">
      <root>
        <mxCell id="0" />
        <mxCell id="1" parent="0" />
        <mxCell id="-JBZ22GMvitRDByKfE_u-2" value="Cliente" style="whiteSpace=wrap;html=1;align=center;" parent="1" vertex="1">
          <mxGeometry x="120" y="560" width="100" height="40" as="geometry" />
        </mxCell>
        <mxCell id="-JBZ22GMvitRDByKfE_u-4" value="Reclamo" style="shape=ext;margin=3;double=1;whiteSpace=wrap;html=1;align=center;" parent="1" vertex="1">
          <mxGeometry x="870" y="560" width="100" height="40" as="geometry" />
        </mxCell>
        <mxCell id="-JBZ22GMvitRDByKfE_u-5" value="Empleado" style="whiteSpace=wrap;html=1;align=center;" parent="1" vertex="1">
          <mxGeometry x="460" y="870" width="100" height="40" as="geometry" />
        </mxCell>
        <mxCell id="-JBZ22GMvitRDByKfE_u-7" value="Registro" style="shape=ext;margin=3;double=1;whiteSpace=wrap;html=1;align=center;whiteSpace=wrap;html=1;align=center;" parent="1" vertex="1">
          <mxGeometry x="870" y="870" width="100" height="40" as="geometry" />
        </mxCell>
        <mxCell id="jNhj85Pi2kOCemjCcWYa-1" value="Llamada" style="shape=ext;margin=3;double=1;whiteSpace=wrap;html=1;align=center;" vertex="1" parent="1">
          <mxGeometry x="460" y="560" width="100" height="40" as="geometry" />
        </mxCell>
        <mxCell id="jNhj85Pi2kOCemjCcWYa-2" value="Nombre" style="ellipse;whiteSpace=wrap;html=1;align=center;" vertex="1" parent="1">
          <mxGeometry x="110" y="640" width="100" height="40" as="geometry" />
        </mxCell>
        <mxCell id="jNhj85Pi2kOCemjCcWYa-3" value="Codigo" style="ellipse;whiteSpace=wrap;html=1;align=center;fontStyle=4;" vertex="1" parent="1">
          <mxGeometry x="60" y="480" width="100" height="40" as="geometry" />
        </mxCell>
        <mxCell id="jNhj85Pi2kOCemjCcWYa-4" value="Direccion" style="ellipse;whiteSpace=wrap;html=1;align=center;" vertex="1" parent="1">
          <mxGeometry x="-10" y="560" width="100" height="40" as="geometry" />
        </mxCell>
        <mxCell id="jNhj85Pi2kOCemjCcWYa-5" value="Mail" style="ellipse;whiteSpace=wrap;html=1;align=center;" vertex="1" parent="1">
          <mxGeometry x="190" y="480" width="100" height="40" as="geometry" />
        </mxCell>
        <mxCell id="jNhj85Pi2kOCemjCcWYa-6" value="" style="endArrow=none;html=1;rounded=0;fontSize=12;startSize=8;endSize=8;curved=1;exitX=1;exitY=0.5;exitDx=0;exitDy=0;entryX=0;entryY=0.5;entryDx=0;entryDy=0;" edge="1" parent="1" source="jNhj85Pi2kOCemjCcWYa-14" target="jNhj85Pi2kOCemjCcWYa-1">
          <mxGeometry relative="1" as="geometry">
            <mxPoint x="290" y="590" as="sourcePoint" />
            <mxPoint x="450" y="590" as="targetPoint" />
          </mxGeometry>
        </mxCell>
        <mxCell id="jNhj85Pi2kOCemjCcWYa-10" value="" style="endArrow=none;html=1;rounded=0;fontSize=12;startSize=8;endSize=8;curved=1;exitX=1;exitY=0.5;exitDx=0;exitDy=0;entryX=0;entryY=0.5;entryDx=0;entryDy=0;" edge="1" parent="1" source="jNhj85Pi2kOCemjCcWYa-7" target="-JBZ22GMvitRDByKfE_u-4">
          <mxGeometry relative="1" as="geometry">
            <mxPoint x="670" y="590" as="sourcePoint" />
            <mxPoint x="730" y="630" as="targetPoint" />
          </mxGeometry>
        </mxCell>
        <mxCell id="jNhj85Pi2kOCemjCcWYa-11" value="" style="endArrow=none;html=1;rounded=0;fontSize=12;startSize=8;endSize=8;curved=1;exitX=1;exitY=0.5;exitDx=0;exitDy=0;entryX=0;entryY=0.5;entryDx=0;entryDy=0;" edge="1" parent="1" source="jNhj85Pi2kOCemjCcWYa-1" target="jNhj85Pi2kOCemjCcWYa-7">
          <mxGeometry relative="1" as="geometry">
            <mxPoint x="560" y="580" as="sourcePoint" />
            <mxPoint x="870" y="580" as="targetPoint" />
          </mxGeometry>
        </mxCell>
        <mxCell id="jNhj85Pi2kOCemjCcWYa-7" value="realiza" style="shape=rhombus;double=1;perimeter=rhombusPerimeter;whiteSpace=wrap;html=1;align=center;" vertex="1" parent="1">
          <mxGeometry x="660" y="550" width="120" height="60" as="geometry" />
        </mxCell>
        <mxCell id="jNhj85Pi2kOCemjCcWYa-15" value="" style="endArrow=none;html=1;rounded=0;fontSize=12;startSize=8;endSize=8;curved=1;exitX=1;exitY=0.5;exitDx=0;exitDy=0;entryX=0;entryY=0.5;entryDx=0;entryDy=0;" edge="1" parent="1" source="-JBZ22GMvitRDByKfE_u-2" target="jNhj85Pi2kOCemjCcWYa-14">
          <mxGeometry relative="1" as="geometry">
            <mxPoint x="220" y="580" as="sourcePoint" />
            <mxPoint x="460" y="580" as="targetPoint" />
          </mxGeometry>
        </mxCell>
        <mxCell id="jNhj85Pi2kOCemjCcWYa-14" value="hace" style="shape=rhombus;double=1;perimeter=rhombusPerimeter;whiteSpace=wrap;html=1;align=center;" vertex="1" parent="1">
          <mxGeometry x="280" y="550" width="120" height="60" as="geometry" />
        </mxCell>
        <mxCell id="jNhj85Pi2kOCemjCcWYa-17" value="" style="endArrow=none;html=1;rounded=0;fontSize=12;startSize=8;endSize=8;curved=1;exitX=0.5;exitY=1;exitDx=0;exitDy=0;entryX=0.5;entryY=0;entryDx=0;entryDy=0;" edge="1" parent="1" source="jNhj85Pi2kOCemjCcWYa-3" target="-JBZ22GMvitRDByKfE_u-2">
          <mxGeometry relative="1" as="geometry">
            <mxPoint x="-60" y="590" as="sourcePoint" />
            <mxPoint x="100" y="590" as="targetPoint" />
          </mxGeometry>
        </mxCell>
        <mxCell id="jNhj85Pi2kOCemjCcWYa-18" value="" style="endArrow=none;html=1;rounded=0;fontSize=12;startSize=8;endSize=8;curved=1;entryX=0;entryY=0.5;entryDx=0;entryDy=0;" edge="1" parent="1" target="-JBZ22GMvitRDByKfE_u-2">
          <mxGeometry relative="1" as="geometry">
            <mxPoint x="90" y="580" as="sourcePoint" />
            <mxPoint x="100" y="590" as="targetPoint" />
          </mxGeometry>
        </mxCell>
        <mxCell id="jNhj85Pi2kOCemjCcWYa-19" value="" style="endArrow=none;html=1;rounded=0;fontSize=12;startSize=8;endSize=8;curved=1;exitX=0.5;exitY=0;exitDx=0;exitDy=0;entryX=0.5;entryY=1;entryDx=0;entryDy=0;" edge="1" parent="1" source="jNhj85Pi2kOCemjCcWYa-2" target="-JBZ22GMvitRDByKfE_u-2">
          <mxGeometry relative="1" as="geometry">
            <mxPoint x="-60" y="590" as="sourcePoint" />
            <mxPoint x="100" y="590" as="targetPoint" />
          </mxGeometry>
        </mxCell>
        <mxCell id="jNhj85Pi2kOCemjCcWYa-20" value="" style="endArrow=none;html=1;rounded=0;fontSize=12;startSize=8;endSize=8;curved=1;exitX=0.5;exitY=1;exitDx=0;exitDy=0;entryX=0.5;entryY=0;entryDx=0;entryDy=0;" edge="1" parent="1" source="jNhj85Pi2kOCemjCcWYa-5" target="-JBZ22GMvitRDByKfE_u-2">
          <mxGeometry relative="1" as="geometry">
            <mxPoint x="150" y="590" as="sourcePoint" />
            <mxPoint x="310" y="590" as="targetPoint" />
          </mxGeometry>
        </mxCell>
        <mxCell id="jNhj85Pi2kOCemjCcWYa-21" value="" style="endArrow=none;html=1;rounded=0;fontSize=12;startSize=8;endSize=8;curved=1;exitX=0.5;exitY=1;exitDx=0;exitDy=0;" edge="1" parent="1" source="jNhj85Pi2kOCemjCcWYa-22" target="jNhj85Pi2kOCemjCcWYa-1">
          <mxGeometry relative="1" as="geometry">
            <mxPoint x="600" y="450" as="sourcePoint" />
            <mxPoint x="510" y="390" as="targetPoint" />
          </mxGeometry>
        </mxCell>
        <mxCell id="jNhj85Pi2kOCemjCcWYa-22" value="Id" style="ellipse;whiteSpace=wrap;html=1;align=center;" vertex="1" parent="1">
          <mxGeometry x="460" y="470" width="100" height="40" as="geometry" />
        </mxCell>
        <mxCell id="jNhj85Pi2kOCemjCcWYa-23" value="Contador" style="ellipse;shape=doubleEllipse;margin=3;whiteSpace=wrap;html=1;align=center;" vertex="1" parent="1">
          <mxGeometry x="770" y="640" width="100" height="40" as="geometry" />
        </mxCell>
        <mxCell id="jNhj85Pi2kOCemjCcWYa-24" value="CodDeGestion" style="ellipse;shape=doubleEllipse;margin=3;whiteSpace=wrap;html=1;align=center;" vertex="1" parent="1">
          <mxGeometry x="827" y="490" width="100" height="40" as="geometry" />
        </mxCell>
        <mxCell id="jNhj85Pi2kOCemjCcWYa-26" value="" style="endArrow=none;html=1;rounded=0;fontSize=12;startSize=8;endSize=8;curved=1;exitX=0.5;exitY=1;exitDx=0;exitDy=0;entryX=0.5;entryY=0;entryDx=0;entryDy=0;" edge="1" parent="1" source="jNhj85Pi2kOCemjCcWYa-24" target="-JBZ22GMvitRDByKfE_u-4">
          <mxGeometry relative="1" as="geometry">
            <mxPoint x="780" y="590" as="sourcePoint" />
            <mxPoint x="940" y="590" as="targetPoint" />
          </mxGeometry>
        </mxCell>
        <mxCell id="jNhj85Pi2kOCemjCcWYa-27" value="" style="endArrow=none;html=1;rounded=0;fontSize=12;startSize=8;endSize=8;curved=1;entryX=0.5;entryY=1;entryDx=0;entryDy=0;exitX=0.5;exitY=0;exitDx=0;exitDy=0;" edge="1" parent="1" source="jNhj85Pi2kOCemjCcWYa-23" target="-JBZ22GMvitRDByKfE_u-4">
          <mxGeometry relative="1" as="geometry">
            <mxPoint x="780" y="590" as="sourcePoint" />
            <mxPoint x="940" y="590" as="targetPoint" />
          </mxGeometry>
        </mxCell>
        <mxCell id="HQ8U1JrQGH52suElCHSg-1" value="gestiona" style="shape=rhombus;perimeter=rhombusPerimeter;whiteSpace=wrap;html=1;align=center;" vertex="1" parent="1">
          <mxGeometry x="450" y="710" width="120" height="60" as="geometry" />
        </mxCell>
        <mxCell id="HQ8U1JrQGH52suElCHSg-3" value="" style="endArrow=none;html=1;rounded=0;fontSize=12;startSize=8;endSize=8;curved=1;exitX=0.5;exitY=0;exitDx=0;exitDy=0;" edge="1" parent="1" source="-JBZ22GMvitRDByKfE_u-5">
          <mxGeometry relative="1" as="geometry">
            <mxPoint x="380" y="680" as="sourcePoint" />
            <mxPoint x="510" y="770" as="targetPoint" />
          </mxGeometry>
        </mxCell>
        <mxCell id="HQ8U1JrQGH52suElCHSg-5" value="" style="endArrow=none;html=1;rounded=0;fontSize=12;startSize=8;endSize=8;curved=1;exitX=0.5;exitY=1;exitDx=0;exitDy=0;entryX=0.5;entryY=0;entryDx=0;entryDy=0;" edge="1" parent="1" target="HQ8U1JrQGH52suElCHSg-1">
          <mxGeometry relative="1" as="geometry">
            <mxPoint x="510" y="600" as="sourcePoint" />
            <mxPoint x="620" y="760" as="targetPoint" />
          </mxGeometry>
        </mxCell>
        <mxCell id="HQ8U1JrQGH52suElCHSg-6" value="DNI" style="ellipse;whiteSpace=wrap;html=1;align=center;" vertex="1" parent="1">
          <mxGeometry x="340" y="860" width="100" height="40" as="geometry" />
        </mxCell>
        <mxCell id="HQ8U1JrQGH52suElCHSg-7" value="Nombre" style="ellipse;whiteSpace=wrap;html=1;align=center;" vertex="1" parent="1">
          <mxGeometry x="400" y="940" width="100" height="40" as="geometry" />
        </mxCell>
        <mxCell id="HQ8U1JrQGH52suElCHSg-8" value="CodDeEmpleado" style="ellipse;whiteSpace=wrap;html=1;align=center;fontStyle=4;" vertex="1" parent="1">
          <mxGeometry x="580" y="930" width="100" height="40" as="geometry" />
        </mxCell>
        <mxCell id="HQ8U1JrQGH52suElCHSg-9" value="" style="endArrow=none;html=1;rounded=0;fontSize=12;startSize=8;endSize=8;curved=1;exitX=1;exitY=0.5;exitDx=0;exitDy=0;entryX=0;entryY=0.5;entryDx=0;entryDy=0;" edge="1" parent="1" source="HQ8U1JrQGH52suElCHSg-6" target="-JBZ22GMvitRDByKfE_u-5">
          <mxGeometry relative="1" as="geometry">
            <mxPoint x="-40" y="870" as="sourcePoint" />
            <mxPoint x="120" y="870" as="targetPoint" />
          </mxGeometry>
        </mxCell>
        <mxCell id="HQ8U1JrQGH52suElCHSg-10" value="" style="endArrow=none;html=1;rounded=0;fontSize=12;startSize=8;endSize=8;curved=1;exitX=0.5;exitY=0;exitDx=0;exitDy=0;entryX=0.5;entryY=1;entryDx=0;entryDy=0;" edge="1" parent="1" source="HQ8U1JrQGH52suElCHSg-7" target="-JBZ22GMvitRDByKfE_u-5">
          <mxGeometry relative="1" as="geometry">
            <mxPoint x="370" y="870" as="sourcePoint" />
            <mxPoint x="530" y="870" as="targetPoint" />
          </mxGeometry>
        </mxCell>
        <mxCell id="HQ8U1JrQGH52suElCHSg-11" value="" style="endArrow=none;html=1;rounded=0;fontSize=12;startSize=8;endSize=8;curved=1;exitX=0.5;exitY=1;exitDx=0;exitDy=0;entryX=0.5;entryY=0;entryDx=0;entryDy=0;" edge="1" parent="1" source="-JBZ22GMvitRDByKfE_u-5" target="HQ8U1JrQGH52suElCHSg-8">
          <mxGeometry relative="1" as="geometry">
            <mxPoint x="370" y="870" as="sourcePoint" />
            <mxPoint x="530" y="870" as="targetPoint" />
          </mxGeometry>
        </mxCell>
        <mxCell id="HQ8U1JrQGH52suElCHSg-13" value="" style="endArrow=none;html=1;rounded=0;fontSize=12;startSize=8;endSize=8;curved=1;exitX=1;exitY=0.5;exitDx=0;exitDy=0;" edge="1" parent="1" source="HQ8U1JrQGH52suElCHSg-12" target="-JBZ22GMvitRDByKfE_u-7">
          <mxGeometry relative="1" as="geometry">
            <mxPoint x="510" y="1000" as="sourcePoint" />
            <mxPoint x="670" y="1000" as="targetPoint" />
          </mxGeometry>
        </mxCell>
        <mxCell id="HQ8U1JrQGH52suElCHSg-14" value="" style="endArrow=none;html=1;rounded=0;fontSize=12;startSize=8;endSize=8;curved=1;exitX=1;exitY=0.5;exitDx=0;exitDy=0;" edge="1" parent="1" source="-JBZ22GMvitRDByKfE_u-5" target="HQ8U1JrQGH52suElCHSg-12">
          <mxGeometry relative="1" as="geometry">
            <mxPoint x="560" y="890" as="sourcePoint" />
            <mxPoint x="870" y="890" as="targetPoint" />
          </mxGeometry>
        </mxCell>
        <mxCell id="HQ8U1JrQGH52suElCHSg-12" value="realiza" style="shape=rhombus;double=1;perimeter=rhombusPerimeter;whiteSpace=wrap;html=1;align=center;" vertex="1" parent="1">
          <mxGeometry x="660" y="860" width="120" height="60" as="geometry" />
        </mxCell>
        <mxCell id="HQ8U1JrQGH52suElCHSg-17" value="Fecha" style="ellipse;whiteSpace=wrap;html=1;align=center;" vertex="1" parent="1">
          <mxGeometry x="820" y="780" width="100" height="40" as="geometry" />
        </mxCell>
        <mxCell id="HQ8U1JrQGH52suElCHSg-18" value="Hora" style="ellipse;whiteSpace=wrap;html=1;align=center;" vertex="1" parent="1">
          <mxGeometry x="950" y="780" width="100" height="40" as="geometry" />
        </mxCell>
        <mxCell id="HQ8U1JrQGH52suElCHSg-19" value="DescripcionS" style="ellipse;whiteSpace=wrap;html=1;align=center;fontStyle=4;" vertex="1" parent="1">
          <mxGeometry x="1020" y="870" width="100" height="40" as="geometry" />
        </mxCell>
        <mxCell id="HQ8U1JrQGH52suElCHSg-21" value="" style="endArrow=none;html=1;rounded=0;fontSize=12;startSize=8;endSize=8;curved=1;exitX=0.5;exitY=1;exitDx=0;exitDy=0;entryX=0.5;entryY=0;entryDx=0;entryDy=0;" edge="1" parent="1" source="HQ8U1JrQGH52suElCHSg-17" target="-JBZ22GMvitRDByKfE_u-7">
          <mxGeometry relative="1" as="geometry">
            <mxPoint x="930" y="790" as="sourcePoint" />
            <mxPoint x="1090" y="790" as="targetPoint" />
          </mxGeometry>
        </mxCell>
        <mxCell id="HQ8U1JrQGH52suElCHSg-22" value="" style="endArrow=none;html=1;rounded=0;fontSize=12;startSize=8;endSize=8;curved=1;exitX=0.5;exitY=1;exitDx=0;exitDy=0;entryX=0.5;entryY=0;entryDx=0;entryDy=0;" edge="1" parent="1" source="HQ8U1JrQGH52suElCHSg-18" target="-JBZ22GMvitRDByKfE_u-7">
          <mxGeometry relative="1" as="geometry">
            <mxPoint x="930" y="790" as="sourcePoint" />
            <mxPoint x="1090" y="790" as="targetPoint" />
          </mxGeometry>
        </mxCell>
        <mxCell id="HQ8U1JrQGH52suElCHSg-23" value="" style="endArrow=none;html=1;rounded=0;fontSize=12;startSize=8;endSize=8;curved=1;exitX=1;exitY=0.5;exitDx=0;exitDy=0;entryX=0;entryY=0.5;entryDx=0;entryDy=0;" edge="1" parent="1" source="-JBZ22GMvitRDByKfE_u-7" target="HQ8U1JrQGH52suElCHSg-19">
          <mxGeometry relative="1" as="geometry">
            <mxPoint x="930" y="790" as="sourcePoint" />
            <mxPoint x="1090" y="790" as="targetPoint" />
          </mxGeometry>
        </mxCell>
        <mxCell id="HQ8U1JrQGH52suElCHSg-24" value="Empresa" style="ellipse;whiteSpace=wrap;html=1;align=center;" vertex="1" parent="1">
          <mxGeometry x="870" y="970" width="100" height="40" as="geometry" />
        </mxCell>
        <mxCell id="HQ8U1JrQGH52suElCHSg-25" value="" style="endArrow=none;html=1;rounded=0;fontSize=12;startSize=8;endSize=8;curved=1;exitX=0.5;exitY=0;exitDx=0;exitDy=0;entryX=0.5;entryY=1;entryDx=0;entryDy=0;" edge="1" parent="1" source="HQ8U1JrQGH52suElCHSg-24" target="-JBZ22GMvitRDByKfE_u-7">
          <mxGeometry relative="1" as="geometry">
            <mxPoint x="830" y="790" as="sourcePoint" />
            <mxPoint x="990" y="790" as="targetPoint" />
          </mxGeometry>
        </mxCell>
        <mxCell id="HQ8U1JrQGH52suElCHSg-26" value="(1,1)" style="text;strokeColor=none;fillColor=none;spacingLeft=4;spacingRight=4;overflow=hidden;rotatable=0;points=[[0,0.5],[1,0.5]];portConstraint=eastwest;fontSize=12;whiteSpace=wrap;html=1;" vertex="1" parent="1">
          <mxGeometry x="220" y="555" width="40" height="30" as="geometry" />
        </mxCell>
        <mxCell id="HQ8U1JrQGH52suElCHSg-27" value="(1,N)" style="text;strokeColor=none;fillColor=none;spacingLeft=4;spacingRight=4;overflow=hidden;rotatable=0;points=[[0,0.5],[1,0.5]];portConstraint=eastwest;fontSize=12;whiteSpace=wrap;html=1;" vertex="1" parent="1">
          <mxGeometry x="420" y="555" width="40" height="30" as="geometry" />
        </mxCell>
        <mxCell id="HQ8U1JrQGH52suElCHSg-28" value="(1,1)" style="text;strokeColor=none;fillColor=none;spacingLeft=4;spacingRight=4;overflow=hidden;rotatable=0;points=[[0,0.5],[1,0.5]];portConstraint=eastwest;fontSize=12;whiteSpace=wrap;html=1;" vertex="1" parent="1">
          <mxGeometry x="830" y="555" width="40" height="30" as="geometry" />
        </mxCell>
        <mxCell id="HQ8U1JrQGH52suElCHSg-30" value="(1,N)" style="text;strokeColor=none;fillColor=none;spacingLeft=4;spacingRight=4;overflow=hidden;rotatable=0;points=[[0,0.5],[1,0.5]];portConstraint=eastwest;fontSize=12;whiteSpace=wrap;html=1;" vertex="1" parent="1">
          <mxGeometry x="560" y="560" width="40" height="30" as="geometry" />
        </mxCell>
        <mxCell id="HQ8U1JrQGH52suElCHSg-31" value="(1,N)" style="text;strokeColor=none;fillColor=none;spacingLeft=4;spacingRight=4;overflow=hidden;rotatable=0;points=[[0,0.5],[1,0.5]];portConstraint=eastwest;fontSize=12;whiteSpace=wrap;html=1;" vertex="1" parent="1">
          <mxGeometry x="510" y="600" width="40" height="30" as="geometry" />
        </mxCell>
        <mxCell id="HQ8U1JrQGH52suElCHSg-32" value="(1,1)" style="text;strokeColor=none;fillColor=none;spacingLeft=4;spacingRight=4;overflow=hidden;rotatable=0;points=[[0,0.5],[1,0.5]];portConstraint=eastwest;fontSize=12;whiteSpace=wrap;html=1;" vertex="1" parent="1">
          <mxGeometry x="510" y="840" width="40" height="30" as="geometry" />
        </mxCell>
        <mxCell id="HQ8U1JrQGH52suElCHSg-33" value="(1,N)" style="text;strokeColor=none;fillColor=none;spacingLeft=4;spacingRight=4;overflow=hidden;rotatable=0;points=[[0,0.5],[1,0.5]];portConstraint=eastwest;fontSize=12;whiteSpace=wrap;html=1;" vertex="1" parent="1">
          <mxGeometry x="830" y="870" width="40" height="30" as="geometry" />
        </mxCell>
        <mxCell id="HQ8U1JrQGH52suElCHSg-34" value="(1,1)" style="text;strokeColor=none;fillColor=none;spacingLeft=4;spacingRight=4;overflow=hidden;rotatable=0;points=[[0,0.5],[1,0.5]];portConstraint=eastwest;fontSize=12;whiteSpace=wrap;html=1;" vertex="1" parent="1">
          <mxGeometry x="560" y="865" width="40" height="30" as="geometry" />
        </mxCell>
        <mxCell id="Fq4ZT-p0a04aDMI6LDzE-4" value="DescripcionR" style="ellipse;whiteSpace=wrap;html=1;align=center;fontStyle=4;" vertex="1" parent="1">
          <mxGeometry x="1020" y="560" width="100" height="40" as="geometry" />
        </mxCell>
        <mxCell id="Fq4ZT-p0a04aDMI6LDzE-5" value="" style="endArrow=none;html=1;rounded=0;fontSize=12;startSize=8;endSize=8;curved=1;exitX=1;exitY=0.5;exitDx=0;exitDy=0;entryX=0;entryY=0.5;entryDx=0;entryDy=0;" edge="1" parent="1" target="Fq4ZT-p0a04aDMI6LDzE-4">
          <mxGeometry relative="1" as="geometry">
            <mxPoint x="970" y="580" as="sourcePoint" />
            <mxPoint x="1090" y="480" as="targetPoint" />
          </mxGeometry>
        </mxCell>
        <mxCell id="Fq4ZT-p0a04aDMI6LDzE-7" value="Hora" style="ellipse;shape=doubleEllipse;margin=3;whiteSpace=wrap;html=1;align=center;" vertex="1" parent="1">
          <mxGeometry x="910" y="660" width="100" height="40" as="geometry" />
        </mxCell>
        <mxCell id="Fq4ZT-p0a04aDMI6LDzE-8" value="Fecha" style="ellipse;shape=doubleEllipse;margin=3;whiteSpace=wrap;html=1;align=center;" vertex="1" parent="1">
          <mxGeometry x="970" y="480" width="100" height="40" as="geometry" />
        </mxCell>
        <mxCell id="Fq4ZT-p0a04aDMI6LDzE-9" value="" style="endArrow=none;html=1;rounded=0;fontSize=12;startSize=8;endSize=8;curved=1;entryX=0.5;entryY=0;entryDx=0;entryDy=0;" edge="1" parent="1" target="Fq4ZT-p0a04aDMI6LDzE-7">
          <mxGeometry relative="1" as="geometry">
            <mxPoint x="920" y="600" as="sourcePoint" />
            <mxPoint x="1090" y="680" as="targetPoint" />
          </mxGeometry>
        </mxCell>
        <mxCell id="Fq4ZT-p0a04aDMI6LDzE-10" value="" style="endArrow=none;html=1;rounded=0;fontSize=12;startSize=8;endSize=8;curved=1;exitX=0.5;exitY=0;exitDx=0;exitDy=0;entryX=0.5;entryY=1;entryDx=0;entryDy=0;" edge="1" parent="1" source="-JBZ22GMvitRDByKfE_u-4" target="Fq4ZT-p0a04aDMI6LDzE-8">
          <mxGeometry relative="1" as="geometry">
            <mxPoint x="930" y="680" as="sourcePoint" />
            <mxPoint x="1090" y="680" as="targetPoint" />
          </mxGeometry>
        </mxCell>
      </root>
    </mxGraphModel>
  </diagram>
  <diagram name="PÃ¡gina-8" id="6z0pGv97u4NIqEjajq2m">
    <mxGraphModel dx="1214" dy="1426" grid="1" gridSize="10" guides="1" tooltips="1" connect="1" arrows="1" fold="1" page="1" pageScale="1" pageWidth="827" pageHeight="1169" math="0" shadow="0">
      <root>
        <mxCell id="0" />
        <mxCell id="1" parent="0" />
        <mxCell id="zd73Y9ww8UCidpnAnRBJ-1" value="Usuario" style="whiteSpace=wrap;html=1;align=center;" vertex="1" parent="1">
          <mxGeometry x="130" y="520" width="120" height="40" as="geometry" />
        </mxCell>
        <mxCell id="zd73Y9ww8UCidpnAnRBJ-2" value="Mail" style="ellipse;whiteSpace=wrap;html=1;align=center;" vertex="1" parent="1">
          <mxGeometry x="10" y="590" width="100" height="40" as="geometry" />
        </mxCell>
        <mxCell id="zd73Y9ww8UCidpnAnRBJ-3" value="Dni" style="ellipse;whiteSpace=wrap;html=1;align=center;fontStyle=4;" vertex="1" parent="1">
          <mxGeometry x="10" y="520" width="100" height="40" as="geometry" />
        </mxCell>
        <mxCell id="zd73Y9ww8UCidpnAnRBJ-4" value="Cel" style="ellipse;whiteSpace=wrap;html=1;align=center;" vertex="1" parent="1">
          <mxGeometry x="20" y="450" width="100" height="40" as="geometry" />
        </mxCell>
        <mxCell id="zd73Y9ww8UCidpnAnRBJ-5" value="Nombre" style="ellipse;whiteSpace=wrap;html=1;align=center;" vertex="1" parent="1">
          <mxGeometry x="60" y="390" width="100" height="40" as="geometry" />
        </mxCell>
        <mxCell id="zd73Y9ww8UCidpnAnRBJ-6" value="DirecciÃ³n" style="ellipse;whiteSpace=wrap;html=1;align=center;" vertex="1" parent="1">
          <mxGeometry x="20" y="660" width="100" height="40" as="geometry" />
        </mxCell>
        <mxCell id="zd73Y9ww8UCidpnAnRBJ-7" value="" style="endArrow=none;html=1;rounded=0;fontSize=12;startSize=8;endSize=8;curved=1;exitX=1;exitY=0.5;exitDx=0;exitDy=0;entryX=0;entryY=0.5;entryDx=0;entryDy=0;" edge="1" parent="1" source="zd73Y9ww8UCidpnAnRBJ-3" target="zd73Y9ww8UCidpnAnRBJ-1">
          <mxGeometry relative="1" as="geometry">
            <mxPoint x="110" y="580" as="sourcePoint" />
            <mxPoint x="270" y="580" as="targetPoint" />
          </mxGeometry>
        </mxCell>
        <mxCell id="zd73Y9ww8UCidpnAnRBJ-8" value="" style="endArrow=none;html=1;rounded=0;fontSize=12;startSize=8;endSize=8;curved=1;exitX=1;exitY=0.5;exitDx=0;exitDy=0;entryX=0.5;entryY=1;entryDx=0;entryDy=0;" edge="1" parent="1" source="zd73Y9ww8UCidpnAnRBJ-2" target="zd73Y9ww8UCidpnAnRBJ-1">
          <mxGeometry relative="1" as="geometry">
            <mxPoint x="110" y="580" as="sourcePoint" />
            <mxPoint x="190" y="570" as="targetPoint" />
          </mxGeometry>
        </mxCell>
        <mxCell id="zd73Y9ww8UCidpnAnRBJ-9" value="" style="endArrow=none;html=1;rounded=0;fontSize=12;startSize=8;endSize=8;curved=1;exitX=1;exitY=0.5;exitDx=0;exitDy=0;" edge="1" parent="1" source="zd73Y9ww8UCidpnAnRBJ-4">
          <mxGeometry relative="1" as="geometry">
            <mxPoint x="110" y="580" as="sourcePoint" />
            <mxPoint x="190" y="520" as="targetPoint" />
          </mxGeometry>
        </mxCell>
        <mxCell id="zd73Y9ww8UCidpnAnRBJ-10" value="" style="endArrow=none;html=1;rounded=0;fontSize=12;startSize=8;endSize=8;curved=1;exitX=0.5;exitY=1;exitDx=0;exitDy=0;entryX=0.5;entryY=0;entryDx=0;entryDy=0;" edge="1" parent="1" source="zd73Y9ww8UCidpnAnRBJ-1" target="zd73Y9ww8UCidpnAnRBJ-6">
          <mxGeometry relative="1" as="geometry">
            <mxPoint x="110" y="580" as="sourcePoint" />
            <mxPoint x="270" y="580" as="targetPoint" />
          </mxGeometry>
        </mxCell>
        <mxCell id="zd73Y9ww8UCidpnAnRBJ-11" value="" style="endArrow=none;html=1;rounded=0;fontSize=12;startSize=8;endSize=8;curved=1;exitX=0.5;exitY=1;exitDx=0;exitDy=0;entryX=0.5;entryY=0;entryDx=0;entryDy=0;" edge="1" parent="1" source="zd73Y9ww8UCidpnAnRBJ-5" target="zd73Y9ww8UCidpnAnRBJ-1">
          <mxGeometry relative="1" as="geometry">
            <mxPoint x="110" y="580" as="sourcePoint" />
            <mxPoint x="270" y="580" as="targetPoint" />
          </mxGeometry>
        </mxCell>
        <mxCell id="zd73Y9ww8UCidpnAnRBJ-12" value="Evento" style="whiteSpace=wrap;html=1;align=center;" vertex="1" parent="1">
          <mxGeometry x="840" y="520" width="100" height="40" as="geometry" />
        </mxCell>
        <mxCell id="zd73Y9ww8UCidpnAnRBJ-13" value="Nombre" style="ellipse;whiteSpace=wrap;html=1;align=center;fontStyle=4;" vertex="1" parent="1">
          <mxGeometry x="840" y="450" width="100" height="40" as="geometry" />
        </mxCell>
        <mxCell id="zd73Y9ww8UCidpnAnRBJ-15" value="" style="endArrow=none;html=1;rounded=0;fontSize=12;startSize=8;endSize=8;curved=1;exitX=0.5;exitY=1;exitDx=0;exitDy=0;" edge="1" parent="1" source="zd73Y9ww8UCidpnAnRBJ-13" target="zd73Y9ww8UCidpnAnRBJ-12">
          <mxGeometry relative="1" as="geometry">
            <mxPoint x="750" y="370" as="sourcePoint" />
            <mxPoint x="910" y="370" as="targetPoint" />
          </mxGeometry>
        </mxCell>
        <mxCell id="zd73Y9ww8UCidpnAnRBJ-16" value="" style="endArrow=none;html=1;rounded=0;fontSize=12;startSize=8;endSize=8;curved=1;entryX=0.5;entryY=1;entryDx=0;entryDy=0;" edge="1" parent="1" target="zd73Y9ww8UCidpnAnRBJ-17">
          <mxGeometry relative="1" as="geometry">
            <mxPoint x="890" y="520" as="sourcePoint" />
            <mxPoint x="990" y="480" as="targetPoint" />
          </mxGeometry>
        </mxCell>
        <mxCell id="zd73Y9ww8UCidpnAnRBJ-17" value="fecha" style="ellipse;whiteSpace=wrap;html=1;align=center;" vertex="1" parent="1">
          <mxGeometry x="950" y="450.0000000000002" width="100" height="40" as="geometry" />
        </mxCell>
        <mxCell id="zd73Y9ww8UCidpnAnRBJ-18" value="Attribute" style="ellipse;whiteSpace=wrap;html=1;align=center;" vertex="1" parent="1">
          <mxGeometry x="730" y="450" width="100" height="40" as="geometry" />
        </mxCell>
        <mxCell id="zd73Y9ww8UCidpnAnRBJ-20" value="" style="endArrow=none;html=1;rounded=0;fontSize=12;startSize=8;endSize=8;curved=1;exitX=0.5;exitY=1;exitDx=0;exitDy=0;entryX=0.5;entryY=0;entryDx=0;entryDy=0;" edge="1" parent="1" source="zd73Y9ww8UCidpnAnRBJ-18" target="zd73Y9ww8UCidpnAnRBJ-12">
          <mxGeometry relative="1" as="geometry">
            <mxPoint x="860" y="370" as="sourcePoint" />
            <mxPoint x="1020" y="370" as="targetPoint" />
          </mxGeometry>
        </mxCell>
        <mxCell id="zd73Y9ww8UCidpnAnRBJ-22" value="Estado" style="ellipse;whiteSpace=wrap;html=1;align=center;" vertex="1" parent="1">
          <mxGeometry x="1000" y="520" width="100" height="40" as="geometry" />
        </mxCell>
        <mxCell id="zd73Y9ww8UCidpnAnRBJ-23" value="" style="endArrow=none;html=1;rounded=0;fontSize=12;startSize=8;endSize=8;curved=1;exitX=0;exitY=0.5;exitDx=0;exitDy=0;" edge="1" parent="1" source="zd73Y9ww8UCidpnAnRBJ-22">
          <mxGeometry relative="1" as="geometry">
            <mxPoint x="860" y="370" as="sourcePoint" />
            <mxPoint x="940" y="540" as="targetPoint" />
          </mxGeometry>
        </mxCell>
        <mxCell id="zd73Y9ww8UCidpnAnRBJ-24" value="Entrada" style="whiteSpace=wrap;html=1;align=center;" vertex="1" parent="1">
          <mxGeometry x="520" y="520" width="100" height="40" as="geometry" />
        </mxCell>
        <mxCell id="zd73Y9ww8UCidpnAnRBJ-25" value="Actividad" style="whiteSpace=wrap;html=1;align=center;" vertex="1" parent="1">
          <mxGeometry x="840" y="750" width="100" height="40" as="geometry" />
        </mxCell>
        <mxCell id="zd73Y9ww8UCidpnAnRBJ-26" value="Nombre" style="ellipse;whiteSpace=wrap;html=1;align=center;fontStyle=4;" vertex="1" parent="1">
          <mxGeometry x="1000" y="750" width="100" height="40" as="geometry" />
        </mxCell>
        <mxCell id="zd73Y9ww8UCidpnAnRBJ-27" value="" style="endArrow=none;html=1;rounded=0;fontSize=12;startSize=8;endSize=8;curved=1;exitX=1;exitY=0.5;exitDx=0;exitDy=0;entryX=0;entryY=0.5;entryDx=0;entryDy=0;" edge="1" parent="1" source="zd73Y9ww8UCidpnAnRBJ-25" target="zd73Y9ww8UCidpnAnRBJ-26">
          <mxGeometry relative="1" as="geometry">
            <mxPoint x="740" y="690" as="sourcePoint" />
            <mxPoint x="900" y="690" as="targetPoint" />
          </mxGeometry>
        </mxCell>
        <mxCell id="zd73Y9ww8UCidpnAnRBJ-29" value="" style="endArrow=none;html=1;rounded=0;fontSize=12;startSize=8;endSize=8;curved=1;exitX=0.5;exitY=1;exitDx=0;exitDy=0;entryX=0.5;entryY=0;entryDx=0;entryDy=0;" edge="1" parent="1" source="zd73Y9ww8UCidpnAnRBJ-28" target="zd73Y9ww8UCidpnAnRBJ-25">
          <mxGeometry relative="1" as="geometry">
            <mxPoint x="740" y="690" as="sourcePoint" />
            <mxPoint x="900" y="690" as="targetPoint" />
          </mxGeometry>
        </mxCell>
        <mxCell id="zd73Y9ww8UCidpnAnRBJ-30" value="" style="endArrow=none;html=1;rounded=0;fontSize=12;startSize=8;endSize=8;curved=1;exitX=0.5;exitY=1;exitDx=0;exitDy=0;entryX=0.5;entryY=0;entryDx=0;entryDy=0;" edge="1" parent="1" source="zd73Y9ww8UCidpnAnRBJ-12" target="zd73Y9ww8UCidpnAnRBJ-28">
          <mxGeometry relative="1" as="geometry">
            <mxPoint x="890" y="560" as="sourcePoint" />
            <mxPoint x="890" y="750" as="targetPoint" />
          </mxGeometry>
        </mxCell>
        <mxCell id="zd73Y9ww8UCidpnAnRBJ-28" value="tiene" style="shape=rhombus;perimeter=rhombusPerimeter;whiteSpace=wrap;html=1;align=center;" vertex="1" parent="1">
          <mxGeometry x="830" y="630" width="120" height="60" as="geometry" />
        </mxCell>
        <mxCell id="zd73Y9ww8UCidpnAnRBJ-31" value="" style="endArrow=none;html=1;rounded=0;fontSize=12;startSize=8;endSize=8;curved=1;exitX=1;exitY=0.5;exitDx=0;exitDy=0;entryX=0;entryY=0.5;entryDx=0;entryDy=0;" edge="1" parent="1" source="zd73Y9ww8UCidpnAnRBJ-32" target="zd73Y9ww8UCidpnAnRBJ-24">
          <mxGeometry relative="1" as="geometry">
            <mxPoint x="250" y="580" as="sourcePoint" />
            <mxPoint x="410" y="580" as="targetPoint" />
          </mxGeometry>
        </mxCell>
        <mxCell id="zd73Y9ww8UCidpnAnRBJ-33" value="" style="endArrow=none;html=1;rounded=0;fontSize=12;startSize=8;endSize=8;curved=1;exitX=1;exitY=0.5;exitDx=0;exitDy=0;entryX=0;entryY=0.5;entryDx=0;entryDy=0;" edge="1" parent="1" source="zd73Y9ww8UCidpnAnRBJ-1" target="zd73Y9ww8UCidpnAnRBJ-32">
          <mxGeometry relative="1" as="geometry">
            <mxPoint x="250" y="540" as="sourcePoint" />
            <mxPoint x="520" y="540" as="targetPoint" />
          </mxGeometry>
        </mxCell>
        <mxCell id="zd73Y9ww8UCidpnAnRBJ-32" value="compra" style="shape=rhombus;perimeter=rhombusPerimeter;whiteSpace=wrap;html=1;align=center;" vertex="1" parent="1">
          <mxGeometry x="320" y="510" width="120" height="60" as="geometry" />
        </mxCell>
        <mxCell id="zd73Y9ww8UCidpnAnRBJ-34" value="Precio" style="ellipse;whiteSpace=wrap;html=1;align=center;" vertex="1" parent="1">
          <mxGeometry x="640" y="390" width="100" height="40" as="geometry" />
        </mxCell>
        <mxCell id="zd73Y9ww8UCidpnAnRBJ-35" value="" style="endArrow=none;html=1;rounded=0;fontSize=12;startSize=8;endSize=8;curved=1;exitX=0.5;exitY=1;exitDx=0;exitDy=0;entryX=0.5;entryY=0;entryDx=0;entryDy=0;" edge="1" parent="1" source="zd73Y9ww8UCidpnAnRBJ-34" target="zd73Y9ww8UCidpnAnRBJ-24">
          <mxGeometry relative="1" as="geometry">
            <mxPoint x="360" y="580" as="sourcePoint" />
            <mxPoint x="520" y="580" as="targetPoint" />
          </mxGeometry>
        </mxCell>
        <mxCell id="zd73Y9ww8UCidpnAnRBJ-36" value="" style="endArrow=none;html=1;rounded=0;fontSize=12;startSize=8;endSize=8;curved=1;entryX=0;entryY=0.5;entryDx=0;entryDy=0;" edge="1" parent="1" source="zd73Y9ww8UCidpnAnRBJ-37" target="zd73Y9ww8UCidpnAnRBJ-25">
          <mxGeometry relative="1" as="geometry">
            <mxPoint x="580" y="580" as="sourcePoint" />
            <mxPoint x="740" y="580" as="targetPoint" />
          </mxGeometry>
        </mxCell>
        <mxCell id="zd73Y9ww8UCidpnAnRBJ-38" value="" style="endArrow=none;html=1;rounded=0;fontSize=12;startSize=8;endSize=8;curved=1;exitX=0.5;exitY=1;exitDx=0;exitDy=0;entryX=0;entryY=0;entryDx=0;entryDy=0;" edge="1" parent="1" source="zd73Y9ww8UCidpnAnRBJ-24" target="zd73Y9ww8UCidpnAnRBJ-37">
          <mxGeometry relative="1" as="geometry">
            <mxPoint x="570" y="560" as="sourcePoint" />
            <mxPoint x="840" y="770" as="targetPoint" />
          </mxGeometry>
        </mxCell>
        <mxCell id="zd73Y9ww8UCidpnAnRBJ-37" value="adquiere" style="shape=rhombus;perimeter=rhombusPerimeter;whiteSpace=wrap;html=1;align=center;" vertex="1" parent="1">
          <mxGeometry x="630" y="620" width="120" height="60" as="geometry" />
        </mxCell>
        <mxCell id="zd73Y9ww8UCidpnAnRBJ-40" value="" style="endArrow=none;html=1;rounded=0;fontSize=12;startSize=8;endSize=8;curved=1;exitX=0.5;exitY=1;exitDx=0;exitDy=0;" edge="1" parent="1" source="zd73Y9ww8UCidpnAnRBJ-25">
          <mxGeometry relative="1" as="geometry">
            <mxPoint x="690" y="690" as="sourcePoint" />
            <mxPoint x="890" y="860" as="targetPoint" />
          </mxGeometry>
        </mxCell>
        <mxCell id="zd73Y9ww8UCidpnAnRBJ-42" value="DirecciÃ³n" style="ellipse;whiteSpace=wrap;html=1;align=center;" vertex="1" parent="1">
          <mxGeometry x="840" y="860" width="100" height="40" as="geometry" />
        </mxCell>
        <mxCell id="zd73Y9ww8UCidpnAnRBJ-43" value="Factura" style="shape=ext;margin=3;double=1;whiteSpace=wrap;html=1;align=center;" vertex="1" parent="1">
          <mxGeometry x="130" y="800" width="120" height="40" as="geometry" />
        </mxCell>
        <mxCell id="zd73Y9ww8UCidpnAnRBJ-46" value="" style="endArrow=none;html=1;rounded=0;fontSize=12;startSize=8;endSize=8;curved=1;entryX=0.5;entryY=0;entryDx=0;entryDy=0;" edge="1" parent="1" source="zd73Y9ww8UCidpnAnRBJ-45" target="zd73Y9ww8UCidpnAnRBJ-43">
          <mxGeometry relative="1" as="geometry">
            <mxPoint x="190" y="560" as="sourcePoint" />
            <mxPoint x="310" y="700" as="targetPoint" />
          </mxGeometry>
        </mxCell>
        <mxCell id="zd73Y9ww8UCidpnAnRBJ-47" value="" style="endArrow=none;html=1;rounded=0;fontSize=12;startSize=8;endSize=8;curved=1;entryX=0.5;entryY=0;entryDx=0;entryDy=0;" edge="1" parent="1" target="zd73Y9ww8UCidpnAnRBJ-45">
          <mxGeometry relative="1" as="geometry">
            <mxPoint x="190" y="560" as="sourcePoint" />
            <mxPoint x="190" y="800" as="targetPoint" />
          </mxGeometry>
        </mxCell>
        <mxCell id="zd73Y9ww8UCidpnAnRBJ-45" value="tiene" style="shape=rhombus;double=1;perimeter=rhombusPerimeter;whiteSpace=wrap;html=1;align=center;" vertex="1" parent="1">
          <mxGeometry x="130" y="650" width="120" height="60" as="geometry" />
        </mxCell>
        <mxCell id="zd73Y9ww8UCidpnAnRBJ-48" value="MontoTSD" style="ellipse;whiteSpace=wrap;html=1;align=center;dashed=1;" vertex="1" parent="1">
          <mxGeometry x="300" y="800" width="100" height="40" as="geometry" />
        </mxCell>
        <mxCell id="zd73Y9ww8UCidpnAnRBJ-49" value="" style="endArrow=none;html=1;rounded=0;fontSize=12;startSize=8;endSize=8;curved=1;exitX=1;exitY=0.5;exitDx=0;exitDy=0;entryX=0;entryY=0.5;entryDx=0;entryDy=0;" edge="1" parent="1" source="zd73Y9ww8UCidpnAnRBJ-43" target="zd73Y9ww8UCidpnAnRBJ-48">
          <mxGeometry relative="1" as="geometry">
            <mxPoint x="240" y="700" as="sourcePoint" />
            <mxPoint x="400" y="700" as="targetPoint" />
          </mxGeometry>
        </mxCell>
        <mxCell id="JtpZvKyPhadnBOzgyVCG-1" value="Fecha" style="ellipse;whiteSpace=wrap;html=1;align=center;" vertex="1" parent="1">
          <mxGeometry x="320" y="750" width="100" height="40" as="geometry" />
        </mxCell>
        <mxCell id="JtpZvKyPhadnBOzgyVCG-2" value="" style="endArrow=none;html=1;rounded=0;fontSize=12;startSize=8;endSize=8;curved=1;exitX=0.5;exitY=0;exitDx=0;exitDy=0;entryX=0;entryY=0.5;entryDx=0;entryDy=0;" edge="1" parent="1" source="zd73Y9ww8UCidpnAnRBJ-43" target="JtpZvKyPhadnBOzgyVCG-1">
          <mxGeometry relative="1" as="geometry">
            <mxPoint x="180" y="670" as="sourcePoint" />
            <mxPoint x="340" y="670" as="targetPoint" />
          </mxGeometry>
        </mxCell>
        <mxCell id="JtpZvKyPhadnBOzgyVCG-3" value="Hora" style="ellipse;whiteSpace=wrap;html=1;align=center;" vertex="1" parent="1">
          <mxGeometry x="290" y="850" width="100" height="40" as="geometry" />
        </mxCell>
        <mxCell id="JtpZvKyPhadnBOzgyVCG-5" value="" style="endArrow=none;html=1;rounded=0;fontSize=12;startSize=8;endSize=8;curved=1;exitX=0.5;exitY=1;exitDx=0;exitDy=0;entryX=0;entryY=0.5;entryDx=0;entryDy=0;" edge="1" parent="1" source="zd73Y9ww8UCidpnAnRBJ-43" target="JtpZvKyPhadnBOzgyVCG-3">
          <mxGeometry relative="1" as="geometry">
            <mxPoint x="180" y="670" as="sourcePoint" />
            <mxPoint x="340" y="670" as="targetPoint" />
          </mxGeometry>
        </mxCell>
        <mxCell id="4JXr-o_5Yrq9a8KZz1rp-2" value="CodDescuento" style="whiteSpace=wrap;html=1;align=center;" vertex="1" parent="1">
          <mxGeometry x="414" y="210" width="100" height="40" as="geometry" />
        </mxCell>
        <mxCell id="4JXr-o_5Yrq9a8KZz1rp-3" value="" style="endArrow=none;html=1;rounded=0;fontSize=12;startSize=8;endSize=8;curved=1;exitX=0.5;exitY=0;exitDx=0;exitDy=0;" edge="1" parent="1" source="4JXr-o_5Yrq9a8KZz1rp-2" target="4JXr-o_5Yrq9a8KZz1rp-4">
          <mxGeometry relative="1" as="geometry">
            <mxPoint x="530" y="300" as="sourcePoint" />
            <mxPoint x="620" y="240" as="targetPoint" />
          </mxGeometry>
        </mxCell>
        <mxCell id="4JXr-o_5Yrq9a8KZz1rp-4" value="FechaDeVec" style="ellipse;whiteSpace=wrap;html=1;align=center;" vertex="1" parent="1">
          <mxGeometry x="450" y="140" width="100" height="40" as="geometry" />
        </mxCell>
        <mxCell id="4JXr-o_5Yrq9a8KZz1rp-5" value="Obtiene" style="shape=rhombus;perimeter=rhombusPerimeter;whiteSpace=wrap;html=1;align=center;" vertex="1" parent="1">
          <mxGeometry x="330" y="320" width="120" height="60" as="geometry" />
        </mxCell>
        <mxCell id="4JXr-o_5Yrq9a8KZz1rp-6" value="" style="endArrow=none;html=1;rounded=0;fontSize=12;startSize=8;endSize=8;curved=1;exitX=0.5;exitY=0;exitDx=0;exitDy=0;entryX=0;entryY=1;entryDx=0;entryDy=0;" edge="1" parent="1" source="zd73Y9ww8UCidpnAnRBJ-1" target="4JXr-o_5Yrq9a8KZz1rp-5">
          <mxGeometry relative="1" as="geometry">
            <mxPoint x="280" y="300" as="sourcePoint" />
            <mxPoint x="440" y="300" as="targetPoint" />
          </mxGeometry>
        </mxCell>
        <mxCell id="4JXr-o_5Yrq9a8KZz1rp-7" value="" style="endArrow=none;html=1;rounded=0;fontSize=12;startSize=8;endSize=8;curved=1;exitX=1;exitY=0;exitDx=0;exitDy=0;entryX=0.5;entryY=1;entryDx=0;entryDy=0;" edge="1" parent="1" source="4JXr-o_5Yrq9a8KZz1rp-5" target="4JXr-o_5Yrq9a8KZz1rp-2">
          <mxGeometry relative="1" as="geometry">
            <mxPoint x="280" y="300" as="sourcePoint" />
            <mxPoint x="440" y="300" as="targetPoint" />
          </mxGeometry>
        </mxCell>
        <mxCell id="4JXr-o_5Yrq9a8KZz1rp-8" value="FechaDeAdq" style="ellipse;whiteSpace=wrap;html=1;align=center;" vertex="1" parent="1">
          <mxGeometry x="250" y="250" width="100" height="40" as="geometry" />
        </mxCell>
        <mxCell id="4JXr-o_5Yrq9a8KZz1rp-9" value="" style="endArrow=none;html=1;rounded=0;fontSize=12;startSize=8;endSize=8;curved=1;exitX=0.5;exitY=1;exitDx=0;exitDy=0;entryX=0;entryY=0;entryDx=0;entryDy=0;" edge="1" parent="1" source="4JXr-o_5Yrq9a8KZz1rp-8" target="4JXr-o_5Yrq9a8KZz1rp-5">
          <mxGeometry relative="1" as="geometry">
            <mxPoint x="280" y="300" as="sourcePoint" />
            <mxPoint x="440" y="300" as="targetPoint" />
          </mxGeometry>
        </mxCell>
        <mxCell id="4JXr-o_5Yrq9a8KZz1rp-10" value="Influye" style="shape=rhombus;perimeter=rhombusPerimeter;whiteSpace=wrap;html=1;align=center;" vertex="1" parent="1">
          <mxGeometry x="514" y="320" width="120" height="60" as="geometry" />
        </mxCell>
        <mxCell id="4JXr-o_5Yrq9a8KZz1rp-11" value="" style="endArrow=none;html=1;rounded=0;fontSize=12;startSize=8;endSize=8;curved=1;entryX=0;entryY=0;entryDx=0;entryDy=0;" edge="1" parent="1" target="4JXr-o_5Yrq9a8KZz1rp-10">
          <mxGeometry relative="1" as="geometry">
            <mxPoint x="470" y="250" as="sourcePoint" />
            <mxPoint x="570" y="300" as="targetPoint" />
          </mxGeometry>
        </mxCell>
        <mxCell id="4JXr-o_5Yrq9a8KZz1rp-12" value="" style="endArrow=none;html=1;rounded=0;fontSize=12;startSize=8;endSize=8;curved=1;exitX=0.5;exitY=1;exitDx=0;exitDy=0;entryX=0.5;entryY=0;entryDx=0;entryDy=0;" edge="1" parent="1" source="4JXr-o_5Yrq9a8KZz1rp-10" target="zd73Y9ww8UCidpnAnRBJ-24">
          <mxGeometry relative="1" as="geometry">
            <mxPoint x="410" y="300" as="sourcePoint" />
            <mxPoint x="570" y="300" as="targetPoint" />
          </mxGeometry>
        </mxCell>
        <mxCell id="4JXr-o_5Yrq9a8KZz1rp-13" value="" style="endArrow=none;html=1;rounded=0;fontSize=12;startSize=8;endSize=8;curved=1;exitX=0;exitY=0.5;exitDx=0;exitDy=0;" edge="1" parent="1" source="zd73Y9ww8UCidpnAnRBJ-43" target="4JXr-o_5Yrq9a8KZz1rp-15">
          <mxGeometry relative="1" as="geometry">
            <mxPoint x="70" y="819" as="sourcePoint" />
            <mxPoint x="130" y="819.38" as="targetPoint" />
          </mxGeometry>
        </mxCell>
        <mxCell id="4JXr-o_5Yrq9a8KZz1rp-15" value="MontoTCD" style="ellipse;whiteSpace=wrap;html=1;align=center;dashed=1;" vertex="1" parent="1">
          <mxGeometry y="800.0000000000001" width="100" height="40" as="geometry" />
        </mxCell>
        <mxCell id="4JXr-o_5Yrq9a8KZz1rp-16" value="" style="endArrow=none;html=1;rounded=0;fontSize=12;startSize=8;endSize=8;curved=1;entryX=0;entryY=1;entryDx=0;entryDy=0;exitX=0.5;exitY=0;exitDx=0;exitDy=0;" edge="1" parent="1" source="4JXr-o_5Yrq9a8KZz1rp-17" target="4JXr-o_5Yrq9a8KZz1rp-10">
          <mxGeometry relative="1" as="geometry">
            <mxPoint x="510" y="420" as="sourcePoint" />
            <mxPoint x="560" y="420" as="targetPoint" />
          </mxGeometry>
        </mxCell>
        <mxCell id="4JXr-o_5Yrq9a8KZz1rp-17" value="Precio" style="ellipse;whiteSpace=wrap;html=1;align=center;dashed=1;" vertex="1" parent="1">
          <mxGeometry x="460" y="400" width="100" height="40" as="geometry" />
        </mxCell>
        <mxCell id="4JXr-o_5Yrq9a8KZz1rp-18" value="UsoDeCupones" style="ellipse;whiteSpace=wrap;html=1;align=center;" vertex="1" parent="1">
          <mxGeometry x="130" y="900" width="100" height="40" as="geometry" />
        </mxCell>
        <mxCell id="4JXr-o_5Yrq9a8KZz1rp-19" value="" style="endArrow=none;html=1;rounded=0;fontSize=12;startSize=8;endSize=8;curved=1;exitX=0.5;exitY=1;exitDx=0;exitDy=0;" edge="1" parent="1" source="zd73Y9ww8UCidpnAnRBJ-43" target="4JXr-o_5Yrq9a8KZz1rp-18">
          <mxGeometry relative="1" as="geometry">
            <mxPoint x="190" y="850" as="sourcePoint" />
            <mxPoint x="270" y="770" as="targetPoint" />
          </mxGeometry>
        </mxCell>
        <mxCell id="4JXr-o_5Yrq9a8KZz1rp-20" value="EstadoDeCod" style="ellipse;whiteSpace=wrap;html=1;align=center;" vertex="1" parent="1">
          <mxGeometry x="200" y="330" width="100" height="40" as="geometry" />
        </mxCell>
        <mxCell id="4JXr-o_5Yrq9a8KZz1rp-21" value="" style="endArrow=none;html=1;rounded=0;fontSize=12;startSize=8;endSize=8;curved=1;exitX=1;exitY=0.5;exitDx=0;exitDy=0;entryX=0;entryY=0.5;entryDx=0;entryDy=0;" edge="1" parent="1" source="4JXr-o_5Yrq9a8KZz1rp-20" target="4JXr-o_5Yrq9a8KZz1rp-5">
          <mxGeometry relative="1" as="geometry">
            <mxPoint x="360" y="270" as="sourcePoint" />
            <mxPoint x="520" y="270" as="targetPoint" />
          </mxGeometry>
        </mxCell>
        <mxCell id="4JXr-o_5Yrq9a8KZz1rp-23" value="(0,N)" style="text;strokeColor=none;fillColor=none;spacingLeft=4;spacingRight=4;overflow=hidden;rotatable=0;points=[[0,0.5],[1,0.5]];portConstraint=eastwest;fontSize=12;whiteSpace=wrap;html=1;" vertex="1" parent="1">
          <mxGeometry x="250" y="520" width="40" height="30" as="geometry" />
        </mxCell>
        <mxCell id="4JXr-o_5Yrq9a8KZz1rp-24" value="(1,N)" style="text;strokeColor=none;fillColor=none;spacingLeft=4;spacingRight=4;overflow=hidden;rotatable=0;points=[[0,0.5],[1,0.5]];portConstraint=eastwest;fontSize=12;whiteSpace=wrap;html=1;" vertex="1" parent="1">
          <mxGeometry x="480" y="520" width="40" height="30" as="geometry" />
        </mxCell>
        <mxCell id="4JXr-o_5Yrq9a8KZz1rp-25" value="(1,N)" style="text;strokeColor=none;fillColor=none;spacingLeft=4;spacingRight=4;overflow=hidden;rotatable=0;points=[[0,0.5],[1,0.5]];portConstraint=eastwest;fontSize=12;whiteSpace=wrap;html=1;" vertex="1" parent="1">
          <mxGeometry x="150" y="780" width="40" height="30" as="geometry" />
        </mxCell>
        <mxCell id="4JXr-o_5Yrq9a8KZz1rp-26" value="(1,1)" style="text;strokeColor=none;fillColor=none;spacingLeft=4;spacingRight=4;overflow=hidden;rotatable=0;points=[[0,0.5],[1,0.5]];portConstraint=eastwest;fontSize=12;whiteSpace=wrap;html=1;" vertex="1" parent="1">
          <mxGeometry x="190" y="560" width="40" height="30" as="geometry" />
        </mxCell>
        <mxCell id="4JXr-o_5Yrq9a8KZz1rp-27" value="(1,1)" style="text;strokeColor=none;fillColor=none;spacingLeft=4;spacingRight=4;overflow=hidden;rotatable=0;points=[[0,0.5],[1,0.5]];portConstraint=eastwest;fontSize=12;whiteSpace=wrap;html=1;" vertex="1" parent="1">
          <mxGeometry x="787" y="755" width="40" height="30" as="geometry" />
        </mxCell>
        <mxCell id="4JXr-o_5Yrq9a8KZz1rp-28" value="(1,N)" style="text;strokeColor=none;fillColor=none;spacingLeft=4;spacingRight=4;overflow=hidden;rotatable=0;points=[[0,0.5],[1,0.5]];portConstraint=eastwest;fontSize=12;whiteSpace=wrap;html=1;" vertex="1" parent="1">
          <mxGeometry x="530" y="560" width="40" height="30" as="geometry" />
        </mxCell>
        <mxCell id="4JXr-o_5Yrq9a8KZz1rp-29" value="(1,N)" style="text;strokeColor=none;fillColor=none;spacingLeft=4;spacingRight=4;overflow=hidden;rotatable=0;points=[[0,0.5],[1,0.5]];portConstraint=eastwest;fontSize=12;whiteSpace=wrap;html=1;" vertex="1" parent="1">
          <mxGeometry x="890" y="560" width="40" height="30" as="geometry" />
        </mxCell>
        <mxCell id="4JXr-o_5Yrq9a8KZz1rp-30" value="(1,N)" style="text;strokeColor=none;fillColor=none;spacingLeft=4;spacingRight=4;overflow=hidden;rotatable=0;points=[[0,0.5],[1,0.5]];portConstraint=eastwest;fontSize=12;whiteSpace=wrap;html=1;" vertex="1" parent="1">
          <mxGeometry x="890" y="725" width="40" height="30" as="geometry" />
        </mxCell>
        <mxCell id="4JXr-o_5Yrq9a8KZz1rp-31" value="(1,N)" style="text;strokeColor=none;fillColor=none;spacingLeft=4;spacingRight=4;overflow=hidden;rotatable=0;points=[[0,0.5],[1,0.5]];portConstraint=eastwest;fontSize=12;whiteSpace=wrap;html=1;" vertex="1" parent="1">
          <mxGeometry x="400" y="255" width="40" height="30" as="geometry" />
        </mxCell>
        <mxCell id="4JXr-o_5Yrq9a8KZz1rp-32" value="(1,N)" style="text;strokeColor=none;fillColor=none;spacingLeft=4;spacingRight=4;overflow=hidden;rotatable=0;points=[[0,0.5],[1,0.5]];portConstraint=eastwest;fontSize=12;whiteSpace=wrap;html=1;" vertex="1" parent="1">
          <mxGeometry x="210" y="490" width="40" height="30" as="geometry" />
        </mxCell>
        <mxCell id="4JXr-o_5Yrq9a8KZz1rp-33" value="(1,1)" style="text;strokeColor=none;fillColor=none;spacingLeft=4;spacingRight=4;overflow=hidden;rotatable=0;points=[[0,0.5],[1,0.5]];portConstraint=eastwest;fontSize=12;whiteSpace=wrap;html=1;" vertex="1" parent="1">
          <mxGeometry x="530" y="490" width="40" height="30" as="geometry" />
        </mxCell>
        <mxCell id="4JXr-o_5Yrq9a8KZz1rp-34" value="(1,N)" style="text;strokeColor=none;fillColor=none;spacingLeft=4;spacingRight=4;overflow=hidden;rotatable=0;points=[[0,0.5],[1,0.5]];portConstraint=eastwest;fontSize=12;whiteSpace=wrap;html=1;" vertex="1" parent="1">
          <mxGeometry x="490" y="255" width="40" height="30" as="geometry" />
        </mxCell>
      </root>
    </mxGraphModel>
  </diagram>
  <diagram id="CQIUptkuH2PUPw7vIkxv" name="PÃ¡gina-9">
    <mxGraphModel dx="1250" dy="1398" grid="1" gridSize="10" guides="1" tooltips="1" connect="1" arrows="1" fold="1" page="0" pageScale="1" pageWidth="827" pageHeight="1169" math="0" shadow="0">
      <root>
        <mxCell id="0" />
        <mxCell id="1" parent="0" />
        <mxCell id="CigkVUs9ojU6x5mGv1cV-1" value="Hotel" style="whiteSpace=wrap;html=1;align=center;" vertex="1" parent="1">
          <mxGeometry x="150" y="180" width="100" height="40" as="geometry" />
        </mxCell>
        <mxCell id="CigkVUs9ojU6x5mGv1cV-2" value="Cuit" style="ellipse;whiteSpace=wrap;html=1;align=center;fontStyle=4;" vertex="1" parent="1">
          <mxGeometry x="50" y="270" width="100" height="40" as="geometry" />
        </mxCell>
        <mxCell id="CigkVUs9ojU6x5mGv1cV-3" value="" style="endArrow=none;html=1;rounded=0;fontSize=12;startSize=8;endSize=8;curved=1;exitX=0.5;exitY=0;exitDx=0;exitDy=0;entryX=0.5;entryY=1;entryDx=0;entryDy=0;" edge="1" parent="1" source="CigkVUs9ojU6x5mGv1cV-2" target="CigkVUs9ojU6x5mGv1cV-1">
          <mxGeometry relative="1" as="geometry">
            <mxPoint x="120" y="200" as="sourcePoint" />
            <mxPoint x="280" y="200" as="targetPoint" />
          </mxGeometry>
        </mxCell>
        <mxCell id="CigkVUs9ojU6x5mGv1cV-5" value="Nombre" style="ellipse;whiteSpace=wrap;html=1;align=center;" vertex="1" parent="1">
          <mxGeometry y="180" width="100" height="40" as="geometry" />
        </mxCell>
        <mxCell id="StPXmSw9rKdhwZx4RB0A-1" value="" style="endArrow=none;html=1;rounded=0;fontSize=12;startSize=8;endSize=8;curved=1;exitX=1;exitY=0.5;exitDx=0;exitDy=0;entryX=0;entryY=0.5;entryDx=0;entryDy=0;" edge="1" parent="1" source="CigkVUs9ojU6x5mGv1cV-5" target="CigkVUs9ojU6x5mGv1cV-1">
          <mxGeometry relative="1" as="geometry">
            <mxPoint x="120" y="200" as="sourcePoint" />
            <mxPoint x="150" y="200" as="targetPoint" />
          </mxGeometry>
        </mxCell>
        <mxCell id="StPXmSw9rKdhwZx4RB0A-2" value="AÃ±osDeConstruc" style="ellipse;whiteSpace=wrap;html=1;align=center;" vertex="1" parent="1">
          <mxGeometry x="10" y="120" width="100" height="40" as="geometry" />
        </mxCell>
        <mxCell id="StPXmSw9rKdhwZx4RB0A-3" value="Telefono" style="ellipse;whiteSpace=wrap;html=1;align=center;" vertex="1" parent="1">
          <mxGeometry x="-20" y="230" width="100" height="40" as="geometry" />
        </mxCell>
        <mxCell id="StPXmSw9rKdhwZx4RB0A-4" value="" style="endArrow=none;html=1;rounded=0;fontSize=12;startSize=8;endSize=8;curved=1;exitX=1;exitY=0.5;exitDx=0;exitDy=0;entryX=0.5;entryY=1;entryDx=0;entryDy=0;" edge="1" parent="1" source="StPXmSw9rKdhwZx4RB0A-3" target="CigkVUs9ojU6x5mGv1cV-1">
          <mxGeometry relative="1" as="geometry">
            <mxPoint x="120" y="200" as="sourcePoint" />
            <mxPoint x="280" y="200" as="targetPoint" />
          </mxGeometry>
        </mxCell>
        <mxCell id="StPXmSw9rKdhwZx4RB0A-6" value="" style="endArrow=none;html=1;rounded=0;fontSize=12;startSize=8;endSize=8;curved=1;exitX=1;exitY=0.5;exitDx=0;exitDy=0;entryX=0.5;entryY=0;entryDx=0;entryDy=0;" edge="1" parent="1" source="StPXmSw9rKdhwZx4RB0A-2" target="CigkVUs9ojU6x5mGv1cV-1">
          <mxGeometry relative="1" as="geometry">
            <mxPoint x="120" y="200" as="sourcePoint" />
            <mxPoint x="280" y="200" as="targetPoint" />
          </mxGeometry>
        </mxCell>
        <mxCell id="StPXmSw9rKdhwZx4RB0A-7" value="Direccion" style="ellipse;whiteSpace=wrap;html=1;align=center;" vertex="1" parent="1">
          <mxGeometry x="70" y="70" width="100" height="40" as="geometry" />
        </mxCell>
        <mxCell id="StPXmSw9rKdhwZx4RB0A-8" value="" style="endArrow=none;html=1;rounded=0;fontSize=12;startSize=8;endSize=8;curved=1;exitX=0.5;exitY=1;exitDx=0;exitDy=0;entryX=0.5;entryY=0;entryDx=0;entryDy=0;" edge="1" parent="1" source="StPXmSw9rKdhwZx4RB0A-7" target="CigkVUs9ojU6x5mGv1cV-1">
          <mxGeometry relative="1" as="geometry">
            <mxPoint x="120" y="200" as="sourcePoint" />
            <mxPoint x="280" y="200" as="targetPoint" />
          </mxGeometry>
        </mxCell>
        <mxCell id="StPXmSw9rKdhwZx4RB0A-9" value="Categoria" style="whiteSpace=wrap;html=1;align=center;" vertex="1" parent="1">
          <mxGeometry x="150" y="480" width="100" height="40" as="geometry" />
        </mxCell>
        <mxCell id="StPXmSw9rKdhwZx4RB0A-10" value="" style="endArrow=none;html=1;rounded=0;fontSize=12;startSize=8;endSize=8;curved=1;exitX=0.5;exitY=1;exitDx=0;exitDy=0;" edge="1" parent="1" source="StPXmSw9rKdhwZx4RB0A-12" target="StPXmSw9rKdhwZx4RB0A-9">
          <mxGeometry relative="1" as="geometry">
            <mxPoint x="120" y="300" as="sourcePoint" />
            <mxPoint x="280" y="300" as="targetPoint" />
          </mxGeometry>
        </mxCell>
        <mxCell id="StPXmSw9rKdhwZx4RB0A-13" value="" style="endArrow=none;html=1;rounded=0;fontSize=12;startSize=8;endSize=8;curved=1;exitX=0.5;exitY=1;exitDx=0;exitDy=0;" edge="1" parent="1" source="CigkVUs9ojU6x5mGv1cV-1" target="StPXmSw9rKdhwZx4RB0A-12">
          <mxGeometry relative="1" as="geometry">
            <mxPoint x="200" y="220" as="sourcePoint" />
            <mxPoint x="200" y="480" as="targetPoint" />
          </mxGeometry>
        </mxCell>
        <mxCell id="StPXmSw9rKdhwZx4RB0A-12" value="tiene" style="shape=rhombus;perimeter=rhombusPerimeter;whiteSpace=wrap;html=1;align=center;" vertex="1" parent="1">
          <mxGeometry x="140" y="310" width="120" height="60" as="geometry" />
        </mxCell>
        <mxCell id="StPXmSw9rKdhwZx4RB0A-14" value="" style="endArrow=none;html=1;rounded=0;fontSize=12;startSize=8;endSize=8;curved=1;exitX=1;exitY=0;exitDx=0;exitDy=0;" edge="1" parent="1" source="StPXmSw9rKdhwZx4RB0A-12">
          <mxGeometry relative="1" as="geometry">
            <mxPoint x="120" y="300" as="sourcePoint" />
            <mxPoint x="280" y="280" as="targetPoint" />
          </mxGeometry>
        </mxCell>
        <mxCell id="StPXmSw9rKdhwZx4RB0A-16" value="Fecha" style="ellipse;whiteSpace=wrap;html=1;align=center;" vertex="1" parent="1">
          <mxGeometry x="250" y="270" width="100" height="40" as="geometry" />
        </mxCell>
        <mxCell id="StPXmSw9rKdhwZx4RB0A-17" value="" style="endArrow=none;html=1;rounded=0;fontSize=12;startSize=8;endSize=8;curved=1;exitX=0.5;exitY=1;exitDx=0;exitDy=0;" edge="1" parent="1" source="StPXmSw9rKdhwZx4RB0A-9">
          <mxGeometry relative="1" as="geometry">
            <mxPoint x="120" y="500" as="sourcePoint" />
            <mxPoint x="200" y="560" as="targetPoint" />
          </mxGeometry>
        </mxCell>
        <mxCell id="StPXmSw9rKdhwZx4RB0A-18" value="NumDeEstrellas" style="ellipse;whiteSpace=wrap;html=1;align=center;fontStyle=4;" vertex="1" parent="1">
          <mxGeometry x="150" y="560" width="100" height="40" as="geometry" />
        </mxCell>
        <mxCell id="StPXmSw9rKdhwZx4RB0A-19" value="" style="endArrow=none;html=1;rounded=0;fontSize=12;startSize=8;endSize=8;curved=1;exitX=1;exitY=0.5;exitDx=0;exitDy=0;entryX=0.5;entryY=1;entryDx=0;entryDy=0;" edge="1" parent="1" target="StPXmSw9rKdhwZx4RB0A-26">
          <mxGeometry relative="1" as="geometry">
            <mxPoint x="270" y="49.999999999999886" as="sourcePoint" />
            <mxPoint x="350" y="-30" as="targetPoint" />
          </mxGeometry>
        </mxCell>
        <mxCell id="StPXmSw9rKdhwZx4RB0A-20" value="" style="endArrow=none;html=1;rounded=0;fontSize=12;startSize=8;endSize=8;curved=1;exitX=1;exitY=0;exitDx=0;exitDy=0;entryX=0.5;entryY=1;entryDx=0;entryDy=0;" edge="1" parent="1" source="StPXmSw9rKdhwZx4RB0A-28" target="StPXmSw9rKdhwZx4RB0A-31">
          <mxGeometry relative="1" as="geometry">
            <mxPoint x="490" y="199.9999999999999" as="sourcePoint" />
            <mxPoint x="560" y="200" as="targetPoint" />
          </mxGeometry>
        </mxCell>
        <mxCell id="StPXmSw9rKdhwZx4RB0A-23" value="" style="endArrow=none;html=1;rounded=0;fontSize=12;startSize=8;endSize=8;curved=1;exitX=0.5;exitY=0;exitDx=0;exitDy=0;entryX=0;entryY=1;entryDx=0;entryDy=0;" edge="1" parent="1" source="CigkVUs9ojU6x5mGv1cV-1" target="StPXmSw9rKdhwZx4RB0A-27">
          <mxGeometry relative="1" as="geometry">
            <mxPoint x="250" y="200" as="sourcePoint" />
            <mxPoint x="389" y="135" as="targetPoint" />
          </mxGeometry>
        </mxCell>
        <mxCell id="StPXmSw9rKdhwZx4RB0A-25" value="" style="endArrow=none;html=1;rounded=0;fontSize=12;startSize=8;endSize=8;curved=1;exitX=0.5;exitY=0;exitDx=0;exitDy=0;entryX=0;entryY=1;entryDx=0;entryDy=0;" edge="1" parent="1" source="CigkVUs9ojU6x5mGv1cV-1" target="StPXmSw9rKdhwZx4RB0A-28">
          <mxGeometry relative="1" as="geometry">
            <mxPoint x="250" y="200" as="sourcePoint" />
            <mxPoint x="370" y="199.9999999999999" as="targetPoint" />
          </mxGeometry>
        </mxCell>
        <mxCell id="StPXmSw9rKdhwZx4RB0A-26" value="Servivicios" style="shape=ext;margin=3;double=1;whiteSpace=wrap;html=1;align=center;" vertex="1" parent="1">
          <mxGeometry x="250" y="-90" width="100" height="40" as="geometry" />
        </mxCell>
        <mxCell id="StPXmSw9rKdhwZx4RB0A-27" value="tiene" style="shape=rhombus;double=1;perimeter=rhombusPerimeter;whiteSpace=wrap;html=1;align=center;" vertex="1" parent="1">
          <mxGeometry x="200" y="40" width="120" height="60" as="geometry" />
        </mxCell>
        <mxCell id="StPXmSw9rKdhwZx4RB0A-28" value="tiene" style="shape=rhombus;double=1;perimeter=rhombusPerimeter;whiteSpace=wrap;html=1;align=center;" vertex="1" parent="1">
          <mxGeometry x="390" y="50" width="120" height="60" as="geometry" />
        </mxCell>
        <mxCell id="StPXmSw9rKdhwZx4RB0A-29" value="" style="endArrow=none;html=1;rounded=0;fontSize=12;startSize=8;endSize=8;curved=1;entryX=0.5;entryY=0;entryDx=0;entryDy=0;" edge="1" parent="1" target="StPXmSw9rKdhwZx4RB0A-26">
          <mxGeometry relative="1" as="geometry">
            <mxPoint x="310" y="-140" as="sourcePoint" />
            <mxPoint x="320" y="100" as="targetPoint" />
          </mxGeometry>
        </mxCell>
        <mxCell id="StPXmSw9rKdhwZx4RB0A-30" value="Nombre" style="ellipse;whiteSpace=wrap;html=1;align=center;" vertex="1" parent="1">
          <mxGeometry x="260" y="-180" width="100" height="40" as="geometry" />
        </mxCell>
        <mxCell id="StPXmSw9rKdhwZx4RB0A-31" value="Comodidades" style="shape=ext;margin=3;double=1;whiteSpace=wrap;html=1;align=center;" vertex="1" parent="1">
          <mxGeometry x="510" y="-90" width="100" height="40" as="geometry" />
        </mxCell>
        <mxCell id="StPXmSw9rKdhwZx4RB0A-32" value="" style="endArrow=none;html=1;rounded=0;fontSize=12;startSize=8;endSize=8;curved=1;entryX=0.5;entryY=0;entryDx=0;entryDy=0;exitX=0.5;exitY=1;exitDx=0;exitDy=0;" edge="1" parent="1" source="StPXmSw9rKdhwZx4RB0A-33" target="StPXmSw9rKdhwZx4RB0A-31">
          <mxGeometry relative="1" as="geometry">
            <mxPoint x="570" y="110" as="sourcePoint" />
            <mxPoint x="610" y="180" as="targetPoint" />
          </mxGeometry>
        </mxCell>
        <mxCell id="StPXmSw9rKdhwZx4RB0A-33" value="Nombre" style="ellipse;whiteSpace=wrap;html=1;align=center;" vertex="1" parent="1">
          <mxGeometry x="490" y="-160" width="100" height="40" as="geometry" />
        </mxCell>
        <mxCell id="StPXmSw9rKdhwZx4RB0A-35" value="Tipo" style="whiteSpace=wrap;html=1;align=center;" vertex="1" parent="1">
          <mxGeometry x="660" y="-60" width="100" height="40" as="geometry" />
        </mxCell>
        <mxCell id="StPXmSw9rKdhwZx4RB0A-43" value="constituido" style="shape=rhombus;double=1;perimeter=rhombusPerimeter;whiteSpace=wrap;html=1;align=center;" vertex="1" parent="1">
          <mxGeometry x="410" y="170" width="120" height="60" as="geometry" />
        </mxCell>
        <mxCell id="StPXmSw9rKdhwZx4RB0A-45" value="" style="endArrow=none;html=1;rounded=0;fontSize=12;startSize=8;endSize=8;curved=1;exitX=1;exitY=0.5;exitDx=0;exitDy=0;entryX=0;entryY=0.5;entryDx=0;entryDy=0;" edge="1" parent="1" source="CigkVUs9ojU6x5mGv1cV-1" target="StPXmSw9rKdhwZx4RB0A-43">
          <mxGeometry relative="1" as="geometry">
            <mxPoint x="370" y="50" as="sourcePoint" />
            <mxPoint x="530" y="50" as="targetPoint" />
          </mxGeometry>
        </mxCell>
        <mxCell id="StPXmSw9rKdhwZx4RB0A-46" value="" style="endArrow=none;html=1;rounded=0;fontSize=12;startSize=8;endSize=8;curved=1;exitX=1;exitY=0.5;exitDx=0;exitDy=0;" edge="1" parent="1" source="StPXmSw9rKdhwZx4RB0A-43" target="StPXmSw9rKdhwZx4RB0A-48">
          <mxGeometry relative="1" as="geometry">
            <mxPoint x="370" y="50" as="sourcePoint" />
            <mxPoint x="530" y="50" as="targetPoint" />
          </mxGeometry>
        </mxCell>
        <mxCell id="StPXmSw9rKdhwZx4RB0A-48" value="Habitacion" style="shape=ext;margin=3;double=1;whiteSpace=wrap;html=1;align=center;" vertex="1" parent="1">
          <mxGeometry x="660" y="180" width="100" height="40" as="geometry" />
        </mxCell>
        <mxCell id="StPXmSw9rKdhwZx4RB0A-49" value="Pertenece" style="shape=rhombus;perimeter=rhombusPerimeter;whiteSpace=wrap;html=1;align=center;" vertex="1" parent="1">
          <mxGeometry x="650" y="40" width="120" height="60" as="geometry" />
        </mxCell>
        <mxCell id="StPXmSw9rKdhwZx4RB0A-51" value="" style="endArrow=none;html=1;rounded=0;fontSize=12;startSize=8;endSize=8;curved=1;entryX=0.5;entryY=0;entryDx=0;entryDy=0;exitX=0.5;exitY=1;exitDx=0;exitDy=0;" edge="1" parent="1" source="StPXmSw9rKdhwZx4RB0A-49" target="StPXmSw9rKdhwZx4RB0A-48">
          <mxGeometry relative="1" as="geometry">
            <mxPoint x="710" y="110" as="sourcePoint" />
            <mxPoint x="770" y="50" as="targetPoint" />
          </mxGeometry>
        </mxCell>
        <mxCell id="StPXmSw9rKdhwZx4RB0A-52" value="" style="endArrow=none;html=1;rounded=0;fontSize=12;startSize=8;endSize=8;curved=1;entryX=0.5;entryY=1;entryDx=0;entryDy=0;exitX=0.5;exitY=0;exitDx=0;exitDy=0;" edge="1" parent="1" source="StPXmSw9rKdhwZx4RB0A-49" target="StPXmSw9rKdhwZx4RB0A-35">
          <mxGeometry relative="1" as="geometry">
            <mxPoint x="610" y="50" as="sourcePoint" />
            <mxPoint x="770" y="50" as="targetPoint" />
          </mxGeometry>
        </mxCell>
        <mxCell id="StPXmSw9rKdhwZx4RB0A-53" value="Nombre" style="ellipse;whiteSpace=wrap;html=1;align=center;fontStyle=4;" vertex="1" parent="1">
          <mxGeometry x="660" y="-150" width="100" height="40" as="geometry" />
        </mxCell>
        <mxCell id="StPXmSw9rKdhwZx4RB0A-54" value="" style="endArrow=none;html=1;rounded=0;fontSize=12;startSize=8;endSize=8;curved=1;exitX=0.5;exitY=1;exitDx=0;exitDy=0;entryX=0.5;entryY=0;entryDx=0;entryDy=0;" edge="1" parent="1" source="StPXmSw9rKdhwZx4RB0A-53" target="StPXmSw9rKdhwZx4RB0A-35">
          <mxGeometry relative="1" as="geometry">
            <mxPoint x="610" y="50" as="sourcePoint" />
            <mxPoint x="770" y="50" as="targetPoint" />
          </mxGeometry>
        </mxCell>
        <mxCell id="StPXmSw9rKdhwZx4RB0A-55" value="Precio" style="ellipse;whiteSpace=wrap;html=1;align=center;" vertex="1" parent="1">
          <mxGeometry x="660" y="270" width="100" height="40" as="geometry" />
        </mxCell>
        <mxCell id="StPXmSw9rKdhwZx4RB0A-56" value="" style="endArrow=none;html=1;rounded=0;fontSize=12;startSize=8;endSize=8;curved=1;exitX=0.5;exitY=0;exitDx=0;exitDy=0;entryX=0.5;entryY=1;entryDx=0;entryDy=0;" edge="1" parent="1" source="StPXmSw9rKdhwZx4RB0A-55" target="StPXmSw9rKdhwZx4RB0A-48">
          <mxGeometry relative="1" as="geometry">
            <mxPoint x="490" y="170" as="sourcePoint" />
            <mxPoint x="650" y="170" as="targetPoint" />
          </mxGeometry>
        </mxCell>
        <mxCell id="StPXmSw9rKdhwZx4RB0A-57" value="Numero" style="ellipse;whiteSpace=wrap;html=1;align=center;fontStyle=4;" vertex="1" parent="1">
          <mxGeometry x="540" y="260" width="100" height="40" as="geometry" />
        </mxCell>
        <mxCell id="StPXmSw9rKdhwZx4RB0A-58" value="NumPiso" style="ellipse;whiteSpace=wrap;html=1;align=center;" vertex="1" parent="1">
          <mxGeometry x="440" y="320" width="100" height="40" as="geometry" />
        </mxCell>
        <mxCell id="StPXmSw9rKdhwZx4RB0A-59" value="NumDeHab" style="ellipse;whiteSpace=wrap;html=1;align=center;" vertex="1" parent="1">
          <mxGeometry x="580" y="330" width="100" height="40" as="geometry" />
        </mxCell>
        <mxCell id="StPXmSw9rKdhwZx4RB0A-60" value="" style="endArrow=none;html=1;rounded=0;fontSize=12;startSize=8;endSize=8;curved=1;exitX=0.5;exitY=0;exitDx=0;exitDy=0;entryX=0.5;entryY=1;entryDx=0;entryDy=0;" edge="1" parent="1" source="StPXmSw9rKdhwZx4RB0A-58" target="StPXmSw9rKdhwZx4RB0A-57">
          <mxGeometry relative="1" as="geometry">
            <mxPoint x="490" y="170" as="sourcePoint" />
            <mxPoint x="650" y="170" as="targetPoint" />
          </mxGeometry>
        </mxCell>
        <mxCell id="StPXmSw9rKdhwZx4RB0A-61" value="" style="endArrow=none;html=1;rounded=0;fontSize=12;startSize=8;endSize=8;curved=1;exitX=0.5;exitY=1;exitDx=0;exitDy=0;entryX=0.5;entryY=0;entryDx=0;entryDy=0;" edge="1" parent="1" source="StPXmSw9rKdhwZx4RB0A-57" target="StPXmSw9rKdhwZx4RB0A-59">
          <mxGeometry relative="1" as="geometry">
            <mxPoint x="490" y="170" as="sourcePoint" />
            <mxPoint x="650" y="170" as="targetPoint" />
          </mxGeometry>
        </mxCell>
        <mxCell id="StPXmSw9rKdhwZx4RB0A-62" value="" style="endArrow=none;html=1;rounded=0;fontSize=12;startSize=8;endSize=8;curved=1;exitX=0.5;exitY=0;exitDx=0;exitDy=0;entryX=0.5;entryY=1;entryDx=0;entryDy=0;" edge="1" parent="1" source="StPXmSw9rKdhwZx4RB0A-57" target="StPXmSw9rKdhwZx4RB0A-48">
          <mxGeometry relative="1" as="geometry">
            <mxPoint x="490" y="170" as="sourcePoint" />
            <mxPoint x="650" y="170" as="targetPoint" />
          </mxGeometry>
        </mxCell>
        <mxCell id="StPXmSw9rKdhwZx4RB0A-63" value="" style="endArrow=none;html=1;rounded=0;fontSize=12;startSize=8;endSize=8;curved=1;exitX=0.5;exitY=1;exitDx=0;exitDy=0;" edge="1" parent="1" source="StPXmSw9rKdhwZx4RB0A-48" target="StPXmSw9rKdhwZx4RB0A-64">
          <mxGeometry relative="1" as="geometry">
            <mxPoint x="610" y="170" as="sourcePoint" />
            <mxPoint x="810" y="270" as="targetPoint" />
          </mxGeometry>
        </mxCell>
        <mxCell id="StPXmSw9rKdhwZx4RB0A-64" value="Codigo" style="ellipse;whiteSpace=wrap;html=1;align=center;" vertex="1" parent="1">
          <mxGeometry x="770" y="260" width="100" height="40" as="geometry" />
        </mxCell>
        <mxCell id="StPXmSw9rKdhwZx4RB0A-65" value="" style="endArrow=none;html=1;rounded=0;fontSize=12;startSize=8;endSize=8;curved=1;exitX=0.5;exitY=0;exitDx=0;exitDy=0;" edge="1" parent="1" source="StPXmSw9rKdhwZx4RB0A-48" target="StPXmSw9rKdhwZx4RB0A-66">
          <mxGeometry relative="1" as="geometry">
            <mxPoint x="610" y="170" as="sourcePoint" />
            <mxPoint x="830" y="130" as="targetPoint" />
          </mxGeometry>
        </mxCell>
        <mxCell id="StPXmSw9rKdhwZx4RB0A-66" value="MetrosCuadrados" style="ellipse;whiteSpace=wrap;html=1;align=center;" vertex="1" parent="1">
          <mxGeometry x="780" y="110" width="100" height="40" as="geometry" />
        </mxCell>
        <mxCell id="StPXmSw9rKdhwZx4RB0A-67" value="Reserva" style="whiteSpace=wrap;html=1;align=center;" vertex="1" parent="1">
          <mxGeometry x="1230" y="180" width="100" height="40" as="geometry" />
        </mxCell>
        <mxCell id="StPXmSw9rKdhwZx4RB0A-68" value="NumeroDeReser" style="ellipse;whiteSpace=wrap;html=1;align=center;fontStyle=4;" vertex="1" parent="1">
          <mxGeometry x="1140" y="280" width="100" height="40" as="geometry" />
        </mxCell>
        <mxCell id="StPXmSw9rKdhwZx4RB0A-69" value="FecDeFinalizacion" style="ellipse;whiteSpace=wrap;html=1;align=center;" vertex="1" parent="1">
          <mxGeometry x="1270" y="280" width="100" height="40" as="geometry" />
        </mxCell>
        <mxCell id="StPXmSw9rKdhwZx4RB0A-70" value="" style="endArrow=none;html=1;rounded=0;fontSize=12;startSize=8;endSize=8;curved=1;exitX=0.5;exitY=0;exitDx=0;exitDy=0;entryX=0.5;entryY=1;entryDx=0;entryDy=0;" edge="1" parent="1" source="StPXmSw9rKdhwZx4RB0A-68" target="StPXmSw9rKdhwZx4RB0A-67">
          <mxGeometry relative="1" as="geometry">
            <mxPoint x="1260" y="290" as="sourcePoint" />
            <mxPoint x="1420" y="290" as="targetPoint" />
          </mxGeometry>
        </mxCell>
        <mxCell id="StPXmSw9rKdhwZx4RB0A-71" value="" style="endArrow=none;html=1;rounded=0;fontSize=12;startSize=8;endSize=8;curved=1;exitX=0.5;exitY=1;exitDx=0;exitDy=0;entryX=0.5;entryY=0;entryDx=0;entryDy=0;" edge="1" parent="1" source="StPXmSw9rKdhwZx4RB0A-67" target="StPXmSw9rKdhwZx4RB0A-69">
          <mxGeometry relative="1" as="geometry">
            <mxPoint x="1260" y="290" as="sourcePoint" />
            <mxPoint x="1420" y="290" as="targetPoint" />
          </mxGeometry>
        </mxCell>
        <mxCell id="StPXmSw9rKdhwZx4RB0A-72" value="Precio" style="ellipse;whiteSpace=wrap;html=1;align=center;" vertex="1" parent="1">
          <mxGeometry x="1230" y="80" width="100" height="40" as="geometry" />
        </mxCell>
        <mxCell id="StPXmSw9rKdhwZx4RB0A-73" value="" style="endArrow=none;html=1;rounded=0;fontSize=12;startSize=8;endSize=8;curved=1;exitX=0.5;exitY=1;exitDx=0;exitDy=0;entryX=0.5;entryY=0;entryDx=0;entryDy=0;" edge="1" parent="1" source="StPXmSw9rKdhwZx4RB0A-72" target="StPXmSw9rKdhwZx4RB0A-67">
          <mxGeometry relative="1" as="geometry">
            <mxPoint x="1260" y="290" as="sourcePoint" />
            <mxPoint x="1280" y="180" as="targetPoint" />
          </mxGeometry>
        </mxCell>
        <mxCell id="StPXmSw9rKdhwZx4RB0A-74" value="" style="endArrow=none;html=1;rounded=0;fontSize=12;startSize=8;endSize=8;curved=1;exitX=1;exitY=0.5;exitDx=0;exitDy=0;entryX=0;entryY=0.5;entryDx=0;entryDy=0;" edge="1" parent="1" source="StPXmSw9rKdhwZx4RB0A-48" target="StPXmSw9rKdhwZx4RB0A-67">
          <mxGeometry relative="1" as="geometry">
            <mxPoint x="840" y="300" as="sourcePoint" />
            <mxPoint x="1000" y="300" as="targetPoint" />
          </mxGeometry>
        </mxCell>
        <mxCell id="StPXmSw9rKdhwZx4RB0A-75" value="Obtiene" style="shape=rhombus;perimeter=rhombusPerimeter;whiteSpace=wrap;html=1;align=center;" vertex="1" parent="1">
          <mxGeometry x="940" y="170" width="120" height="60" as="geometry" />
        </mxCell>
        <mxCell id="StPXmSw9rKdhwZx4RB0A-76" value="" style="endArrow=none;html=1;rounded=0;fontSize=12;startSize=8;endSize=8;curved=1;exitX=1;exitY=0.5;exitDx=0;exitDy=0;" edge="1" parent="1" source="StPXmSw9rKdhwZx4RB0A-67">
          <mxGeometry relative="1" as="geometry">
            <mxPoint x="1390" y="300" as="sourcePoint" />
            <mxPoint x="1720" y="200" as="targetPoint" />
          </mxGeometry>
        </mxCell>
        <mxCell id="StPXmSw9rKdhwZx4RB0A-77" value="Hace" style="shape=rhombus;perimeter=rhombusPerimeter;whiteSpace=wrap;html=1;align=center;" vertex="1" parent="1">
          <mxGeometry x="1440" y="170" width="120" height="60" as="geometry" />
        </mxCell>
        <mxCell id="StPXmSw9rKdhwZx4RB0A-78" value="" style="endArrow=none;html=1;rounded=0;fontSize=12;startSize=8;endSize=8;curved=1;exitX=1;exitY=0.5;exitDx=0;exitDy=0;entryX=0;entryY=0.5;entryDx=0;entryDy=0;" edge="1" parent="1" source="StPXmSw9rKdhwZx4RB0A-67" target="StPXmSw9rKdhwZx4RB0A-79">
          <mxGeometry relative="1" as="geometry">
            <mxPoint x="1390" y="300" as="sourcePoint" />
            <mxPoint x="1470" y="320" as="targetPoint" />
          </mxGeometry>
        </mxCell>
        <mxCell id="StPXmSw9rKdhwZx4RB0A-79" value="Hace" style="shape=rhombus;perimeter=rhombusPerimeter;whiteSpace=wrap;html=1;align=center;" vertex="1" parent="1">
          <mxGeometry x="1470" y="290" width="120" height="60" as="geometry" />
        </mxCell>
        <mxCell id="StPXmSw9rKdhwZx4RB0A-80" value="" style="endArrow=none;html=1;rounded=0;fontSize=12;startSize=8;endSize=8;curved=1;exitX=1;exitY=0.5;exitDx=0;exitDy=0;" edge="1" parent="1" source="StPXmSw9rKdhwZx4RB0A-79">
          <mxGeometry relative="1" as="geometry">
            <mxPoint x="1400" y="60" as="sourcePoint" />
            <mxPoint x="1720" y="320" as="targetPoint" />
          </mxGeometry>
        </mxCell>
        <mxCell id="StPXmSw9rKdhwZx4RB0A-81" value="" style="endArrow=none;html=1;rounded=0;fontSize=12;startSize=8;endSize=8;curved=1;exitX=0.5;exitY=0;exitDx=0;exitDy=0;" edge="1" parent="1" source="StPXmSw9rKdhwZx4RB0A-79" target="StPXmSw9rKdhwZx4RB0A-83">
          <mxGeometry relative="1" as="geometry">
            <mxPoint x="1400" y="250" as="sourcePoint" />
            <mxPoint x="1570" y="280" as="targetPoint" />
          </mxGeometry>
        </mxCell>
        <mxCell id="StPXmSw9rKdhwZx4RB0A-83" value="Descuento" style="ellipse;whiteSpace=wrap;html=1;align=center;" vertex="1" parent="1">
          <mxGeometry x="1560" y="250" width="100" height="40" as="geometry" />
        </mxCell>
        <mxCell id="StPXmSw9rKdhwZx4RB0A-84" value="Persona" style="whiteSpace=wrap;html=1;align=center;" vertex="1" parent="1">
          <mxGeometry x="1720" y="180" width="100" height="40" as="geometry" />
        </mxCell>
        <mxCell id="StPXmSw9rKdhwZx4RB0A-85" value="Agencia" style="whiteSpace=wrap;html=1;align=center;" vertex="1" parent="1">
          <mxGeometry x="1720" y="300" width="100" height="40" as="geometry" />
        </mxCell>
        <mxCell id="StPXmSw9rKdhwZx4RB0A-86" value="Dni" style="ellipse;whiteSpace=wrap;html=1;align=center;fontStyle=4;" vertex="1" parent="1">
          <mxGeometry x="1700" y="90" width="100" height="40" as="geometry" />
        </mxCell>
        <mxCell id="StPXmSw9rKdhwZx4RB0A-87" value="Nombre" style="ellipse;whiteSpace=wrap;html=1;align=center;" vertex="1" parent="1">
          <mxGeometry x="1840" y="110" width="100" height="40" as="geometry" />
        </mxCell>
        <mxCell id="StPXmSw9rKdhwZx4RB0A-88" value="Telefono" style="ellipse;whiteSpace=wrap;html=1;align=center;" vertex="1" parent="1">
          <mxGeometry x="1880" y="180" width="100" height="40" as="geometry" />
        </mxCell>
        <mxCell id="StPXmSw9rKdhwZx4RB0A-89" value="Telefono" style="ellipse;whiteSpace=wrap;html=1;align=center;" vertex="1" parent="1">
          <mxGeometry x="1890" y="300" width="100" height="40" as="geometry" />
        </mxCell>
        <mxCell id="StPXmSw9rKdhwZx4RB0A-90" value="Correo electronico" style="ellipse;whiteSpace=wrap;html=1;align=center;" vertex="1" parent="1">
          <mxGeometry x="1860" y="370" width="100" height="40" as="geometry" />
        </mxCell>
        <mxCell id="StPXmSw9rKdhwZx4RB0A-91" value="Cuit" style="ellipse;whiteSpace=wrap;html=1;align=center;fontStyle=4;" vertex="1" parent="1">
          <mxGeometry x="1720" y="380" width="100" height="40" as="geometry" />
        </mxCell>
        <mxCell id="StPXmSw9rKdhwZx4RB0A-93" value="" style="endArrow=none;html=1;rounded=0;fontSize=12;startSize=8;endSize=8;curved=1;exitX=0.5;exitY=1;exitDx=0;exitDy=0;entryX=0.5;entryY=0;entryDx=0;entryDy=0;" edge="1" parent="1" source="StPXmSw9rKdhwZx4RB0A-85" target="StPXmSw9rKdhwZx4RB0A-91">
          <mxGeometry relative="1" as="geometry">
            <mxPoint x="1650" y="490" as="sourcePoint" />
            <mxPoint x="1810" y="490" as="targetPoint" />
          </mxGeometry>
        </mxCell>
        <mxCell id="StPXmSw9rKdhwZx4RB0A-94" value="" style="endArrow=none;html=1;rounded=0;fontSize=12;startSize=8;endSize=8;curved=1;exitX=0.5;exitY=1;exitDx=0;exitDy=0;entryX=0;entryY=0.5;entryDx=0;entryDy=0;" edge="1" parent="1" source="StPXmSw9rKdhwZx4RB0A-85" target="StPXmSw9rKdhwZx4RB0A-90">
          <mxGeometry relative="1" as="geometry">
            <mxPoint x="1650" y="490" as="sourcePoint" />
            <mxPoint x="1810" y="490" as="targetPoint" />
          </mxGeometry>
        </mxCell>
        <mxCell id="StPXmSw9rKdhwZx4RB0A-95" value="" style="endArrow=none;html=1;rounded=0;fontSize=12;startSize=8;endSize=8;curved=1;exitX=0;exitY=0.5;exitDx=0;exitDy=0;entryX=1;entryY=0.5;entryDx=0;entryDy=0;" edge="1" parent="1" source="StPXmSw9rKdhwZx4RB0A-88" target="StPXmSw9rKdhwZx4RB0A-84">
          <mxGeometry relative="1" as="geometry">
            <mxPoint x="1650" y="220" as="sourcePoint" />
            <mxPoint x="1810" y="220" as="targetPoint" />
          </mxGeometry>
        </mxCell>
        <mxCell id="StPXmSw9rKdhwZx4RB0A-96" value="" style="endArrow=none;html=1;rounded=0;fontSize=12;startSize=8;endSize=8;curved=1;exitX=0.5;exitY=1;exitDx=0;exitDy=0;entryX=0.5;entryY=0;entryDx=0;entryDy=0;" edge="1" parent="1" source="StPXmSw9rKdhwZx4RB0A-86" target="StPXmSw9rKdhwZx4RB0A-84">
          <mxGeometry relative="1" as="geometry">
            <mxPoint x="1650" y="220" as="sourcePoint" />
            <mxPoint x="1810" y="220" as="targetPoint" />
          </mxGeometry>
        </mxCell>
        <mxCell id="StPXmSw9rKdhwZx4RB0A-97" value="" style="endArrow=none;html=1;rounded=0;fontSize=12;startSize=8;endSize=8;curved=1;exitX=0.5;exitY=1;exitDx=0;exitDy=0;entryX=1;entryY=0.5;entryDx=0;entryDy=0;" edge="1" parent="1" source="StPXmSw9rKdhwZx4RB0A-87" target="StPXmSw9rKdhwZx4RB0A-84">
          <mxGeometry relative="1" as="geometry">
            <mxPoint x="1650" y="220" as="sourcePoint" />
            <mxPoint x="1810" y="220" as="targetPoint" />
          </mxGeometry>
        </mxCell>
        <mxCell id="StPXmSw9rKdhwZx4RB0A-99" value="" style="endArrow=none;html=1;rounded=0;fontSize=12;startSize=8;endSize=8;curved=1;entryX=0;entryY=0.5;entryDx=0;entryDy=0;exitX=1;exitY=0.5;exitDx=0;exitDy=0;" edge="1" parent="1" source="StPXmSw9rKdhwZx4RB0A-85" target="StPXmSw9rKdhwZx4RB0A-89">
          <mxGeometry relative="1" as="geometry">
            <mxPoint x="1650" y="220" as="sourcePoint" />
            <mxPoint x="1810" y="220" as="targetPoint" />
          </mxGeometry>
        </mxCell>
        <mxCell id="StPXmSw9rKdhwZx4RB0A-100" value="(1,1)" style="text;strokeColor=none;fillColor=none;spacingLeft=4;spacingRight=4;overflow=hidden;rotatable=0;points=[[0,0.5],[1,0.5]];portConstraint=eastwest;fontSize=12;whiteSpace=wrap;html=1;" vertex="1" parent="1">
          <mxGeometry x="200" y="460" width="40" height="30" as="geometry" />
        </mxCell>
        <mxCell id="StPXmSw9rKdhwZx4RB0A-101" value="(1,N)" style="text;strokeColor=none;fillColor=none;spacingLeft=4;spacingRight=4;overflow=hidden;rotatable=0;points=[[0,0.5],[1,0.5]];portConstraint=eastwest;fontSize=12;whiteSpace=wrap;html=1;" vertex="1" parent="1">
          <mxGeometry x="200" y="220" width="40" height="30" as="geometry" />
        </mxCell>
        <mxCell id="StPXmSw9rKdhwZx4RB0A-102" value="(1,N)" style="text;strokeColor=none;fillColor=none;spacingLeft=4;spacingRight=4;overflow=hidden;rotatable=0;points=[[0,0.5],[1,0.5]];portConstraint=eastwest;fontSize=12;whiteSpace=wrap;html=1;" vertex="1" parent="1">
          <mxGeometry x="620" y="180" width="40" height="30" as="geometry" />
        </mxCell>
        <mxCell id="StPXmSw9rKdhwZx4RB0A-103" value="(N,N)" style="text;strokeColor=none;fillColor=none;spacingLeft=4;spacingRight=4;overflow=hidden;rotatable=0;points=[[0,0.5],[1,0.5]];portConstraint=eastwest;fontSize=12;whiteSpace=wrap;html=1;" vertex="1" parent="1">
          <mxGeometry x="250" y="180" width="40" height="30" as="geometry" />
        </mxCell>
        <mxCell id="StPXmSw9rKdhwZx4RB0A-104" value="(1,N)" style="text;strokeColor=none;fillColor=none;spacingLeft=4;spacingRight=4;overflow=hidden;rotatable=0;points=[[0,0.5],[1,0.5]];portConstraint=eastwest;fontSize=12;whiteSpace=wrap;html=1;" vertex="1" parent="1">
          <mxGeometry x="510" y="-40" width="40" height="30" as="geometry" />
        </mxCell>
        <mxCell id="StPXmSw9rKdhwZx4RB0A-105" value="(1,N)" style="text;strokeColor=none;fillColor=none;spacingLeft=4;spacingRight=4;overflow=hidden;rotatable=0;points=[[0,0.5],[1,0.5]];portConstraint=eastwest;fontSize=12;whiteSpace=wrap;html=1;" vertex="1" parent="1">
          <mxGeometry x="250" y="-50" width="40" height="30" as="geometry" />
        </mxCell>
        <mxCell id="StPXmSw9rKdhwZx4RB0A-106" value="(1,N)" style="text;strokeColor=none;fillColor=none;spacingLeft=4;spacingRight=4;overflow=hidden;rotatable=0;points=[[0,0.5],[1,0.5]];portConstraint=eastwest;fontSize=12;whiteSpace=wrap;html=1;" vertex="1" parent="1">
          <mxGeometry x="170" y="120" width="40" height="30" as="geometry" />
        </mxCell>
        <mxCell id="StPXmSw9rKdhwZx4RB0A-108" value="(1,N)" style="text;strokeColor=none;fillColor=none;spacingLeft=4;spacingRight=4;overflow=hidden;rotatable=0;points=[[0,0.5],[1,0.5]];portConstraint=eastwest;fontSize=12;whiteSpace=wrap;html=1;" vertex="1" parent="1">
          <mxGeometry x="230" y="125" width="40" height="30" as="geometry" />
        </mxCell>
        <mxCell id="StPXmSw9rKdhwZx4RB0A-109" value="(1,N)" style="text;strokeColor=none;fillColor=none;spacingLeft=4;spacingRight=4;overflow=hidden;rotatable=0;points=[[0,0.5],[1,0.5]];portConstraint=eastwest;fontSize=12;whiteSpace=wrap;html=1;" vertex="1" parent="1">
          <mxGeometry x="670" y="155" width="40" height="30" as="geometry" />
        </mxCell>
        <mxCell id="StPXmSw9rKdhwZx4RB0A-110" value="(1,1)" style="text;strokeColor=none;fillColor=none;spacingLeft=4;spacingRight=4;overflow=hidden;rotatable=0;points=[[0,0.5],[1,0.5]];portConstraint=eastwest;fontSize=12;whiteSpace=wrap;html=1;" vertex="1" parent="1">
          <mxGeometry x="680" y="-10" width="40" height="30" as="geometry" />
        </mxCell>
        <mxCell id="StPXmSw9rKdhwZx4RB0A-112" value="(1,N)" style="text;strokeColor=none;fillColor=none;spacingLeft=4;spacingRight=4;overflow=hidden;rotatable=0;points=[[0,0.5],[1,0.5]];portConstraint=eastwest;fontSize=12;whiteSpace=wrap;html=1;" vertex="1" parent="1">
          <mxGeometry x="1190" y="180" width="40" height="30" as="geometry" />
        </mxCell>
        <mxCell id="StPXmSw9rKdhwZx4RB0A-113" value="(1,N)" style="text;strokeColor=none;fillColor=none;spacingLeft=4;spacingRight=4;overflow=hidden;rotatable=0;points=[[0,0.5],[1,0.5]];portConstraint=eastwest;fontSize=12;whiteSpace=wrap;html=1;" vertex="1" parent="1">
          <mxGeometry x="760" y="170" width="40" height="30" as="geometry" />
        </mxCell>
        <mxCell id="StPXmSw9rKdhwZx4RB0A-116" value="(1,N)" style="text;strokeColor=none;fillColor=none;spacingLeft=4;spacingRight=4;overflow=hidden;rotatable=0;points=[[0,0.5],[1,0.5]];portConstraint=eastwest;fontSize=12;whiteSpace=wrap;html=1;" vertex="1" parent="1">
          <mxGeometry x="1350" y="180" width="40" height="30" as="geometry" />
        </mxCell>
        <mxCell id="StPXmSw9rKdhwZx4RB0A-117" value="(1,N)" style="text;strokeColor=none;fillColor=none;spacingLeft=4;spacingRight=4;overflow=hidden;rotatable=0;points=[[0,0.5],[1,0.5]];portConstraint=eastwest;fontSize=12;whiteSpace=wrap;html=1;" vertex="1" parent="1">
          <mxGeometry x="1690" y="180" width="40" height="30" as="geometry" />
        </mxCell>
        <mxCell id="StPXmSw9rKdhwZx4RB0A-118" value="(1,N)" style="text;strokeColor=none;fillColor=none;spacingLeft=4;spacingRight=4;overflow=hidden;rotatable=0;points=[[0,0.5],[1,0.5]];portConstraint=eastwest;fontSize=12;whiteSpace=wrap;html=1;" vertex="1" parent="1">
          <mxGeometry x="1680" y="300" width="40" height="30" as="geometry" />
        </mxCell>
        <mxCell id="StPXmSw9rKdhwZx4RB0A-119" value="(1,N)" style="text;strokeColor=none;fillColor=none;spacingLeft=4;spacingRight=4;overflow=hidden;rotatable=0;points=[[0,0.5],[1,0.5]];portConstraint=eastwest;fontSize=12;whiteSpace=wrap;html=1;" vertex="1" parent="1">
          <mxGeometry x="1340" y="230" width="40" height="30" as="geometry" />
        </mxCell>
      </root>
    </mxGraphModel>
  </diagram>
</mxfile>
